<svg xmlns="http://www.w3.org/2000/svg" xmlns:xlink="http://www.w3.org/1999/xlink" width="1080" zoomAndPan="magnify" viewBox="0 0 810 809.999993" height="1080" preserveAspectRatio="xMidYMid meet" version="1.0"><defs><clipPath id="60c884770a"><path d="M 166.113281 81 L 643.886719 81 L 643.886719 558.773438 L 166.113281 558.773438 Z M 166.113281 81 " clip-rule="nonzero"/></clipPath><clipPath id="db55eddd04"><path d="M 405 81 C 273.066406 81 166.113281 187.953125 166.113281 319.886719 C 166.113281 451.820312 273.066406 558.773438 405 558.773438 C 536.933594 558.773438 643.886719 451.820312 643.886719 319.886719 C 643.886719 187.953125 536.933594 81 405 81 Z M 405 81 " clip-rule="nonzero"/></clipPath><clipPath id="f93333e27d"><path d="M 123 32.746094 L 687 32.746094 L 687 777.496094 L 123 777.496094 Z M 123 32.746094 " clip-rule="nonzero"/></clipPath><clipPath id="07a54ea1e0"><path d="M 329 139.320312 L 481 139.320312 L 481 274 L 329 274 Z M 329 139.320312 " clip-rule="nonzero"/></clipPath><clipPath id="e61fd5ca84"><path d="M 255.386719 350 L 391 350 L 391 452 L 255.386719 452 Z M 255.386719 350 " clip-rule="nonzero"/></clipPath><clipPath id="94ce3cbd82"><path d="M 419 350 L 554.636719 350 L 554.636719 452 L 419 452 Z M 419 350 " clip-rule="nonzero"/></clipPath></defs><g clip-path="url(#60c884770a)"><g clip-path="url(#db55eddd04)"><path fill="#ffffff" d="M 166.113281 81 L 643.886719 81 L 643.886719 558.773438 L 166.113281 558.773438 Z M 166.113281 81 " fill-opacity="1" fill-rule="nonzero"/></g></g><g clip-path="url(#f93333e27d)"><path fill="#7aa9df" d="M 686.882812 314.050781 C 686.597656 158.429688 560.191406 32.492188 404.574219 32.789062 C 248.957031 33.09375 123.046875 159.492188 123.324219 315.109375 C 123.433594 369.082031 139.75 418.816406 165.085938 462.25 C 222.328125 560.347656 405.984375 777.042969 405.984375 777.042969 C 405.984375 777.042969 591.347656 556.4375 647.773438 457.820312 C 672.066406 415.324219 687 366.53125 686.882812 314.050781 Z M 404.691406 97.863281 C 524.40625 97.632812 621.59375 194.488281 621.828125 314.175781 C 622.050781 433.851562 525.222656 531.078125 405.5 531.320312 C 285.839844 531.519531 188.632812 434.679688 188.398438 314.992188 C 188.164062 195.304688 284.996094 98.078125 404.691406 97.863281 Z M 404.691406 97.863281 " fill-opacity="1" fill-rule="nonzero"/></g><g clip-path="url(#07a54ea1e0)"><path fill="#7aa9df" d="M 347.835938 241.898438 L 382.6875 241.898438 L 400.8125 270.828125 C 401.769531 272.394531 403.425781 273.351562 405.167969 273.351562 C 406.910156 273.351562 408.652344 272.394531 409.523438 270.828125 L 427.648438 241.898438 L 462.503906 241.898438 C 472.609375 241.898438 480.972656 233.882812 480.972656 223.773438 L 480.972656 157.554688 C 480.972656 147.445312 472.609375 139.429688 462.503906 139.429688 L 347.835938 139.429688 C 337.816406 139.429688 329.277344 147.445312 329.277344 157.554688 L 329.277344 223.863281 C 329.277344 233.96875 337.640625 241.898438 347.835938 241.898438 Z M 339.730469 157.554688 C 339.730469 153.285156 343.476562 149.886719 347.746094 149.886719 L 462.328125 149.886719 C 466.597656 149.886719 470.34375 153.195312 470.34375 157.554688 L 470.34375 223.863281 C 470.34375 228.132812 466.597656 231.53125 462.328125 231.53125 L 424.597656 231.53125 C 422.855469 231.53125 421.113281 232.488281 420.242188 234.054688 L 405.082031 258.453125 L 389.921875 234.054688 C 388.960938 232.488281 387.304688 231.53125 385.5625 231.53125 L 347.835938 231.53125 C 343.566406 231.53125 339.820312 228.21875 339.820312 223.863281 Z M 339.730469 157.554688 " fill-opacity="1" fill-rule="nonzero"/></g><path fill="#7aa9df" d="M 323.003906 341.839844 C 345.832031 341.839844 364.304688 323.976562 364.304688 301.933594 C 364.304688 279.886719 345.832031 262.027344 323.003906 262.027344 C 300.171875 262.027344 281.699219 279.886719 281.699219 301.933594 C 281.699219 323.976562 300.261719 341.839844 323.003906 341.839844 Z M 323.003906 272.308594 C 340.082031 272.308594 353.847656 285.550781 353.847656 301.757812 C 353.847656 317.964844 340.082031 331.210938 323.003906 331.210938 C 305.925781 331.210938 292.15625 318.050781 292.15625 301.847656 C 292.15625 285.640625 306.011719 272.308594 323.003906 272.308594 Z M 323.003906 272.308594 " fill-opacity="1" fill-rule="nonzero"/><g clip-path="url(#e61fd5ca84)"><path fill="#7aa9df" d="M 260.703125 451.714844 L 385.214844 451.714844 C 388.175781 451.714844 390.617188 449.535156 390.617188 446.660156 L 390.617188 415.292969 C 390.617188 379.308594 360.207031 350.117188 323.003906 350.117188 C 285.796875 350.117188 255.386719 379.480469 255.386719 415.378906 L 255.386719 446.746094 C 255.386719 448.140625 255.996094 449.449219 256.957031 450.40625 C 258 451.191406 259.394531 451.714844 260.703125 451.714844 Z M 265.929688 415.292969 C 265.929688 385.058594 291.632812 360.574219 323.089844 360.574219 C 354.542969 360.574219 380.25 385.144531 380.25 415.292969 L 380.25 441.257812 L 265.929688 441.257812 Z M 265.929688 415.292969 " fill-opacity="1" fill-rule="nonzero"/></g><path fill="#7aa9df" d="M 445.859375 301.933594 C 445.859375 323.976562 464.332031 341.839844 487.160156 341.839844 C 509.988281 341.839844 528.460938 323.976562 528.460938 301.933594 C 528.460938 279.886719 509.988281 262.027344 487.160156 262.027344 C 464.417969 261.851562 445.859375 279.886719 445.859375 301.933594 Z M 487.160156 272.308594 C 504.238281 272.308594 518.003906 285.550781 518.003906 301.757812 C 518.003906 317.964844 504.238281 331.210938 487.160156 331.210938 C 470.082031 331.210938 456.316406 317.964844 456.316406 301.757812 C 456.316406 285.550781 470.257812 272.308594 487.160156 272.308594 Z M 487.160156 272.308594 " fill-opacity="1" fill-rule="nonzero"/><g clip-path="url(#94ce3cbd82)"><path fill="#7aa9df" d="M 419.457031 415.292969 L 419.457031 446.660156 C 419.457031 449.625 422.074219 451.714844 424.859375 451.714844 L 549.375 451.714844 C 550.769531 451.714844 552.074219 451.191406 553.035156 450.234375 C 553.992188 449.273438 554.601562 447.96875 554.601562 446.574219 L 554.601562 415.207031 C 554.601562 379.21875 524.191406 350.03125 486.988281 350.03125 C 449.867188 350.117188 419.457031 379.394531 419.457031 415.292969 Z M 544.320312 415.292969 L 544.320312 441.257812 L 429.914062 441.257812 L 429.914062 415.292969 C 429.914062 385.058594 455.617188 360.574219 487.074219 360.574219 C 518.527344 360.574219 544.320312 385.144531 544.320312 415.292969 Z M 544.320312 415.292969 " fill-opacity="1" fill-rule="nonzero"/></g></svg>