<svg xmlns="http://www.w3.org/2000/svg" xmlns:xlink="http://www.w3.org/1999/xlink" width="1080" zoomAndPan="magnify" viewBox="0 0 810 809.999993" height="1080" preserveAspectRatio="xMidYMid meet" version="1.0"><defs><clipPath id="da80083eb6"><path d="M 166.113281 81 L 643.886719 81 L 643.886719 558.773438 L 166.113281 558.773438 Z M 166.113281 81 " clip-rule="nonzero"/></clipPath><clipPath id="65bd9eee0e"><path d="M 405 81 C 273.066406 81 166.113281 187.953125 166.113281 319.886719 C 166.113281 451.820312 273.066406 558.773438 405 558.773438 C 536.933594 558.773438 643.886719 451.820312 643.886719 319.886719 C 643.886719 187.953125 536.933594 81 405 81 Z M 405 81 " clip-rule="nonzero"/></clipPath><clipPath id="89ebe459fe"><path d="M 123 32.746094 L 687 32.746094 L 687 777.496094 L 123 777.496094 Z M 123 32.746094 " clip-rule="nonzero"/></clipPath><clipPath id="60668389ed"><path d="M 218 135 L 562 135 L 562 478.617188 L 218 478.617188 Z M 218 135 " clip-rule="nonzero"/></clipPath></defs><g clip-path="url(#da80083eb6)"><g clip-path="url(#65bd9eee0e)"><path fill="#ffffff" d="M 166.113281 81 L 643.886719 81 L 643.886719 558.773438 L 166.113281 558.773438 Z M 166.113281 81 " fill-opacity="1" fill-rule="nonzero"/></g></g><g clip-path="url(#89ebe459fe)"><path fill="#da7adf" d="M 686.882812 314.050781 C 686.597656 158.429688 560.191406 32.492188 404.574219 32.789062 C 248.957031 33.09375 123.046875 159.492188 123.324219 315.109375 C 123.433594 369.082031 139.75 418.816406 165.085938 462.25 C 222.328125 560.347656 405.984375 777.042969 405.984375 777.042969 C 405.984375 777.042969 591.347656 556.4375 647.773438 457.820312 C 672.066406 415.324219 687 366.53125 686.882812 314.050781 Z M 404.691406 97.863281 C 524.40625 97.632812 621.59375 194.488281 621.828125 314.175781 C 622.050781 433.851562 525.222656 531.078125 405.5 531.320312 C 285.839844 531.519531 188.632812 434.679688 188.398438 314.992188 C 188.164062 195.304688 284.996094 98.078125 404.691406 97.863281 Z M 404.691406 97.863281 " fill-opacity="1" fill-rule="nonzero"/></g><g clip-path="url(#60668389ed)"><path fill="#da7adf" d="M 358.007812 302.859375 L 290.160156 269.136719 C 289.246094 268.683594 288.15625 268.777344 287.332031 269.382812 C 286.507812 269.988281 286.097656 271.003906 286.257812 272.015625 L 300.472656 359.488281 C 300.636719 360.5 301.351562 361.332031 302.328125 361.644531 C 302.601562 361.734375 302.882812 361.777344 303.160156 361.777344 C 303.875 361.777344 304.570312 361.496094 305.089844 360.976562 L 358.722656 307.226562 C 359.34375 306.605469 359.625 305.722656 359.484375 304.859375 C 359.339844 303.992188 358.792969 303.25 358.007812 302.859375 Z M 304.996094 353.355469 L 292.492188 276.378906 L 352.191406 306.058594 Z M 516.277344 352.203125 C 499.503906 345.121094 474.988281 342.75 469.910156 342.320312 C 466.054688 339.035156 447.3125 323.398438 432.550781 316.878906 C 427.863281 314.808594 422.085938 312.984375 415.382812 311.4375 L 412 290.632812 L 480.835938 305.589844 C 483.289062 306.125 485.765625 306.386719 488.222656 306.386719 C 494.808594 306.386719 501.273438 304.492188 506.957031 300.828125 C 514.832031 295.746094 520.253906 287.890625 522.21875 278.710938 L 538.332031 203.464844 C 542.375 184.574219 530.402344 165.886719 511.636719 161.8125 L 394.316406 136.320312 C 385.277344 134.355469 376 136.046875 368.195312 141.085938 C 360.320312 146.164062 354.898438 154.019531 352.933594 163.199219 L 338.902344 228.726562 L 247.773438 243.75 C 228.765625 246.882812 215.832031 265.003906 218.941406 284.140625 L 232.828125 369.617188 C 234.34375 378.929688 239.378906 387.082031 247.007812 392.566406 C 252.996094 396.867188 260.019531 399.121094 267.238281 399.121094 C 269.132812 399.121094 271.046875 398.964844 272.953125 398.648438 L 322.230469 390.527344 L 322.230469 401.257812 C 322.230469 402.332031 322.863281 403.308594 323.84375 403.746094 L 491.582031 478.628906 C 491.9375 478.789062 492.316406 478.867188 492.691406 478.867188 C 493.410156 478.867188 494.113281 478.585938 494.636719 478.050781 L 561.035156 410.371094 C 561.535156 409.863281 561.816406 409.175781 561.816406 408.464844 L 561.816406 385.269531 C 561.816406 384.492188 561.484375 383.753906 560.902344 383.234375 C 559.839844 382.289062 534.671875 359.972656 516.277344 352.203125 Z M 555.117188 385.429688 L 492.546875 449.207031 C 486.136719 443.679688 465.550781 426.5 449.878906 419.882812 C 436.304688 414.152344 417.667969 411.503906 408.359375 410.476562 L 469.859375 347.789062 C 475.464844 348.292969 498.726562 350.707031 514.15625 357.226562 C 528.722656 363.378906 548.609375 379.855469 555.117188 385.429688 Z M 405.136719 415.628906 C 412.746094 416.386719 433.566406 418.910156 447.757812 424.902344 C 463.445312 431.527344 485.296875 450.125 489.96875 454.183594 L 489.96875 471.941406 L 405.136719 434.070312 Z M 430.347656 321.863281 C 442.835938 327.378906 458.984375 340.320312 464.808594 345.15625 L 402.242188 408.925781 C 396.554688 404.167969 379.683594 390.535156 366.152344 384.554688 C 365.449219 384.246094 364.714844 383.945312 363.964844 383.644531 L 390.992188 379.1875 C 410 376.054688 422.9375 357.9375 419.824219 338.796875 L 416.328125 317.269531 C 421.765625 318.617188 426.480469 320.15625 430.347656 321.863281 Z M 472.75 177.703125 C 472.949219 179.652344 472.84375 181.613281 472.429688 183.558594 C 471.382812 188.449219 468.5 192.628906 464.320312 195.328125 C 460.183594 197.996094 455.261719 198.890625 450.464844 197.847656 C 440.496094 195.679688 434.132812 185.742188 436.285156 175.6875 C 436.703125 173.75 437.40625 171.921875 438.378906 170.238281 Z M 449.308594 203.171875 C 451 203.542969 452.707031 203.722656 454.402344 203.722656 C 458.933594 203.722656 463.375 202.425781 467.273438 199.90625 C 472.683594 196.417969 476.40625 191.019531 477.757812 184.699219 C 478.167969 182.777344 478.339844 180.839844 478.285156 178.90625 L 506.640625 185.066406 C 512.660156 186.375 516.5 192.382812 515.199219 198.457031 L 508.808594 228.304688 C 502.652344 218.351562 495.304688 212.382812 486.894531 210.554688 C 469.070312 206.679688 450.9375 222.527344 437.871094 238.207031 C 432.261719 218.054688 422.199219 196.5 404.492188 192.652344 C 393.300781 190.21875 380.949219 195.160156 367.6875 207.335938 L 376.066406 168.207031 C 376.695312 165.257812 378.4375 162.734375 380.964844 161.105469 C 383.464844 159.492188 386.429688 158.949219 389.320312 159.578125 L 432.855469 169.035156 C 432.011719 170.777344 431.371094 172.617188 430.960938 174.546875 C 428.179688 187.53125 436.410156 200.371094 449.308594 203.171875 Z M 444.339844 273.320312 C 443.902344 268.78125 442.597656 257.515625 439.5625 244.761719 C 451.78125 229.367188 469.429688 212.339844 485.734375 215.882812 C 493.945312 217.664062 501.121094 224.570312 507.078125 236.382812 L 499.085938 273.703125 C 498.453125 276.652344 496.714844 279.175781 494.1875 280.804688 C 491.6875 282.417969 488.71875 282.960938 485.828125 282.332031 Z M 365.605469 217.0625 C 379.765625 202.039062 392.457031 195.613281 403.335938 197.976562 C 429.308594 203.621094 437.078125 257.453125 438.71875 272.097656 L 407.898438 265.402344 L 405.9375 253.324219 C 404.425781 244.007812 399.386719 235.855469 391.757812 230.375 C 384.195312 224.9375 374.984375 222.777344 365.8125 224.289062 L 363.992188 224.589844 Z M 358.261719 164.339844 C 359.921875 156.585938 364.5 149.953125 371.148438 145.664062 C 377.730469 141.417969 385.546875 139.992188 393.160156 141.648438 L 510.480469 167.136719 C 526.316406 170.578125 536.421875 186.363281 533.003906 202.324219 L 516.890625 277.570312 C 515.230469 285.324219 510.652344 291.957031 504.003906 296.246094 C 497.421875 300.492188 489.605469 301.917969 481.992188 300.265625 L 411.0625 284.855469 L 408.839844 271.183594 L 484.675781 287.660156 C 485.847656 287.914062 487.027344 288.039062 488.203125 288.039062 C 491.34375 288.039062 494.429688 287.136719 497.140625 285.386719 C 500.894531 282.964844 503.480469 279.222656 504.417969 274.84375 L 520.53125 199.597656 C 522.457031 190.59375 516.746094 181.6875 507.796875 179.742188 L 390.476562 154.253906 C 386.164062 153.3125 381.734375 154.121094 378.011719 156.523438 C 374.257812 158.945312 371.671875 162.691406 370.734375 167.066406 L 358.214844 225.542969 L 344.679688 227.773438 Z M 272.070312 393.273438 C 264.335938 394.546875 256.566406 392.722656 250.191406 388.140625 C 243.742188 383.507812 239.488281 376.617188 238.207031 368.742188 L 224.320312 283.265625 C 221.691406 267.085938 232.609375 251.773438 248.660156 249.128906 L 366.699219 229.667969 C 368.308594 229.402344 369.917969 229.269531 371.515625 229.269531 C 377.601562 229.269531 383.527344 231.167969 388.578125 234.796875 C 395.023438 239.433594 399.277344 246.320312 400.558594 254.195312 L 414.445312 339.671875 C 417.074219 355.851562 406.15625 371.164062 390.105469 373.8125 Z M 327.679688 389.625 L 352.328125 385.5625 C 356.761719 386.757812 360.671875 388.09375 363.949219 389.542969 C 377.53125 395.539062 395.433594 410.3125 399.6875 413.902344 L 399.6875 431.636719 L 327.683594 399.492188 L 327.683594 389.625 Z M 495.417969 469.472656 L 495.417969 454.0625 L 556.363281 391.9375 L 556.363281 407.351562 Z M 495.417969 469.472656 " fill-opacity="1" fill-rule="nonzero"/></g></svg>