<svg xmlns="http://www.w3.org/2000/svg" xmlns:xlink="http://www.w3.org/1999/xlink" width="1080" zoomAndPan="magnify" viewBox="0 0 810 809.999993" height="1080" preserveAspectRatio="xMidYMid meet" version="1.0"><defs><clipPath id="195db345e2"><path d="M 166.113281 81 L 643.886719 81 L 643.886719 558.773438 L 166.113281 558.773438 Z M 166.113281 81 " clip-rule="nonzero"/></clipPath><clipPath id="0c3310abfd"><path d="M 405 81 C 273.066406 81 166.113281 187.953125 166.113281 319.886719 C 166.113281 451.820312 273.066406 558.773438 405 558.773438 C 536.933594 558.773438 643.886719 451.820312 643.886719 319.886719 C 643.886719 187.953125 536.933594 81 405 81 Z M 405 81 " clip-rule="nonzero"/></clipPath><clipPath id="deae7ff33d"><path d="M 123 32.746094 L 687 32.746094 L 687 777.496094 L 123 777.496094 Z M 123 32.746094 " clip-rule="nonzero"/></clipPath><clipPath id="eccb38ea2b"><path d="M 243 151.875 L 567 151.875 L 567 475.875 L 243 475.875 Z M 243 151.875 " clip-rule="nonzero"/></clipPath></defs><g clip-path="url(#195db345e2)"><g clip-path="url(#0c3310abfd)"><path fill="#ffffff" d="M 166.113281 81 L 643.886719 81 L 643.886719 558.773438 L 166.113281 558.773438 Z M 166.113281 81 " fill-opacity="1" fill-rule="nonzero"/></g></g><g clip-path="url(#deae7ff33d)"><path fill="#ff84b1" d="M 686.882812 314.050781 C 686.597656 158.429688 560.191406 32.492188 404.574219 32.789062 C 248.957031 33.09375 123.046875 159.492188 123.324219 315.109375 C 123.433594 369.082031 139.75 418.820312 165.085938 462.25 C 222.328125 560.347656 405.984375 777.042969 405.984375 777.042969 C 405.984375 777.042969 591.347656 556.4375 647.773438 457.820312 C 672.066406 415.324219 687 366.53125 686.882812 314.050781 Z M 404.691406 97.863281 C 524.40625 97.632812 621.59375 194.488281 621.828125 314.175781 C 622.050781 433.851562 525.222656 531.078125 405.5 531.320312 C 285.839844 531.519531 188.632812 434.679688 188.398438 314.992188 C 188.164062 195.304688 284.996094 98.082031 404.691406 97.863281 Z M 404.691406 97.863281 " fill-opacity="1" fill-rule="nonzero"/></g><g clip-path="url(#eccb38ea2b)"><path fill="#ff84b1" d="M 553.878906 399.152344 C 549.730469 395.003906 544.9375 391.765625 539.621094 389.496094 C 534.113281 387.164062 528.21875 385.933594 522.191406 385.933594 C 516.164062 385.933594 510.269531 387.097656 504.757812 389.496094 C 499.445312 391.765625 494.652344 395.003906 490.503906 399.152344 C 486.355469 403.300781 483.179688 408.09375 480.914062 413.40625 C 479.097656 417.683594 477.996094 422.21875 477.542969 426.820312 L 416.695312 426.820312 C 416.371094 424.421875 415.722656 422.027344 414.753906 419.757812 C 413.328125 416.386719 411.253906 413.277344 408.660156 410.6875 C 406.070312 408.09375 403.023438 406.019531 399.589844 404.59375 C 396.089844 403.105469 392.332031 402.328125 388.507812 402.328125 C 384.683594 402.328125 380.925781 403.105469 377.425781 404.59375 C 374.058594 406.019531 371.011719 408.09375 368.355469 410.6875 C 365.761719 413.277344 363.691406 416.386719 362.265625 419.757812 C 361.292969 422.027344 360.644531 424.359375 360.320312 426.820312 L 305.5 426.820312 C 275.5625 426.820312 251.195312 402.390625 251.195312 372.390625 C 251.195312 342.386719 275.5625 317.957031 305.5 317.957031 L 318.007812 317.957031 C 318.328125 320.355469 318.976562 322.753906 319.949219 325.019531 C 321.375 328.390625 323.449219 331.5 326.042969 334.09375 C 328.632812 336.683594 331.679688 338.757812 335.113281 340.183594 C 338.613281 341.675781 342.371094 342.453125 346.195312 342.453125 C 350.015625 342.453125 353.777344 341.675781 357.273438 340.183594 C 360.644531 338.757812 363.691406 336.683594 366.347656 334.09375 C 369.003906 331.5 371.011719 328.390625 372.4375 325.019531 C 373.410156 322.753906 374.058594 320.417969 374.382812 317.957031 L 433.414062 317.957031 C 433.738281 320.355469 434.386719 322.753906 435.359375 325.019531 C 436.785156 328.390625 438.859375 331.5 441.449219 334.09375 C 444.042969 336.683594 447.085938 338.757812 450.523438 340.183594 C 454.019531 341.675781 457.78125 342.453125 461.601562 342.453125 C 465.425781 342.453125 469.183594 341.675781 472.683594 340.183594 C 476.054688 338.757812 479.097656 336.683594 481.753906 334.09375 C 484.347656 331.5 486.421875 328.390625 487.847656 325.019531 C 488.820312 322.753906 489.464844 320.417969 489.789062 317.957031 L 504.566406 317.957031 C 512.988281 317.957031 521.152344 316.273438 528.863281 313.03125 C 536.316406 309.855469 542.992188 305.386719 548.695312 299.617188 C 554.394531 293.851562 558.933594 287.175781 562.042969 279.726562 C 565.28125 272.015625 566.96875 263.785156 566.96875 255.359375 C 566.96875 246.9375 565.347656 238.707031 562.042969 230.996094 C 558.867188 223.542969 554.394531 216.871094 548.695312 211.101562 C 542.992188 205.335938 536.253906 200.863281 528.863281 197.6875 C 521.152344 194.449219 512.988281 192.765625 504.566406 192.765625 L 447.476562 192.765625 C 447.152344 190.367188 446.503906 187.96875 445.53125 185.699219 C 444.105469 182.332031 442.03125 179.21875 439.441406 176.628906 C 436.847656 174.035156 433.804688 171.964844 430.371094 170.539062 C 426.871094 169.046875 423.113281 168.269531 419.289062 168.269531 C 415.464844 168.269531 411.707031 169.046875 408.207031 170.539062 C 404.839844 171.964844 401.792969 174.035156 399.136719 176.628906 C 396.542969 179.21875 394.46875 182.332031 393.042969 185.699219 C 392.074219 187.96875 391.425781 190.300781 391.101562 192.765625 L 332.585938 192.765625 C 332.195312 188.164062 331.03125 183.628906 329.214844 179.351562 C 326.949219 173.972656 323.707031 169.175781 319.625 165.09375 C 315.480469 160.945312 310.683594 157.707031 305.371094 155.4375 C 299.796875 153.042969 293.902344 151.875 287.875 151.875 C 281.847656 151.875 275.949219 153.042969 270.441406 155.4375 C 265.128906 157.707031 260.335938 160.945312 256.1875 165.09375 C 252.039062 169.242188 248.863281 174.035156 246.597656 179.351562 C 244.199219 184.859375 243.03125 190.753906 243.03125 196.847656 C 243.03125 202.9375 244.199219 208.769531 246.53125 214.34375 C 248.800781 219.71875 252.039062 224.515625 256.121094 228.597656 C 260.269531 232.746094 265.0625 235.984375 270.378906 238.253906 C 275.886719 240.585938 281.78125 241.816406 287.808594 241.816406 C 293.835938 241.816406 299.730469 240.652344 305.242188 238.253906 C 310.554688 235.984375 315.347656 232.746094 319.496094 228.597656 C 323.644531 224.449219 326.820312 219.65625 329.085938 214.34375 C 330.902344 210.066406 332.003906 205.53125 332.457031 200.929688 L 390.972656 200.929688 C 391.292969 203.328125 391.941406 205.722656 392.914062 207.992188 C 394.339844 211.363281 396.414062 214.472656 399.007812 217.0625 C 401.597656 219.65625 404.644531 221.730469 408.078125 223.15625 C 411.578125 224.644531 415.335938 225.421875 419.160156 225.421875 C 422.980469 225.421875 426.742188 224.644531 430.238281 223.15625 C 433.609375 221.730469 436.65625 219.65625 439.3125 217.0625 C 441.902344 214.472656 443.976562 211.363281 445.402344 207.992188 C 446.375 205.722656 447.023438 203.390625 447.347656 200.929688 L 504.4375 200.929688 C 534.375 200.929688 558.738281 225.359375 558.738281 255.359375 C 558.738281 285.363281 534.375 309.792969 504.4375 309.792969 L 489.660156 309.792969 C 489.335938 307.394531 488.6875 304.996094 487.71875 302.730469 C 486.292969 299.359375 484.21875 296.25 481.625 293.65625 C 479.035156 291.066406 475.988281 288.992188 472.554688 287.566406 C 469.054688 286.074219 465.296875 285.296875 461.472656 285.296875 C 457.648438 285.296875 453.890625 286.074219 450.390625 287.566406 C 447.023438 288.992188 443.976562 291.066406 441.320312 293.65625 C 438.726562 296.25 436.65625 299.359375 435.230469 302.730469 C 434.257812 304.996094 433.609375 307.332031 433.285156 309.792969 L 374.253906 309.792969 C 373.929688 307.394531 373.28125 304.996094 372.308594 302.730469 C 370.882812 299.359375 368.808594 296.25 366.21875 293.65625 C 363.625 291.066406 360.578125 288.992188 357.144531 287.566406 C 353.644531 286.074219 349.886719 285.296875 346.0625 285.296875 C 342.242188 285.296875 338.484375 286.074219 334.984375 287.566406 C 331.613281 288.992188 328.570312 291.066406 325.910156 293.65625 C 323.320312 296.25 321.246094 299.359375 319.820312 302.730469 C 318.847656 304.996094 318.199219 307.332031 317.875 309.792969 L 305.5 309.792969 C 297.074219 309.792969 288.910156 311.476562 281.199219 314.71875 C 273.746094 317.894531 267.074219 322.363281 261.371094 328.132812 C 255.667969 333.898438 251.132812 340.574219 248.023438 348.023438 C 244.78125 355.734375 243.097656 363.964844 243.097656 372.390625 C 243.097656 380.8125 244.71875 389.042969 248.023438 396.753906 C 251.195312 404.207031 255.667969 410.878906 261.371094 416.648438 C 267.074219 422.414062 273.8125 426.886719 281.199219 430.0625 C 288.910156 433.300781 297.074219 434.984375 305.5 434.984375 L 360.320312 434.984375 C 360.644531 437.382812 361.292969 439.78125 362.265625 442.050781 C 363.691406 445.417969 365.761719 448.53125 368.355469 451.121094 C 370.949219 453.714844 373.992188 455.785156 377.425781 457.210938 C 380.925781 458.703125 384.683594 459.480469 388.507812 459.480469 C 392.332031 459.480469 396.089844 458.703125 399.589844 457.210938 C 402.957031 455.785156 406.003906 453.714844 408.660156 451.121094 C 411.253906 448.53125 413.328125 445.417969 414.753906 442.050781 C 415.722656 439.78125 416.371094 437.449219 416.695312 434.984375 L 477.542969 434.984375 C 477.933594 439.585938 479.097656 444.121094 480.914062 448.398438 C 483.179688 453.777344 486.421875 458.574219 490.503906 462.65625 C 494.585938 466.738281 499.445312 470.042969 504.757812 472.3125 C 510.265625 474.644531 516.164062 475.875 522.191406 475.875 C 528.21875 475.875 534.113281 474.707031 539.621094 472.3125 C 544.9375 470.042969 549.730469 466.804688 553.878906 462.65625 C 558.023438 458.507812 561.199219 453.714844 563.46875 448.398438 C 565.800781 442.828125 566.96875 436.996094 566.96875 430.902344 C 566.96875 424.8125 565.800781 418.980469 563.46875 413.40625 C 561.265625 408.09375 558.023438 403.234375 553.878906 399.152344 Z M 287.875 233.652344 C 267.65625 233.652344 251.132812 217.128906 251.132812 196.847656 C 251.132812 176.5 267.65625 160.039062 287.875 160.039062 C 308.089844 160.039062 324.617188 176.5625 324.617188 196.847656 C 324.617188 217.128906 308.15625 233.652344 287.875 233.652344 Z M 419.289062 217.257812 C 408.078125 217.257812 398.941406 208.121094 398.941406 196.847656 C 398.941406 185.570312 408.078125 176.433594 419.289062 176.433594 C 430.5 176.433594 439.636719 185.570312 439.636719 196.847656 C 439.636719 208.121094 430.5 217.257812 419.289062 217.257812 Z M 461.601562 293.464844 C 472.8125 293.464844 481.949219 302.601562 481.949219 313.875 C 481.949219 325.148438 472.8125 334.285156 461.601562 334.285156 C 450.390625 334.285156 441.253906 325.148438 441.253906 313.875 C 441.253906 302.601562 450.390625 293.464844 461.601562 293.464844 Z M 346.195312 293.464844 C 357.40625 293.464844 366.542969 302.601562 366.542969 313.875 C 366.542969 325.148438 357.40625 334.285156 346.195312 334.285156 C 334.984375 334.285156 325.847656 325.148438 325.847656 313.875 C 325.847656 302.601562 334.917969 293.464844 346.195312 293.464844 Z M 388.507812 451.316406 C 377.296875 451.316406 368.160156 442.179688 368.160156 430.902344 C 368.160156 419.628906 377.296875 410.492188 388.507812 410.492188 C 399.71875 410.492188 408.855469 419.628906 408.855469 430.902344 C 408.855469 442.179688 399.71875 451.316406 388.507812 451.316406 Z M 522.191406 467.710938 C 501.972656 467.710938 485.449219 451.1875 485.449219 430.902344 C 485.449219 410.621094 501.910156 394.097656 522.191406 394.097656 C 542.410156 394.097656 558.933594 410.621094 558.933594 430.902344 C 558.933594 451.25 542.410156 467.710938 522.191406 467.710938 Z M 522.191406 467.710938 " fill-opacity="1" fill-rule="nonzero"/></g><path fill="#ff84b1" d="M 522.191406 402.910156 C 514.738281 402.910156 507.742188 405.828125 502.425781 411.140625 C 497.113281 416.453125 494.261719 423.453125 494.261719 430.902344 C 494.261719 438.355469 497.179688 445.417969 502.425781 450.667969 C 507.675781 455.980469 514.738281 458.898438 522.191406 458.898438 C 529.644531 458.898438 536.640625 455.980469 541.953125 450.667969 C 547.203125 445.355469 550.121094 438.355469 550.121094 430.902344 C 550.121094 423.453125 547.203125 416.386719 541.953125 411.140625 C 536.640625 405.828125 529.644531 402.910156 522.191406 402.910156 Z M 522.191406 450.796875 C 511.304688 450.796875 502.363281 441.917969 502.363281 430.96875 C 502.363281 420.015625 511.238281 411.140625 522.191406 411.140625 C 533.078125 411.140625 542.019531 420.015625 542.019531 430.96875 C 542.019531 441.855469 533.078125 450.796875 522.191406 450.796875 Z M 522.191406 450.796875 " fill-opacity="1" fill-rule="nonzero"/><path fill="#ff84b1" d="M 532.363281 430.902344 C 532.363281 431.574219 532.300781 432.242188 532.167969 432.902344 C 532.039062 433.558594 531.84375 434.199219 531.589844 434.820312 C 531.335938 435.441406 531.019531 436.03125 530.648438 436.59375 C 530.277344 437.152344 529.855469 437.667969 529.382812 438.144531 C 528.914062 438.617188 528.398438 439.042969 527.84375 439.417969 C 527.289062 439.789062 526.703125 440.105469 526.085938 440.363281 C 525.46875 440.621094 524.832031 440.8125 524.175781 440.945312 C 523.519531 441.078125 522.859375 441.140625 522.191406 441.140625 C 521.523438 441.140625 520.859375 441.078125 520.207031 440.945312 C 519.550781 440.8125 518.914062 440.621094 518.296875 440.363281 C 517.679688 440.105469 517.09375 439.789062 516.539062 439.417969 C 515.984375 439.042969 515.46875 438.617188 514.996094 438.144531 C 514.523438 437.667969 514.101562 437.152344 513.730469 436.59375 C 513.359375 436.03125 513.046875 435.441406 512.792969 434.820312 C 512.535156 434.199219 512.34375 433.558594 512.210938 432.902344 C 512.082031 432.242188 512.015625 431.574219 512.015625 430.902344 C 512.015625 430.230469 512.082031 429.566406 512.210938 428.90625 C 512.34375 428.246094 512.535156 427.605469 512.792969 426.984375 C 513.046875 426.363281 513.359375 425.773438 513.730469 425.214844 C 514.101562 424.65625 514.523438 424.140625 514.996094 423.664062 C 515.46875 423.1875 515.984375 422.765625 516.539062 422.390625 C 517.09375 422.015625 517.679688 421.703125 518.296875 421.445312 C 518.914062 421.1875 519.550781 420.992188 520.207031 420.863281 C 520.859375 420.730469 521.523438 420.664062 522.191406 420.664062 C 522.859375 420.664062 523.519531 420.730469 524.175781 420.863281 C 524.832031 420.992188 525.46875 421.1875 526.085938 421.445312 C 526.703125 421.703125 527.289062 422.015625 527.84375 422.390625 C 528.398438 422.765625 528.914062 423.1875 529.382812 423.664062 C 529.855469 424.140625 530.277344 424.65625 530.648438 425.214844 C 531.019531 425.773438 531.335938 426.363281 531.589844 426.984375 C 531.84375 427.605469 532.039062 428.246094 532.167969 428.90625 C 532.300781 429.566406 532.363281 430.230469 532.363281 430.902344 Z M 532.363281 430.902344 " fill-opacity="1" fill-rule="nonzero"/><path fill="#ff84b1" d="M 288.78125 188.617188 L 270.832031 188.617188 L 270.832031 205.011719 L 288.78125 205.011719 L 288.78125 212.851562 L 312.628906 196.847656 L 288.78125 180.777344 Z M 288.78125 188.617188 " fill-opacity="1" fill-rule="nonzero"/></svg>