<svg xmlns="http://www.w3.org/2000/svg" xmlns:xlink="http://www.w3.org/1999/xlink" width="1080" zoomAndPan="magnify" viewBox="0 0 810 809.999993" height="1080" preserveAspectRatio="xMidYMid meet" version="1.0"><defs><clipPath id="ccfa7bdb9e"><path d="M 166.113281 81 L 643.886719 81 L 643.886719 558.773438 L 166.113281 558.773438 Z M 166.113281 81 " clip-rule="nonzero"/></clipPath><clipPath id="4c143e6edf"><path d="M 405 81 C 273.066406 81 166.113281 187.953125 166.113281 319.886719 C 166.113281 451.820312 273.066406 558.773438 405 558.773438 C 536.933594 558.773438 643.886719 451.820312 643.886719 319.886719 C 643.886719 187.953125 536.933594 81 405 81 Z M 405 81 " clip-rule="nonzero"/></clipPath><clipPath id="e7721b679b"><path d="M 123 32.746094 L 687 32.746094 L 687 777.496094 L 123 777.496094 Z M 123 32.746094 " clip-rule="nonzero"/></clipPath><clipPath id="21d5125bf7"><path d="M 246.644531 231 L 350 231 L 350 325 L 246.644531 325 Z M 246.644531 231 " clip-rule="nonzero"/></clipPath><clipPath id="e80ff1ef1d"><path d="M 393 135.421875 L 402 135.421875 L 402 154 L 393 154 Z M 393 135.421875 " clip-rule="nonzero"/></clipPath><clipPath id="25ede2a5b3"><path d="M 460 415 L 534 415 L 534 459.421875 L 460 459.421875 Z M 460 415 " clip-rule="nonzero"/></clipPath><clipPath id="f7850a539a"><path d="M 467 275 L 563.144531 275 L 563.144531 361 L 467 361 Z M 467 275 " clip-rule="nonzero"/></clipPath></defs><g clip-path="url(#ccfa7bdb9e)"><g clip-path="url(#4c143e6edf)"><path fill="#ffffff" d="M 166.113281 81 L 643.886719 81 L 643.886719 558.773438 L 166.113281 558.773438 Z M 166.113281 81 " fill-opacity="1" fill-rule="nonzero"/></g></g><g clip-path="url(#e7721b679b)"><path fill="#ff7e2b" d="M 686.882812 314.050781 C 686.597656 158.429688 560.191406 32.492188 404.574219 32.789062 C 248.957031 33.09375 123.046875 159.492188 123.324219 315.109375 C 123.433594 369.082031 139.75 418.820312 165.085938 462.25 C 222.328125 560.347656 405.984375 777.042969 405.984375 777.042969 C 405.984375 777.042969 591.347656 556.4375 647.773438 457.820312 C 672.066406 415.324219 687 366.53125 686.882812 314.050781 Z M 404.691406 97.863281 C 524.40625 97.632812 621.59375 194.488281 621.828125 314.175781 C 622.050781 433.851562 525.222656 531.078125 405.5 531.320312 C 285.839844 531.519531 188.632812 434.679688 188.398438 314.992188 C 188.164062 195.304688 284.996094 98.078125 404.691406 97.863281 Z M 404.691406 97.863281 " fill-opacity="1" fill-rule="nonzero"/></g><path fill="#ff7e2b" d="M 290.859375 415.238281 C 264.554688 415.238281 256.523438 411.710938 256.191406 411.558594 C 255.535156 411.257812 255.011719 410.804688 254.625 410.199219 C 254.234375 409.59375 254.039062 408.929688 254.039062 408.207031 C 254 406.285156 254.09375 404.371094 254.332031 402.464844 C 254.566406 400.558594 254.9375 398.679688 255.445312 396.824219 C 255.953125 394.972656 256.59375 393.164062 257.363281 391.40625 C 258.132812 389.644531 259.027344 387.949219 260.042969 386.316406 C 261.058594 384.6875 262.1875 383.136719 263.429688 381.671875 C 264.667969 380.203125 266.007812 378.832031 267.449219 377.558594 C 268.886719 376.285156 270.410156 375.125 272.019531 374.070312 C 273.625 373.019531 275.300781 372.089844 277.042969 371.277344 C 277.621094 371.027344 278.226562 370.929688 278.851562 370.988281 C 279.480469 371.042969 280.054688 371.25 280.578125 371.601562 C 282.101562 372.632812 283.738281 373.414062 285.496094 373.945312 C 287.253906 374.480469 289.050781 374.746094 290.886719 374.738281 C 292.722656 374.746094 294.519531 374.480469 296.277344 373.945312 C 298.035156 373.410156 299.675781 372.632812 301.195312 371.601562 C 301.71875 371.25 302.296875 371.046875 302.921875 370.992188 C 303.550781 370.933594 304.152344 371.035156 304.730469 371.285156 C 306.472656 372.097656 308.148438 373.027344 309.757812 374.082031 C 311.363281 375.132812 312.886719 376.296875 314.324219 377.570312 C 315.765625 378.84375 317.105469 380.210938 318.34375 381.679688 C 319.582031 383.148438 320.710938 384.695312 321.726562 386.328125 C 322.742188 387.957031 323.636719 389.652344 324.40625 391.414062 C 325.175781 393.175781 325.816406 394.980469 326.320312 396.832031 C 326.832031 398.6875 327.203125 400.566406 327.4375 402.472656 C 327.671875 404.378906 327.769531 406.292969 327.726562 408.214844 C 327.726562 408.578125 327.675781 408.929688 327.570312 409.277344 C 327.464844 409.621094 327.3125 409.945312 327.113281 410.246094 C 326.914062 410.546875 326.675781 410.8125 326.398438 411.042969 C 326.121094 411.277344 325.816406 411.460938 325.480469 411.601562 C 323.996094 412.207031 315.578125 415.238281 290.859375 415.238281 Z M 261.507812 405.496094 C 271.203125 407.382812 280.984375 408.175781 290.859375 407.875 C 300.730469 408.183594 310.515625 407.394531 320.210938 405.503906 C 320.136719 404.132812 319.972656 402.773438 319.726562 401.421875 C 319.480469 400.074219 319.148438 398.742188 318.730469 397.433594 C 318.316406 396.125 317.816406 394.851562 317.238281 393.605469 C 316.660156 392.359375 316.007812 391.15625 315.273438 389.996094 C 314.542969 388.832031 313.742188 387.722656 312.867188 386.664062 C 311.996094 385.601562 311.058594 384.601562 310.058594 383.660156 C 309.058594 382.722656 308.003906 381.847656 306.894531 381.039062 C 305.78125 380.234375 304.625 379.5 303.421875 378.839844 C 299.515625 381.023438 295.328125 382.109375 290.859375 382.105469 C 286.386719 382.109375 282.199219 381.023438 278.296875 378.839844 C 277.089844 379.5 275.933594 380.234375 274.824219 381.039062 C 273.710938 381.847656 272.65625 382.71875 271.65625 383.660156 C 270.65625 384.601562 269.71875 385.601562 268.847656 386.660156 C 267.972656 387.71875 267.171875 388.828125 266.4375 389.992188 C 265.707031 391.152344 265.050781 392.355469 264.472656 393.601562 C 263.894531 394.84375 263.398438 396.121094 262.980469 397.429688 C 262.5625 398.738281 262.230469 400.066406 261.984375 401.417969 C 261.734375 402.765625 261.574219 404.128906 261.5 405.496094 Z M 261.507812 405.496094 " fill-opacity="1" fill-rule="nonzero"/><path fill="#ff7e2b" d="M 290.859375 337.921875 C 290.253906 337.921875 289.652344 337.953125 289.054688 338.011719 C 288.453125 338.070312 287.859375 338.15625 287.265625 338.277344 C 286.675781 338.394531 286.089844 338.539062 285.515625 338.714844 C 284.9375 338.890625 284.371094 339.09375 283.8125 339.324219 C 283.257812 339.554688 282.710938 339.8125 282.179688 340.09375 C 281.648438 340.378906 281.132812 340.6875 280.628906 341.023438 C 280.128906 341.359375 279.644531 341.71875 279.179688 342.101562 C 278.714844 342.484375 278.265625 342.886719 277.839844 343.3125 C 277.414062 343.738281 277.011719 344.1875 276.628906 344.652344 C 276.246094 345.117188 275.886719 345.601562 275.550781 346.101562 C 275.214844 346.605469 274.90625 347.121094 274.621094 347.652344 C 274.339844 348.183594 274.082031 348.730469 273.851562 349.285156 C 273.621094 349.84375 273.417969 350.410156 273.242188 350.988281 C 273.066406 351.5625 272.921875 352.148438 272.804688 352.738281 C 272.683594 353.332031 272.597656 353.925781 272.539062 354.527344 C 272.480469 355.125 272.449219 355.726562 272.449219 356.332031 C 272.449219 356.933594 272.480469 357.535156 272.539062 358.136719 C 272.597656 358.734375 272.683594 359.332031 272.804688 359.921875 C 272.921875 360.515625 273.066406 361.097656 273.242188 361.675781 C 273.417969 362.25 273.621094 362.820312 273.851562 363.375 C 274.082031 363.933594 274.339844 364.476562 274.621094 365.007812 C 274.90625 365.539062 275.214844 366.058594 275.550781 366.558594 C 275.886719 367.058594 276.246094 367.542969 276.628906 368.007812 C 277.011719 368.476562 277.414062 368.921875 277.839844 369.347656 C 278.265625 369.773438 278.714844 370.179688 279.179688 370.5625 C 279.644531 370.945312 280.128906 371.300781 280.628906 371.636719 C 281.132812 371.972656 281.648438 372.28125 282.179688 372.566406 C 282.710938 372.851562 283.257812 373.109375 283.8125 373.339844 C 284.371094 373.570312 284.9375 373.773438 285.515625 373.949219 C 286.089844 374.121094 286.675781 374.269531 287.265625 374.386719 C 287.859375 374.503906 288.453125 374.59375 289.054688 374.652344 C 289.652344 374.710938 290.253906 374.738281 290.859375 374.738281 C 291.460938 374.738281 292.0625 374.710938 292.664062 374.652344 C 293.261719 374.59375 293.859375 374.503906 294.449219 374.386719 C 295.039062 374.269531 295.625 374.121094 296.203125 373.949219 C 296.777344 373.773438 297.347656 373.570312 297.902344 373.339844 C 298.460938 373.109375 299.003906 372.851562 299.535156 372.566406 C 300.066406 372.28125 300.585938 371.972656 301.085938 371.636719 C 301.585938 371.300781 302.070312 370.945312 302.535156 370.5625 C 303.003906 370.179688 303.449219 369.773438 303.875 369.347656 C 304.300781 368.921875 304.707031 368.476562 305.089844 368.007812 C 305.472656 367.542969 305.828125 367.058594 306.164062 366.558594 C 306.5 366.058594 306.808594 365.539062 307.09375 365.007812 C 307.378906 364.476562 307.636719 363.933594 307.867188 363.375 C 308.097656 362.820312 308.300781 362.25 308.476562 361.675781 C 308.648438 361.097656 308.796875 360.515625 308.914062 359.921875 C 309.03125 359.332031 309.121094 358.734375 309.179688 358.136719 C 309.238281 357.535156 309.265625 356.933594 309.265625 356.332031 C 309.265625 355.726562 309.238281 355.125 309.179688 354.527344 C 309.121094 353.925781 309.03125 353.332031 308.914062 352.738281 C 308.796875 352.148438 308.648438 351.5625 308.476562 350.988281 C 308.300781 350.410156 308.097656 349.84375 307.867188 349.285156 C 307.636719 348.730469 307.378906 348.183594 307.09375 347.652344 C 306.808594 347.121094 306.5 346.605469 306.164062 346.101562 C 305.828125 345.601562 305.472656 345.117188 305.089844 344.652344 C 304.707031 344.1875 304.300781 343.738281 303.875 343.3125 C 303.449219 342.886719 303.003906 342.484375 302.535156 342.101562 C 302.070312 341.71875 301.585938 341.359375 301.085938 341.023438 C 300.585938 340.6875 300.066406 340.378906 299.535156 340.09375 C 299.003906 339.8125 298.460938 339.554688 297.902344 339.324219 C 297.347656 339.09375 296.777344 338.890625 296.203125 338.714844 C 295.625 338.539062 295.039062 338.394531 294.449219 338.277344 C 293.859375 338.15625 293.261719 338.070312 292.664062 338.011719 C 292.0625 337.953125 291.460938 337.921875 290.859375 337.921875 M 290.859375 330.558594 C 291.703125 330.558594 292.542969 330.597656 293.382812 330.683594 C 294.222656 330.765625 295.058594 330.890625 295.886719 331.054688 C 296.714844 331.21875 297.53125 331.421875 298.339844 331.667969 C 299.148438 331.914062 299.941406 332.195312 300.722656 332.519531 C 301.5 332.84375 302.261719 333.203125 303.007812 333.601562 C 303.75 334 304.476562 334.433594 305.175781 334.902344 C 305.878906 335.371094 306.554688 335.871094 307.207031 336.410156 C 307.859375 336.945312 308.484375 337.511719 309.082031 338.105469 C 309.679688 338.703125 310.246094 339.328125 310.78125 339.980469 C 311.316406 340.632812 311.820312 341.3125 312.289062 342.011719 C 312.757812 342.714844 313.191406 343.4375 313.585938 344.183594 C 313.984375 344.925781 314.347656 345.6875 314.667969 346.46875 C 314.992188 347.246094 315.277344 348.042969 315.519531 348.847656 C 315.765625 349.65625 315.972656 350.476562 316.136719 351.304688 C 316.300781 352.128906 316.425781 352.964844 316.507812 353.804688 C 316.589844 354.644531 316.632812 355.488281 316.632812 356.332031 C 316.632812 357.175781 316.589844 358.015625 316.507812 358.855469 C 316.425781 359.695312 316.300781 360.53125 316.136719 361.359375 C 315.972656 362.1875 315.765625 363.003906 315.519531 363.8125 C 315.277344 364.621094 314.992188 365.414062 314.667969 366.195312 C 314.347656 366.972656 313.984375 367.734375 313.585938 368.480469 C 313.191406 369.222656 312.757812 369.949219 312.289062 370.648438 C 311.820312 371.351562 311.316406 372.027344 310.78125 372.679688 C 310.246094 373.332031 309.679688 373.957031 309.082031 374.554688 C 308.484375 375.152344 307.859375 375.71875 307.207031 376.253906 C 306.554688 376.789062 305.878906 377.292969 305.175781 377.761719 C 304.476562 378.230469 303.75 378.664062 303.007812 379.058594 C 302.261719 379.457031 301.5 379.820312 300.722656 380.140625 C 299.941406 380.464844 299.148438 380.75 298.339844 380.992188 C 297.53125 381.238281 296.714844 381.445312 295.886719 381.609375 C 295.058594 381.773438 294.222656 381.898438 293.382812 381.980469 C 292.542969 382.0625 291.703125 382.105469 290.859375 382.105469 C 290.015625 382.105469 289.171875 382.0625 288.332031 381.980469 C 287.492188 381.898438 286.65625 381.773438 285.832031 381.609375 C 285.003906 381.445312 284.183594 381.238281 283.375 380.992188 C 282.570312 380.75 281.773438 380.464844 280.996094 380.140625 C 280.214844 379.820312 279.453125 379.457031 278.710938 379.058594 C 277.964844 378.664062 277.242188 378.230469 276.539062 377.761719 C 275.835938 377.292969 275.160156 376.789062 274.507812 376.253906 C 273.855469 375.71875 273.230469 375.152344 272.632812 374.554688 C 272.039062 373.957031 271.472656 373.332031 270.9375 372.679688 C 270.398438 372.027344 269.898438 371.351562 269.429688 370.648438 C 268.960938 369.949219 268.527344 369.222656 268.128906 368.480469 C 267.730469 367.734375 267.371094 366.972656 267.046875 366.195312 C 266.722656 365.414062 266.441406 364.621094 266.195312 363.8125 C 265.949219 363.003906 265.746094 362.1875 265.582031 361.359375 C 265.417969 360.53125 265.292969 359.695312 265.210938 358.855469 C 265.125 358.015625 265.085938 357.175781 265.085938 356.332031 C 265.085938 355.488281 265.125 354.644531 265.210938 353.804688 C 265.292969 352.964844 265.417969 352.128906 265.582031 351.304688 C 265.746094 350.476562 265.949219 349.65625 266.195312 348.847656 C 266.441406 348.042969 266.722656 347.246094 267.046875 346.46875 C 267.371094 345.6875 267.730469 344.925781 268.128906 344.183594 C 268.527344 343.4375 268.960938 342.714844 269.429688 342.011719 C 269.898438 341.3125 270.398438 340.632812 270.9375 339.980469 C 271.472656 339.328125 272.039062 338.703125 272.632812 338.105469 C 273.230469 337.511719 273.855469 336.945312 274.507812 336.410156 C 275.160156 335.871094 275.835938 335.371094 276.539062 334.902344 C 277.242188 334.433594 277.964844 334 278.710938 333.601562 C 279.453125 333.203125 280.214844 332.84375 280.996094 332.519531 C 281.773438 332.195312 282.570312 331.914062 283.375 331.667969 C 284.183594 331.421875 285.003906 331.21875 285.832031 331.054688 C 286.65625 330.890625 287.492188 330.765625 288.332031 330.683594 C 289.171875 330.597656 290.015625 330.558594 290.859375 330.558594 Z M 290.859375 330.558594 " fill-opacity="1" fill-rule="nonzero"/><path fill="#ff7e2b" d="M 364.496094 452.058594 C 338.191406 452.058594 330.15625 448.53125 329.828125 448.375 C 329.171875 448.078125 328.648438 447.625 328.257812 447.015625 C 327.871094 446.410156 327.675781 445.746094 327.675781 445.027344 C 327.632812 443.105469 327.730469 441.191406 327.96875 439.285156 C 328.203125 437.375 328.574219 435.496094 329.082031 433.644531 C 329.589844 431.789062 330.230469 429.984375 331 428.222656 C 331.769531 426.460938 332.664062 424.765625 333.679688 423.136719 C 334.695312 421.503906 335.824219 419.957031 337.0625 418.488281 C 338.304688 417.019531 339.644531 415.652344 341.085938 414.378906 C 342.523438 413.105469 344.046875 411.941406 345.65625 410.890625 C 347.261719 409.835938 348.9375 408.90625 350.679688 408.097656 C 351.257812 407.84375 351.859375 407.746094 352.488281 407.804688 C 353.117188 407.863281 353.691406 408.066406 354.214844 408.421875 C 355.738281 409.449219 357.375 410.230469 359.132812 410.765625 C 360.890625 411.300781 362.6875 411.5625 364.523438 411.558594 C 366.359375 411.5625 368.15625 411.300781 369.914062 410.765625 C 371.671875 410.230469 373.3125 409.449219 374.832031 408.421875 C 375.355469 408.070312 375.929688 407.867188 376.558594 407.808594 C 377.1875 407.753906 377.789062 407.851562 378.367188 408.105469 C 380.109375 408.914062 381.785156 409.847656 383.390625 410.898438 C 385 411.949219 386.523438 413.113281 387.960938 414.386719 C 389.398438 415.660156 390.738281 417.03125 391.980469 418.496094 C 393.21875 419.964844 394.347656 421.515625 395.363281 423.144531 C 396.378906 424.777344 397.273438 426.472656 398.042969 428.230469 C 398.8125 429.992188 399.449219 431.800781 399.957031 433.652344 C 400.464844 435.503906 400.839844 437.386719 401.074219 439.292969 C 401.308594 441.199219 401.40625 443.113281 401.363281 445.035156 C 401.363281 445.394531 401.3125 445.75 401.207031 446.09375 C 401.101562 446.441406 400.949219 446.765625 400.75 447.066406 C 400.550781 447.367188 400.3125 447.632812 400.035156 447.863281 C 399.757812 448.09375 399.449219 448.28125 399.117188 448.421875 C 397.628906 449.023438 389.214844 452.058594 364.496094 452.058594 Z M 335.144531 442.316406 C 344.839844 444.199219 354.621094 444.992188 364.496094 444.695312 C 374.367188 445 384.152344 444.210938 393.847656 442.324219 C 393.769531 440.953125 393.609375 439.59375 393.363281 438.242188 C 393.117188 436.890625 392.785156 435.5625 392.367188 434.253906 C 391.953125 432.945312 391.453125 431.667969 390.875 430.421875 C 390.296875 429.179688 389.640625 427.976562 388.910156 426.8125 C 388.179688 425.652344 387.378906 424.539062 386.503906 423.480469 C 385.632812 422.421875 384.695312 421.421875 383.695312 420.480469 C 382.695312 419.539062 381.640625 418.664062 380.527344 417.859375 C 379.417969 417.050781 378.261719 416.320312 377.058594 415.660156 C 373.152344 417.839844 368.964844 418.929688 364.496094 418.921875 C 360.023438 418.929688 355.835938 417.84375 351.933594 415.660156 C 350.726562 416.320312 349.570312 417.050781 348.460938 417.859375 C 347.347656 418.664062 346.292969 419.539062 345.292969 420.476562 C 344.292969 421.417969 343.355469 422.417969 342.484375 423.476562 C 341.609375 424.539062 340.808594 425.648438 340.074219 426.808594 C 339.34375 427.96875 338.6875 429.171875 338.109375 430.417969 C 337.53125 431.664062 337.03125 432.9375 336.617188 434.246094 C 336.199219 435.554688 335.867188 436.882812 335.621094 438.234375 C 335.371094 439.585938 335.210938 440.945312 335.136719 442.316406 Z M 335.144531 442.316406 " fill-opacity="1" fill-rule="nonzero"/><path fill="#ff7e2b" d="M 364.496094 374.738281 C 363.890625 374.738281 363.289062 374.769531 362.691406 374.828125 C 362.089844 374.886719 361.496094 374.976562 360.902344 375.09375 C 360.3125 375.210938 359.726562 375.359375 359.152344 375.53125 C 358.574219 375.707031 358.007812 375.910156 357.449219 376.140625 C 356.894531 376.371094 356.347656 376.628906 355.816406 376.914062 C 355.285156 377.199219 354.769531 377.507812 354.265625 377.84375 C 353.765625 378.175781 353.28125 378.535156 352.816406 378.917969 C 352.351562 379.300781 351.902344 379.707031 351.476562 380.132812 C 351.050781 380.558594 350.648438 381.003906 350.265625 381.46875 C 349.882812 381.9375 349.523438 382.421875 349.1875 382.921875 C 348.851562 383.421875 348.542969 383.9375 348.257812 384.472656 C 347.976562 385.003906 347.71875 385.546875 347.488281 386.105469 C 347.257812 386.660156 347.054688 387.226562 346.878906 387.804688 C 346.703125 388.382812 346.558594 388.964844 346.4375 389.558594 C 346.320312 390.148438 346.234375 390.746094 346.175781 391.34375 C 346.113281 391.945312 346.085938 392.546875 346.085938 393.148438 C 346.085938 393.753906 346.113281 394.355469 346.175781 394.953125 C 346.234375 395.554688 346.320312 396.148438 346.4375 396.742188 C 346.558594 397.332031 346.703125 397.917969 346.878906 398.492188 C 347.054688 399.070312 347.257812 399.636719 347.488281 400.195312 C 347.71875 400.75 347.976562 401.296875 348.257812 401.828125 C 348.542969 402.359375 348.851562 402.875 349.1875 403.375 C 349.523438 403.878906 349.882812 404.363281 350.265625 404.828125 C 350.648438 405.292969 351.050781 405.738281 351.476562 406.167969 C 351.902344 406.59375 352.351562 406.996094 352.816406 407.378906 C 353.28125 407.761719 353.765625 408.121094 354.265625 408.457031 C 354.769531 408.789062 355.285156 409.101562 355.816406 409.382812 C 356.347656 409.667969 356.894531 409.925781 357.449219 410.15625 C 358.007812 410.386719 358.574219 410.589844 359.152344 410.765625 C 359.726562 410.941406 360.3125 411.085938 360.902344 411.203125 C 361.496094 411.320312 362.089844 411.410156 362.691406 411.46875 C 363.289062 411.527344 363.890625 411.558594 364.496094 411.558594 C 365.097656 411.558594 365.699219 411.527344 366.300781 411.46875 C 366.898438 411.410156 367.496094 411.320312 368.085938 411.203125 C 368.675781 411.085938 369.261719 410.941406 369.839844 410.765625 C 370.414062 410.589844 370.980469 410.386719 371.539062 410.15625 C 372.097656 409.925781 372.640625 409.667969 373.171875 409.382812 C 373.703125 409.101562 374.222656 408.789062 374.722656 408.457031 C 375.222656 408.121094 375.707031 407.761719 376.171875 407.378906 C 376.640625 406.996094 377.085938 406.59375 377.511719 406.167969 C 377.9375 405.738281 378.34375 405.292969 378.726562 404.828125 C 379.109375 404.363281 379.464844 403.878906 379.800781 403.375 C 380.136719 402.875 380.445312 402.359375 380.730469 401.828125 C 381.015625 401.296875 381.273438 400.75 381.503906 400.195312 C 381.734375 399.636719 381.9375 399.070312 382.109375 398.492188 C 382.285156 397.917969 382.433594 397.332031 382.550781 396.742188 C 382.667969 396.148438 382.757812 395.554688 382.816406 394.953125 C 382.875 394.355469 382.902344 393.753906 382.902344 393.148438 C 382.902344 392.546875 382.875 391.945312 382.816406 391.34375 C 382.757812 390.746094 382.667969 390.148438 382.550781 389.558594 C 382.433594 388.964844 382.285156 388.382812 382.109375 387.804688 C 381.9375 387.226562 381.734375 386.660156 381.503906 386.105469 C 381.273438 385.546875 381.015625 385.003906 380.730469 384.472656 C 380.445312 383.9375 380.136719 383.421875 379.800781 382.921875 C 379.464844 382.421875 379.109375 381.9375 378.726562 381.46875 C 378.34375 381.003906 377.9375 380.558594 377.511719 380.132812 C 377.085938 379.707031 376.640625 379.300781 376.171875 378.917969 C 375.707031 378.535156 375.222656 378.175781 374.722656 377.84375 C 374.222656 377.507812 373.703125 377.199219 373.171875 376.914062 C 372.640625 376.628906 372.097656 376.371094 371.539062 376.140625 C 370.980469 375.910156 370.414062 375.707031 369.839844 375.53125 C 369.261719 375.359375 368.675781 375.210938 368.085938 375.09375 C 367.496094 374.976562 366.898438 374.886719 366.300781 374.828125 C 365.699219 374.769531 365.097656 374.738281 364.496094 374.738281 M 364.496094 367.375 C 365.339844 367.375 366.179688 367.417969 367.019531 367.5 C 367.859375 367.582031 368.695312 367.707031 369.523438 367.871094 C 370.351562 368.035156 371.167969 368.242188 371.976562 368.484375 C 372.785156 368.730469 373.578125 369.015625 374.355469 369.339844 C 375.136719 369.660156 375.898438 370.023438 376.644531 370.417969 C 377.386719 370.816406 378.109375 371.25 378.8125 371.71875 C 379.515625 372.1875 380.191406 372.691406 380.84375 373.226562 C 381.496094 373.761719 382.121094 374.328125 382.71875 374.925781 C 383.316406 375.523438 383.882812 376.148438 384.417969 376.800781 C 384.953125 377.453125 385.453125 378.128906 385.925781 378.832031 C 386.394531 379.53125 386.828125 380.253906 387.222656 381 C 387.621094 381.746094 387.984375 382.507812 388.304688 383.285156 C 388.628906 384.066406 388.914062 384.859375 389.15625 385.667969 C 389.402344 386.476562 389.609375 387.292969 389.773438 388.121094 C 389.9375 388.949219 390.058594 389.78125 390.144531 390.621094 C 390.226562 391.464844 390.265625 392.304688 390.265625 393.148438 C 390.265625 393.992188 390.226562 394.835938 390.144531 395.675781 C 390.058594 396.515625 389.9375 397.347656 389.773438 398.175781 C 389.609375 399.003906 389.402344 399.824219 389.15625 400.628906 C 388.914062 401.4375 388.628906 402.230469 388.304688 403.011719 C 387.984375 403.792969 387.621094 404.554688 387.222656 405.296875 C 386.828125 406.042969 386.394531 406.765625 385.925781 407.46875 C 385.453125 408.167969 384.953125 408.847656 384.417969 409.5 C 383.882812 410.152344 383.316406 410.777344 382.71875 411.375 C 382.121094 411.96875 381.496094 412.535156 380.84375 413.070312 C 380.191406 413.605469 379.515625 414.109375 378.8125 414.578125 C 378.109375 415.046875 377.386719 415.480469 376.644531 415.878906 C 375.898438 416.277344 375.136719 416.636719 374.355469 416.960938 C 373.578125 417.28125 372.785156 417.566406 371.976562 417.8125 C 371.167969 418.058594 370.351562 418.261719 369.523438 418.425781 C 368.695312 418.589844 367.859375 418.714844 367.019531 418.796875 C 366.179688 418.878906 365.339844 418.921875 364.496094 418.921875 C 363.652344 418.921875 362.808594 418.878906 361.96875 418.796875 C 361.128906 418.714844 360.292969 418.589844 359.464844 418.425781 C 358.640625 418.261719 357.820312 418.058594 357.011719 417.8125 C 356.207031 417.566406 355.410156 417.28125 354.632812 416.960938 C 353.851562 416.636719 353.089844 416.277344 352.34375 415.878906 C 351.601562 415.480469 350.878906 415.046875 350.175781 414.578125 C 349.472656 414.109375 348.796875 413.605469 348.144531 413.070312 C 347.492188 412.535156 346.867188 411.96875 346.269531 411.375 C 345.671875 410.777344 345.109375 410.152344 344.570312 409.5 C 344.035156 408.847656 343.535156 408.167969 343.066406 407.46875 C 342.597656 406.765625 342.164062 406.042969 341.765625 405.296875 C 341.367188 404.554688 341.007812 403.792969 340.683594 403.011719 C 340.359375 402.230469 340.078125 401.4375 339.832031 400.628906 C 339.585938 399.824219 339.382812 399.003906 339.21875 398.175781 C 339.050781 397.347656 338.929688 396.515625 338.847656 395.675781 C 338.761719 394.835938 338.722656 393.992188 338.722656 393.148438 C 338.722656 392.304688 338.761719 391.464844 338.847656 390.621094 C 338.929688 389.78125 339.050781 388.949219 339.21875 388.121094 C 339.382812 387.292969 339.585938 386.476562 339.832031 385.667969 C 340.078125 384.859375 340.359375 384.066406 340.683594 383.285156 C 341.007812 382.507812 341.367188 381.746094 341.765625 381 C 342.164062 380.253906 342.597656 379.53125 343.066406 378.832031 C 343.535156 378.128906 344.035156 377.453125 344.570312 376.800781 C 345.109375 376.148438 345.671875 375.523438 346.269531 374.925781 C 346.867188 374.328125 347.492188 373.761719 348.144531 373.226562 C 348.796875 372.691406 349.472656 372.1875 350.175781 371.71875 C 350.878906 371.25 351.601562 370.816406 352.34375 370.417969 C 353.089844 370.023438 353.851562 369.660156 354.632812 369.339844 C 355.410156 369.015625 356.207031 368.730469 357.011719 368.484375 C 357.820312 368.242188 358.640625 368.035156 359.464844 367.871094 C 360.292969 367.707031 361.128906 367.582031 361.96875 367.5 C 362.808594 367.417969 363.652344 367.375 364.496094 367.375 Z M 364.496094 367.375 " fill-opacity="1" fill-rule="nonzero"/><g clip-path="url(#21d5125bf7)"><path fill="#ff7e2b" d="M 305.585938 324.0625 L 292.265625 297.421875 L 272.449219 297.421875 C 271.605469 297.421875 270.761719 297.378906 269.921875 297.296875 C 269.082031 297.214844 268.25 297.089844 267.421875 296.925781 C 266.59375 296.761719 265.777344 296.558594 264.96875 296.3125 C 264.160156 296.066406 263.367188 295.78125 262.585938 295.460938 C 261.804688 295.136719 261.042969 294.777344 260.300781 294.378906 C 259.554688 293.980469 258.832031 293.546875 258.128906 293.078125 C 257.429688 292.609375 256.75 292.105469 256.097656 291.570312 C 255.445312 291.035156 254.820312 290.46875 254.226562 289.875 C 253.628906 289.277344 253.0625 288.652344 252.527344 288 C 251.992188 287.347656 251.488281 286.667969 251.019531 285.96875 C 250.550781 285.265625 250.117188 284.542969 249.71875 283.796875 C 249.320312 283.054688 248.960938 282.292969 248.636719 281.511719 C 248.316406 280.730469 248.03125 279.9375 247.785156 279.128906 C 247.542969 278.324219 247.335938 277.503906 247.171875 276.675781 C 247.007812 275.847656 246.882812 275.015625 246.800781 274.175781 C 246.71875 273.335938 246.675781 272.492188 246.675781 271.648438 L 246.675781 256.921875 C 246.675781 256.078125 246.71875 255.234375 246.800781 254.394531 C 246.882812 253.554688 247.007812 252.722656 247.171875 251.894531 C 247.335938 251.066406 247.542969 250.246094 247.785156 249.441406 C 248.03125 248.632812 248.316406 247.839844 248.636719 247.058594 C 248.960938 246.277344 249.320312 245.515625 249.71875 244.773438 C 250.117188 244.027344 250.550781 243.304688 251.019531 242.601562 C 251.488281 241.902344 251.992188 241.222656 252.527344 240.570312 C 253.0625 239.917969 253.628906 239.292969 254.226562 238.699219 C 254.820312 238.101562 255.445312 237.535156 256.097656 237 C 256.75 236.464844 257.429688 235.960938 258.128906 235.492188 C 258.832031 235.023438 259.554688 234.589844 260.300781 234.191406 C 261.042969 233.792969 261.804688 233.433594 262.585938 233.109375 C 263.367188 232.789062 264.160156 232.503906 264.96875 232.257812 C 265.777344 232.015625 266.59375 231.808594 267.421875 231.644531 C 268.25 231.480469 269.082031 231.355469 269.921875 231.273438 C 270.761719 231.191406 271.605469 231.148438 272.449219 231.148438 L 323.996094 231.148438 C 324.839844 231.148438 325.679688 231.191406 326.519531 231.273438 C 327.359375 231.355469 328.195312 231.480469 329.023438 231.644531 C 329.851562 231.808594 330.667969 232.015625 331.476562 232.257812 C 332.285156 232.503906 333.078125 232.789062 333.859375 233.109375 C 334.636719 233.433594 335.398438 233.792969 336.144531 234.191406 C 336.886719 234.589844 337.609375 235.023438 338.3125 235.492188 C 339.015625 235.960938 339.691406 236.464844 340.34375 237 C 340.996094 237.535156 341.621094 238.101562 342.21875 238.699219 C 342.816406 239.292969 343.382812 239.917969 343.917969 240.570312 C 344.453125 241.222656 344.953125 241.902344 345.425781 242.601562 C 345.894531 243.304688 346.328125 244.027344 346.722656 244.773438 C 347.121094 245.515625 347.484375 246.277344 347.804688 247.058594 C 348.128906 247.839844 348.414062 248.632812 348.65625 249.441406 C 348.902344 250.246094 349.109375 251.066406 349.273438 251.894531 C 349.4375 252.722656 349.558594 253.554688 349.644531 254.394531 C 349.726562 255.234375 349.765625 256.078125 349.765625 256.921875 L 349.765625 271.648438 C 349.765625 272.492188 349.726562 273.335938 349.644531 274.175781 C 349.558594 275.015625 349.4375 275.847656 349.273438 276.675781 C 349.109375 277.503906 348.902344 278.324219 348.65625 279.128906 C 348.414062 279.9375 348.128906 280.730469 347.804688 281.511719 C 347.484375 282.292969 347.121094 283.054688 346.722656 283.796875 C 346.328125 284.542969 345.894531 285.265625 345.425781 285.96875 C 344.953125 286.667969 344.453125 287.347656 343.917969 288 C 343.382812 288.652344 342.816406 289.277344 342.21875 289.875 C 341.621094 290.46875 340.996094 291.035156 340.34375 291.570312 C 339.691406 292.105469 339.015625 292.609375 338.3125 293.078125 C 337.609375 293.546875 336.886719 293.980469 336.144531 294.378906 C 335.398438 294.777344 334.636719 295.136719 333.859375 295.460938 C 333.078125 295.78125 332.285156 296.066406 331.476562 296.3125 C 330.667969 296.558594 329.851562 296.761719 329.023438 296.925781 C 328.195312 297.089844 327.359375 297.214844 326.519531 297.296875 C 325.679688 297.378906 324.839844 297.421875 323.996094 297.421875 L 318.90625 297.421875 Z M 272.449219 238.511719 C 271.847656 238.511719 271.246094 238.542969 270.644531 238.601562 C 270.042969 238.660156 269.449219 238.75 268.859375 238.867188 C 268.265625 238.984375 267.683594 239.128906 267.105469 239.304688 C 266.527344 239.480469 265.960938 239.683594 265.40625 239.914062 C 264.847656 240.144531 264.304688 240.402344 263.769531 240.6875 C 263.238281 240.96875 262.722656 241.28125 262.222656 241.617188 C 261.71875 241.949219 261.238281 242.308594 260.769531 242.691406 C 260.304688 243.074219 259.859375 243.476562 259.433594 243.90625 C 259.003906 244.332031 258.601562 244.777344 258.21875 245.242188 C 257.835938 245.710938 257.476562 246.191406 257.140625 246.695312 C 256.808594 247.195312 256.496094 247.710938 256.214844 248.242188 C 255.929688 248.777344 255.671875 249.320312 255.441406 249.875 C 255.210938 250.433594 255.007812 251 254.832031 251.578125 C 254.65625 252.15625 254.511719 252.738281 254.394531 253.332031 C 254.277344 253.921875 254.1875 254.515625 254.128906 255.117188 C 254.070312 255.71875 254.039062 256.320312 254.039062 256.921875 L 254.039062 271.648438 C 254.039062 272.253906 254.070312 272.851562 254.128906 273.453125 C 254.1875 274.054688 254.277344 274.648438 254.394531 275.242188 C 254.511719 275.832031 254.65625 276.417969 254.832031 276.992188 C 255.007812 277.570312 255.210938 278.136719 255.441406 278.695312 C 255.671875 279.25 255.929688 279.796875 256.214844 280.328125 C 256.5 280.859375 256.808594 281.375 257.144531 281.875 C 257.476562 282.378906 257.835938 282.863281 258.21875 283.328125 C 258.601562 283.792969 259.007812 284.238281 259.433594 284.667969 C 259.859375 285.09375 260.304688 285.496094 260.769531 285.878906 C 261.238281 286.261719 261.71875 286.621094 262.222656 286.957031 C 262.722656 287.289062 263.238281 287.601562 263.769531 287.882812 C 264.304688 288.167969 264.847656 288.425781 265.40625 288.65625 C 265.960938 288.886719 266.527344 289.089844 267.105469 289.265625 C 267.683594 289.441406 268.265625 289.585938 268.859375 289.703125 C 269.449219 289.820312 270.042969 289.910156 270.644531 289.96875 C 271.246094 290.027344 271.847656 290.058594 272.449219 290.058594 L 296.816406 290.058594 L 305.585938 307.597656 L 314.355469 290.058594 L 323.996094 290.058594 C 324.597656 290.058594 325.199219 290.027344 325.800781 289.96875 C 326.398438 289.910156 326.996094 289.820312 327.585938 289.703125 C 328.175781 289.585938 328.761719 289.441406 329.339844 289.265625 C 329.914062 289.089844 330.484375 288.886719 331.039062 288.65625 C 331.597656 288.425781 332.140625 288.167969 332.671875 287.882812 C 333.203125 287.601562 333.722656 287.289062 334.222656 286.957031 C 334.722656 286.621094 335.207031 286.261719 335.671875 285.878906 C 336.140625 285.496094 336.585938 285.09375 337.011719 284.667969 C 337.4375 284.238281 337.84375 283.792969 338.226562 283.328125 C 338.609375 282.863281 338.964844 282.378906 339.300781 281.875 C 339.636719 281.375 339.945312 280.859375 340.230469 280.328125 C 340.515625 279.796875 340.773438 279.25 341.003906 278.695312 C 341.234375 278.136719 341.4375 277.570312 341.609375 276.992188 C 341.785156 276.417969 341.933594 275.832031 342.050781 275.242188 C 342.167969 274.648438 342.253906 274.054688 342.316406 273.453125 C 342.375 272.851562 342.402344 272.253906 342.402344 271.648438 L 342.402344 256.921875 C 342.402344 256.320312 342.375 255.71875 342.316406 255.117188 C 342.253906 254.515625 342.167969 253.921875 342.050781 253.332031 C 341.933594 252.738281 341.785156 252.15625 341.609375 251.578125 C 341.4375 251 341.234375 250.433594 341.003906 249.878906 C 340.773438 249.320312 340.515625 248.777344 340.230469 248.242188 C 339.945312 247.710938 339.636719 247.195312 339.300781 246.695312 C 338.964844 246.191406 338.609375 245.710938 338.226562 245.242188 C 337.84375 244.777344 337.4375 244.332031 337.011719 243.90625 C 336.585938 243.476562 336.140625 243.074219 335.671875 242.691406 C 335.207031 242.308594 334.722656 241.949219 334.222656 241.617188 C 333.722656 241.28125 333.203125 240.96875 332.671875 240.6875 C 332.140625 240.402344 331.597656 240.144531 331.039062 239.914062 C 330.484375 239.683594 329.914062 239.480469 329.339844 239.304688 C 328.761719 239.128906 328.175781 238.984375 327.585938 238.867188 C 326.996094 238.75 326.398438 238.660156 325.800781 238.601562 C 325.199219 238.542969 324.597656 238.511719 323.996094 238.511719 Z M 272.449219 238.511719 " fill-opacity="1" fill-rule="nonzero"/></g><path fill="#ff7e2b" d="M 471.265625 304.785156 L 456.539062 304.785156 C 455.695312 304.785156 454.855469 304.746094 454.015625 304.660156 C 453.175781 304.578125 452.339844 304.453125 451.511719 304.289062 C 450.683594 304.125 449.867188 303.921875 449.058594 303.675781 C 448.25 303.429688 447.457031 303.148438 446.675781 302.824219 C 445.898438 302.5 445.136719 302.140625 444.390625 301.742188 C 443.644531 301.34375 442.921875 300.910156 442.222656 300.441406 C 441.519531 299.972656 440.84375 299.472656 440.191406 298.933594 C 439.539062 298.398438 438.914062 297.832031 438.316406 297.238281 C 437.71875 296.640625 437.152344 296.015625 436.617188 295.363281 C 436.082031 294.710938 435.578125 294.035156 435.109375 293.332031 C 434.640625 292.628906 434.207031 291.90625 433.8125 291.160156 C 433.414062 290.417969 433.050781 289.65625 432.730469 288.875 C 432.40625 288.097656 432.121094 287.300781 431.878906 286.496094 C 431.632812 285.6875 431.425781 284.867188 431.261719 284.039062 C 431.097656 283.214844 430.972656 282.378906 430.890625 281.539062 C 430.808594 280.699219 430.765625 279.855469 430.765625 279.011719 L 430.765625 264.285156 C 430.765625 263.441406 430.808594 262.597656 430.890625 261.757812 C 430.972656 260.917969 431.097656 260.085938 431.261719 259.257812 C 431.425781 258.429688 431.632812 257.613281 431.878906 256.804688 C 432.121094 255.996094 432.40625 255.203125 432.730469 254.421875 C 433.050781 253.644531 433.414062 252.878906 433.808594 252.136719 C 434.207031 251.390625 434.640625 250.667969 435.109375 249.96875 C 435.578125 249.265625 436.082031 248.589844 436.617188 247.933594 C 437.152344 247.28125 437.71875 246.660156 438.316406 246.0625 C 438.914062 245.464844 439.539062 244.898438 440.191406 244.363281 C 440.84375 243.828125 441.519531 243.324219 442.222656 242.855469 C 442.921875 242.386719 443.644531 241.953125 444.390625 241.554688 C 445.136719 241.15625 445.898438 240.796875 446.675781 240.476562 C 447.457031 240.152344 448.25 239.867188 449.058594 239.621094 C 449.867188 239.378906 450.683594 239.171875 451.511719 239.007812 C 452.339844 238.84375 453.171875 238.71875 454.015625 238.636719 C 454.855469 238.554688 455.695312 238.511719 456.539062 238.511719 L 500.722656 238.511719 C 501.566406 238.511719 502.40625 238.554688 503.246094 238.636719 C 504.089844 238.71875 504.921875 238.84375 505.75 239.007812 C 506.578125 239.171875 507.394531 239.378906 508.203125 239.621094 C 509.011719 239.867188 509.804688 240.152344 510.585938 240.476562 C 511.363281 240.796875 512.125 241.15625 512.871094 241.554688 C 513.617188 241.953125 514.339844 242.386719 515.039062 242.855469 C 515.742188 243.324219 516.417969 243.828125 517.070312 244.363281 C 517.722656 244.898438 518.347656 245.464844 518.945312 246.0625 C 519.542969 246.660156 520.109375 247.28125 520.644531 247.933594 C 521.179688 248.589844 521.683594 249.265625 522.152344 249.96875 C 522.621094 250.667969 523.054688 251.390625 523.453125 252.136719 C 523.847656 252.878906 524.210938 253.644531 524.53125 254.421875 C 524.855469 255.203125 525.140625 255.996094 525.386719 256.804688 C 525.628906 257.613281 525.835938 258.429688 526 259.257812 C 526.164062 260.085938 526.289062 260.917969 526.371094 261.757812 C 526.453125 262.597656 526.496094 263.441406 526.496094 264.285156 L 526.496094 282.695312 L 493.359375 282.695312 C 492.753906 282.695312 492.152344 282.722656 491.554688 282.785156 C 490.953125 282.84375 490.359375 282.929688 489.765625 283.046875 C 489.175781 283.167969 488.589844 283.3125 488.015625 283.488281 C 487.4375 283.664062 486.871094 283.867188 486.3125 284.097656 C 485.757812 284.328125 485.210938 284.585938 484.679688 284.867188 C 484.148438 285.152344 483.632812 285.460938 483.128906 285.796875 C 482.628906 286.132812 482.144531 286.492188 481.679688 286.875 C 481.214844 287.253906 480.765625 287.660156 480.339844 288.085938 C 479.914062 288.511719 479.511719 288.960938 479.128906 289.425781 C 478.746094 289.890625 478.386719 290.375 478.050781 290.875 C 477.714844 291.378906 477.40625 291.894531 477.121094 292.425781 C 476.839844 292.957031 476.582031 293.5 476.351562 294.058594 C 476.121094 294.617188 475.917969 295.183594 475.742188 295.761719 C 475.566406 296.335938 475.421875 296.921875 475.304688 297.511719 C 475.183594 298.105469 475.097656 298.699219 475.039062 299.300781 C 474.980469 299.898438 474.949219 300.5 474.949219 301.105469 L 474.949219 304.785156 Z M 456.539062 245.875 C 455.9375 245.875 455.335938 245.90625 454.734375 245.964844 C 454.136719 246.023438 453.539062 246.113281 452.949219 246.230469 C 452.355469 246.347656 451.773438 246.496094 451.195312 246.667969 C 450.617188 246.84375 450.050781 247.046875 449.496094 247.277344 C 448.9375 247.507812 448.394531 247.765625 447.863281 248.050781 C 447.332031 248.335938 446.8125 248.644531 446.3125 248.980469 C 445.8125 249.3125 445.328125 249.671875 444.859375 250.054688 C 444.394531 250.4375 443.949219 250.84375 443.523438 251.269531 C 443.097656 251.695312 442.691406 252.140625 442.308594 252.605469 C 441.925781 253.074219 441.570312 253.558594 441.234375 254.058594 C 440.898438 254.558594 440.589844 255.074219 440.304688 255.609375 C 440.019531 256.140625 439.761719 256.683594 439.53125 257.242188 C 439.300781 257.796875 439.097656 258.363281 438.921875 258.941406 C 438.75 259.519531 438.601562 260.101562 438.484375 260.695312 C 438.367188 261.285156 438.277344 261.882812 438.21875 262.480469 C 438.160156 263.082031 438.128906 263.683594 438.132812 264.285156 L 438.132812 279.011719 C 438.128906 279.617188 438.160156 280.21875 438.21875 280.816406 C 438.277344 281.417969 438.367188 282.011719 438.484375 282.605469 C 438.601562 283.195312 438.75 283.78125 438.921875 284.355469 C 439.097656 284.933594 439.300781 285.5 439.53125 286.058594 C 439.761719 286.613281 440.019531 287.160156 440.304688 287.691406 C 440.589844 288.222656 440.898438 288.738281 441.234375 289.242188 C 441.570312 289.742188 441.925781 290.226562 442.308594 290.691406 C 442.691406 291.15625 443.097656 291.605469 443.523438 292.03125 C 443.949219 292.457031 444.394531 292.859375 444.863281 293.242188 C 445.328125 293.625 445.8125 293.984375 446.3125 294.320312 C 446.8125 294.65625 447.332031 294.964844 447.863281 295.25 C 448.394531 295.53125 448.9375 295.789062 449.496094 296.019531 C 450.050781 296.25 450.621094 296.453125 451.195312 296.628906 C 451.773438 296.804688 452.355469 296.949219 452.949219 297.066406 C 453.539062 297.1875 454.136719 297.273438 454.734375 297.332031 C 455.335938 297.390625 455.9375 297.421875 456.539062 297.421875 L 467.84375 297.421875 C 467.953125 296.664062 468.097656 295.910156 468.273438 295.164062 C 468.453125 294.417969 468.664062 293.683594 468.90625 292.957031 C 469.148438 292.230469 469.425781 291.511719 469.730469 290.8125 C 470.039062 290.109375 470.375 289.421875 470.742188 288.75 C 471.113281 288.074219 471.507812 287.421875 471.933594 286.785156 C 472.363281 286.148438 472.816406 285.53125 473.296875 284.933594 C 473.777344 284.335938 474.285156 283.761719 474.820312 283.210938 C 475.351562 282.660156 475.90625 282.132812 476.488281 281.628906 C 477.066406 281.128906 477.667969 280.652344 478.289062 280.207031 C 478.910156 279.757812 479.550781 279.335938 480.210938 278.945312 C 480.871094 278.554688 481.546875 278.191406 482.238281 277.863281 C 482.929688 277.53125 483.632812 277.230469 484.351562 276.960938 C 485.070312 276.695312 485.796875 276.457031 486.539062 276.253906 C 487.277344 276.050781 488.023438 275.882812 488.777344 275.746094 C 489.53125 275.609375 490.292969 275.503906 491.054688 275.4375 C 491.820312 275.367188 492.585938 275.332031 493.351562 275.332031 L 519.125 275.332031 L 519.125 264.285156 C 519.125 263.683594 519.09375 263.082031 519.035156 262.480469 C 518.976562 261.882812 518.886719 261.285156 518.769531 260.695312 C 518.652344 260.101562 518.507812 259.519531 518.332031 258.941406 C 518.15625 258.363281 517.953125 257.796875 517.722656 257.242188 C 517.492188 256.683594 517.234375 256.140625 516.949219 255.609375 C 516.664062 255.074219 516.355469 254.558594 516.019531 254.058594 C 515.6875 253.558594 515.328125 253.074219 514.945312 252.605469 C 514.5625 252.140625 514.15625 251.695312 513.730469 251.269531 C 513.304688 250.84375 512.859375 250.4375 512.394531 250.054688 C 511.925781 249.671875 511.445312 249.3125 510.941406 248.980469 C 510.441406 248.644531 509.925781 248.335938 509.390625 248.050781 C 508.859375 247.765625 508.316406 247.507812 507.757812 247.277344 C 507.203125 247.046875 506.636719 246.84375 506.058594 246.667969 C 505.480469 246.496094 504.898438 246.347656 504.304688 246.230469 C 503.714844 246.113281 503.117188 246.023438 502.519531 245.964844 C 501.917969 245.90625 501.316406 245.875 500.714844 245.875 Z M 456.539062 245.875 " fill-opacity="1" fill-rule="nonzero"/><path fill="#ff7e2b" d="M 414.199219 227.46875 L 381.0625 227.46875 C 380.574219 227.46875 380.105469 227.375 379.652344 227.1875 C 379.203125 227 378.804688 226.734375 378.460938 226.390625 C 378.113281 226.042969 377.847656 225.644531 377.660156 225.195312 C 377.472656 224.742188 377.382812 224.273438 377.382812 223.785156 C 377.382812 223.296875 377.472656 222.828125 377.660156 222.375 C 377.847656 221.925781 378.113281 221.527344 378.460938 221.183594 C 378.804688 220.835938 379.203125 220.570312 379.652344 220.382812 C 380.105469 220.195312 380.574219 220.105469 381.0625 220.105469 L 414.199219 220.105469 C 414.6875 220.105469 415.15625 220.195312 415.609375 220.382812 C 416.058594 220.570312 416.457031 220.835938 416.800781 221.183594 C 417.148438 221.527344 417.414062 221.925781 417.601562 222.375 C 417.789062 222.828125 417.882812 223.296875 417.882812 223.785156 C 417.882812 224.273438 417.789062 224.742188 417.601562 225.195312 C 417.414062 225.644531 417.148438 226.042969 416.800781 226.390625 C 416.457031 226.734375 416.058594 227 415.609375 227.1875 C 415.15625 227.375 414.6875 227.46875 414.199219 227.46875 Z M 414.199219 227.46875 " fill-opacity="1" fill-rule="nonzero"/><path fill="#ff7e2b" d="M 412.359375 238.511719 L 382.902344 238.511719 C 382.414062 238.511719 381.945312 238.417969 381.496094 238.234375 C 381.042969 238.046875 380.644531 237.78125 380.300781 237.433594 C 379.953125 237.089844 379.6875 236.691406 379.503906 236.238281 C 379.316406 235.789062 379.222656 235.320312 379.222656 234.832031 C 379.222656 234.34375 379.316406 233.875 379.503906 233.421875 C 379.6875 232.972656 379.953125 232.574219 380.300781 232.226562 C 380.644531 231.882812 381.042969 231.617188 381.496094 231.429688 C 381.945312 231.242188 382.414062 231.148438 382.902344 231.148438 L 412.359375 231.148438 C 412.847656 231.148438 413.316406 231.242188 413.765625 231.429688 C 414.21875 231.617188 414.617188 231.882812 414.960938 232.226562 C 415.308594 232.574219 415.574219 232.972656 415.761719 233.421875 C 415.945312 233.875 416.039062 234.34375 416.039062 234.832031 C 416.039062 235.320312 415.945312 235.789062 415.761719 236.238281 C 415.574219 236.691406 415.308594 237.089844 414.960938 237.433594 C 414.617188 237.78125 414.21875 238.046875 413.765625 238.234375 C 413.316406 238.417969 412.847656 238.511719 412.359375 238.511719 Z M 412.359375 238.511719 " fill-opacity="1" fill-rule="nonzero"/><path fill="#ff7e2b" d="M 410.515625 249.558594 L 384.746094 249.558594 C 384.257812 249.558594 383.785156 249.464844 383.335938 249.277344 C 382.882812 249.089844 382.488281 248.824219 382.140625 248.480469 C 381.796875 248.132812 381.53125 247.738281 381.34375 247.285156 C 381.15625 246.835938 381.0625 246.363281 381.0625 245.875 C 381.0625 245.386719 381.15625 244.917969 381.34375 244.46875 C 381.53125 244.015625 381.796875 243.617188 382.140625 243.273438 C 382.488281 242.929688 382.882812 242.660156 383.335938 242.476562 C 383.785156 242.289062 384.257812 242.195312 384.746094 242.195312 L 410.515625 242.195312 C 411.003906 242.195312 411.476562 242.289062 411.925781 242.476562 C 412.378906 242.660156 412.777344 242.929688 413.121094 243.273438 C 413.464844 243.617188 413.730469 244.015625 413.917969 244.46875 C 414.105469 244.917969 414.199219 245.386719 414.199219 245.875 C 414.199219 246.363281 414.105469 246.835938 413.917969 247.285156 C 413.730469 247.738281 413.464844 248.132812 413.121094 248.480469 C 412.777344 248.824219 412.378906 249.089844 411.925781 249.277344 C 411.476562 249.464844 411.003906 249.558594 410.515625 249.558594 Z M 410.515625 249.558594 " fill-opacity="1" fill-rule="nonzero"/><path fill="#ff7e2b" d="M 390.265625 246.171875 L 404.996094 246.171875 C 404.996094 246.65625 404.949219 247.132812 404.851562 247.609375 C 404.757812 248.082031 404.617188 248.542969 404.433594 248.988281 C 404.25 249.4375 404.023438 249.859375 403.753906 250.261719 C 403.484375 250.664062 403.179688 251.035156 402.835938 251.378906 C 402.496094 251.71875 402.125 252.023438 401.722656 252.292969 C 401.320312 252.5625 400.894531 252.789062 400.449219 252.972656 C 400.003906 253.160156 399.542969 253.296875 399.066406 253.394531 C 398.59375 253.488281 398.113281 253.535156 397.632812 253.535156 C 397.148438 253.535156 396.667969 253.488281 396.195312 253.394531 C 395.71875 253.296875 395.257812 253.160156 394.8125 252.972656 C 394.367188 252.789062 393.941406 252.5625 393.539062 252.292969 C 393.136719 252.023438 392.765625 251.71875 392.425781 251.378906 C 392.082031 251.035156 391.777344 250.664062 391.507812 250.261719 C 391.238281 249.859375 391.011719 249.4375 390.828125 248.988281 C 390.644531 248.542969 390.503906 248.082031 390.410156 247.609375 C 390.316406 247.132812 390.265625 246.65625 390.265625 246.171875 Z M 390.265625 246.171875 " fill-opacity="1" fill-rule="nonzero"/><path fill="#ff7e2b" d="M 397.632812 175.921875 C 396.90625 175.921875 396.1875 175.957031 395.464844 176.027344 C 394.746094 176.097656 394.03125 176.207031 393.320312 176.347656 C 392.613281 176.488281 391.910156 176.664062 391.21875 176.875 C 390.527344 177.082031 389.84375 177.328125 389.175781 177.601562 C 388.507812 177.878906 387.855469 178.1875 387.21875 178.53125 C 386.578125 178.871094 385.960938 179.242188 385.359375 179.644531 C 384.757812 180.046875 384.175781 180.476562 383.617188 180.9375 C 383.058594 181.394531 382.523438 181.878906 382.011719 182.390625 C 381.5 182.902344 381.011719 183.4375 380.554688 184 C 380.09375 184.558594 379.664062 185.136719 379.261719 185.738281 C 378.859375 186.339844 378.488281 186.960938 378.148438 187.597656 C 377.808594 188.238281 377.5 188.890625 377.222656 189.558594 C 376.945312 190.226562 376.703125 190.90625 376.492188 191.601562 C 376.28125 192.292969 376.105469 192.992188 375.964844 193.703125 C 375.824219 194.414062 375.71875 195.128906 375.644531 195.847656 C 375.574219 196.566406 375.539062 197.289062 375.539062 198.011719 C 375.539062 198.734375 375.574219 199.457031 375.644531 200.179688 C 375.71875 200.898438 375.824219 201.613281 375.964844 202.324219 C 376.105469 203.03125 376.28125 203.734375 376.492188 204.425781 C 376.703125 205.117188 376.945312 205.796875 377.222656 206.464844 C 377.5 207.136719 377.808594 207.789062 378.148438 208.425781 C 378.488281 209.066406 378.859375 209.683594 379.261719 210.285156 C 379.664062 210.886719 380.09375 211.46875 380.554688 212.027344 C 381.011719 212.585938 381.5 213.121094 382.011719 213.632812 C 382.523438 214.144531 383.058594 214.628906 383.617188 215.089844 C 384.175781 215.546875 384.757812 215.980469 385.359375 216.378906 C 385.960938 216.78125 386.578125 217.152344 387.21875 217.496094 C 387.855469 217.835938 388.507812 218.144531 389.175781 218.421875 C 389.84375 218.699219 390.527344 218.941406 391.21875 219.152344 C 391.910156 219.363281 392.613281 219.539062 393.320312 219.679688 C 394.03125 219.820312 394.746094 219.925781 395.464844 219.996094 C 396.1875 220.066406 396.90625 220.105469 397.632812 220.105469 C 398.355469 220.105469 399.078125 220.066406 399.796875 219.996094 C 400.515625 219.925781 401.230469 219.820312 401.941406 219.679688 C 402.648438 219.539062 403.351562 219.363281 404.042969 219.152344 C 404.734375 218.941406 405.417969 218.699219 406.085938 218.421875 C 406.753906 218.144531 407.40625 217.835938 408.042969 217.496094 C 408.683594 217.152344 409.300781 216.78125 409.902344 216.378906 C 410.503906 215.980469 411.085938 215.546875 411.644531 215.089844 C 412.203125 214.628906 412.738281 214.144531 413.25 213.632812 C 413.761719 213.121094 414.25 212.585938 414.707031 212.027344 C 415.167969 211.46875 415.597656 210.886719 416 210.285156 C 416.402344 209.683594 416.773438 209.066406 417.113281 208.425781 C 417.453125 207.789062 417.761719 207.136719 418.039062 206.464844 C 418.316406 205.796875 418.5625 205.117188 418.769531 204.425781 C 418.980469 203.734375 419.15625 203.03125 419.296875 202.324219 C 419.4375 201.613281 419.542969 200.898438 419.617188 200.179688 C 419.6875 199.457031 419.722656 198.734375 419.722656 198.011719 C 419.722656 197.289062 419.6875 196.566406 419.617188 195.847656 C 419.542969 195.128906 419.4375 194.414062 419.296875 193.703125 C 419.15625 192.992188 418.980469 192.292969 418.769531 191.601562 C 418.5625 190.90625 418.316406 190.226562 418.039062 189.558594 C 417.761719 188.890625 417.453125 188.238281 417.113281 187.597656 C 416.773438 186.960938 416.402344 186.339844 416 185.738281 C 415.597656 185.136719 415.167969 184.558594 414.707031 184 C 414.25 183.4375 413.761719 182.902344 413.25 182.390625 C 412.738281 181.878906 412.203125 181.394531 411.644531 180.9375 C 411.085938 180.476562 410.503906 180.046875 409.902344 179.644531 C 409.300781 179.242188 408.683594 178.871094 408.042969 178.53125 C 407.40625 178.1875 406.753906 177.878906 406.085938 177.601562 C 405.417969 177.328125 404.734375 177.082031 404.042969 176.875 C 403.351562 176.664062 402.648438 176.488281 401.941406 176.347656 C 401.230469 176.207031 400.515625 176.097656 399.796875 176.027344 C 399.078125 175.957031 398.355469 175.921875 397.632812 175.921875 M 397.632812 168.558594 C 398.59375 168.558594 399.558594 168.605469 400.519531 168.699219 C 401.476562 168.792969 402.429688 168.9375 403.378906 169.125 C 404.324219 169.3125 405.257812 169.546875 406.179688 169.828125 C 407.105469 170.105469 408.011719 170.429688 408.902344 170.800781 C 409.792969 171.167969 410.664062 171.582031 411.515625 172.035156 C 412.367188 172.492188 413.191406 172.984375 413.996094 173.523438 C 414.796875 174.058594 415.570312 174.632812 416.316406 175.242188 C 417.0625 175.855469 417.777344 176.503906 418.457031 177.183594 C 419.140625 177.867188 419.789062 178.582031 420.398438 179.328125 C 421.011719 180.074219 421.585938 180.847656 422.121094 181.648438 C 422.65625 182.449219 423.152344 183.277344 423.609375 184.128906 C 424.0625 184.980469 424.472656 185.851562 424.84375 186.742188 C 425.210938 187.632812 425.539062 188.539062 425.816406 189.460938 C 426.097656 190.386719 426.332031 191.320312 426.519531 192.265625 C 426.707031 193.210938 426.847656 194.164062 426.945312 195.125 C 427.039062 196.085938 427.085938 197.046875 427.085938 198.011719 C 427.085938 198.976562 427.039062 199.941406 426.945312 200.898438 C 426.847656 201.859375 426.707031 202.8125 426.519531 203.757812 C 426.332031 204.707031 426.097656 205.640625 425.816406 206.5625 C 425.539062 207.484375 425.210938 208.394531 424.84375 209.285156 C 424.472656 210.175781 424.0625 211.046875 423.609375 211.898438 C 423.152344 212.75 422.65625 213.574219 422.121094 214.375 C 421.585938 215.179688 421.011719 215.953125 420.398438 216.699219 C 419.789062 217.445312 419.140625 218.15625 418.457031 218.839844 C 417.777344 219.523438 417.0625 220.167969 416.316406 220.78125 C 415.570312 221.394531 414.796875 221.96875 413.996094 222.503906 C 413.191406 223.039062 412.367188 223.535156 411.515625 223.988281 C 410.664062 224.445312 409.792969 224.855469 408.902344 225.226562 C 408.011719 225.59375 407.105469 225.917969 406.179688 226.199219 C 405.257812 226.480469 404.324219 226.714844 403.378906 226.902344 C 402.429688 227.089844 401.476562 227.230469 400.519531 227.324219 C 399.558594 227.421875 398.59375 227.46875 397.632812 227.46875 C 396.667969 227.46875 395.703125 227.421875 394.742188 227.324219 C 393.785156 227.230469 392.832031 227.089844 391.882812 226.902344 C 390.9375 226.714844 390.003906 226.480469 389.082031 226.199219 C 388.15625 225.917969 387.25 225.59375 386.359375 225.226562 C 385.46875 224.855469 384.597656 224.445312 383.746094 223.988281 C 382.894531 223.535156 382.070312 223.039062 381.265625 222.503906 C 380.464844 221.96875 379.691406 221.394531 378.945312 220.78125 C 378.199219 220.167969 377.484375 219.523438 376.804688 218.839844 C 376.121094 218.15625 375.472656 217.445312 374.863281 216.699219 C 374.25 215.953125 373.675781 215.179688 373.140625 214.375 C 372.605469 213.574219 372.109375 212.75 371.65625 211.898438 C 371.199219 211.046875 370.789062 210.175781 370.417969 209.285156 C 370.050781 208.394531 369.726562 207.484375 369.445312 206.5625 C 369.164062 205.640625 368.929688 204.707031 368.742188 203.757812 C 368.554688 202.8125 368.414062 201.859375 368.316406 200.898438 C 368.222656 199.941406 368.175781 198.976562 368.175781 198.011719 C 368.175781 197.046875 368.222656 196.085938 368.316406 195.125 C 368.414062 194.164062 368.554688 193.210938 368.742188 192.265625 C 368.929688 191.320312 369.164062 190.386719 369.445312 189.460938 C 369.726562 188.539062 370.050781 187.632812 370.417969 186.742188 C 370.789062 185.851562 371.199219 184.980469 371.65625 184.128906 C 372.109375 183.277344 372.605469 182.449219 373.140625 181.648438 C 373.675781 180.847656 374.25 180.074219 374.863281 179.328125 C 375.472656 178.582031 376.121094 177.867188 376.804688 177.183594 C 377.484375 176.503906 378.199219 175.855469 378.945312 175.242188 C 379.691406 174.632812 380.464844 174.058594 381.265625 173.523438 C 382.070312 172.984375 382.894531 172.492188 383.746094 172.035156 C 384.597656 171.582031 385.46875 171.167969 386.359375 170.800781 C 387.25 170.429688 388.15625 170.105469 389.082031 169.828125 C 390.003906 169.546875 390.9375 169.3125 391.882812 169.125 C 392.832031 168.9375 393.785156 168.792969 394.742188 168.699219 C 395.703125 168.605469 396.667969 168.558594 397.632812 168.558594 Z M 397.632812 168.558594 " fill-opacity="1" fill-rule="nonzero"/><path fill="#ff7e2b" d="M 353.449219 201.695312 L 338.722656 201.695312 C 338.234375 201.695312 337.761719 201.601562 337.3125 201.414062 C 336.863281 201.226562 336.464844 200.960938 336.117188 200.617188 C 335.773438 200.269531 335.507812 199.871094 335.320312 199.421875 C 335.132812 198.96875 335.039062 198.5 335.039062 198.011719 C 335.039062 197.523438 335.132812 197.054688 335.320312 196.605469 C 335.507812 196.152344 335.773438 195.753906 336.117188 195.410156 C 336.464844 195.0625 336.863281 194.796875 337.3125 194.609375 C 337.761719 194.425781 338.234375 194.332031 338.722656 194.332031 L 353.449219 194.332031 C 353.9375 194.332031 354.40625 194.425781 354.859375 194.609375 C 355.308594 194.796875 355.707031 195.0625 356.050781 195.410156 C 356.398438 195.753906 356.664062 196.152344 356.851562 196.605469 C 357.039062 197.054688 357.128906 197.523438 357.132812 198.011719 C 357.128906 198.5 357.039062 198.96875 356.851562 199.421875 C 356.664062 199.871094 356.398438 200.269531 356.050781 200.617188 C 355.707031 200.960938 355.308594 201.226562 354.859375 201.414062 C 354.40625 201.601562 353.9375 201.695312 353.449219 201.695312 Z M 353.449219 201.695312 " fill-opacity="1" fill-rule="nonzero"/><path fill="#ff7e2b" d="M 456.539062 201.695312 L 441.8125 201.695312 C 441.324219 201.695312 440.855469 201.601562 440.402344 201.414062 C 439.953125 201.226562 439.554688 200.960938 439.210938 200.617188 C 438.863281 200.269531 438.597656 199.871094 438.410156 199.421875 C 438.222656 198.96875 438.128906 198.5 438.132812 198.011719 C 438.128906 197.523438 438.222656 197.054688 438.410156 196.605469 C 438.597656 196.152344 438.863281 195.753906 439.210938 195.410156 C 439.554688 195.0625 439.953125 194.796875 440.402344 194.609375 C 440.855469 194.425781 441.324219 194.332031 441.8125 194.332031 L 456.539062 194.332031 C 457.027344 194.332031 457.496094 194.425781 457.949219 194.609375 C 458.398438 194.796875 458.796875 195.0625 459.144531 195.410156 C 459.488281 195.753906 459.753906 196.152344 459.941406 196.605469 C 460.128906 197.054688 460.222656 197.523438 460.222656 198.011719 C 460.222656 198.5 460.128906 198.96875 459.941406 199.421875 C 459.753906 199.871094 459.488281 200.269531 459.144531 200.617188 C 458.796875 200.960938 458.398438 201.226562 457.949219 201.414062 C 457.496094 201.601562 457.027344 201.695312 456.539062 201.695312 Z M 456.539062 201.695312 " fill-opacity="1" fill-rule="nonzero"/><g clip-path="url(#e80ff1ef1d)"><path fill="#ff7e2b" d="M 393.949219 150.148438 L 393.949219 139.105469 C 393.949219 138.617188 394.042969 138.144531 394.230469 137.695312 C 394.417969 137.242188 394.683594 136.84375 395.027344 136.5 C 395.371094 136.15625 395.769531 135.890625 396.222656 135.703125 C 396.671875 135.515625 397.144531 135.421875 397.632812 135.421875 C 398.121094 135.421875 398.589844 135.515625 399.039062 135.703125 C 399.492188 135.890625 399.890625 136.15625 400.234375 136.5 C 400.578125 136.84375 400.847656 137.242188 401.03125 137.695312 C 401.21875 138.144531 401.3125 138.617188 401.3125 139.105469 L 401.3125 150.148438 C 401.3125 150.636719 401.21875 151.105469 401.03125 151.558594 C 400.847656 152.007812 400.578125 152.40625 400.234375 152.753906 C 399.890625 153.097656 399.492188 153.363281 399.039062 153.550781 C 398.589844 153.738281 398.121094 153.832031 397.632812 153.832031 C 397.144531 153.832031 396.671875 153.738281 396.222656 153.550781 C 395.769531 153.363281 395.371094 153.097656 395.027344 152.753906 C 394.683594 152.40625 394.417969 152.007812 394.230469 151.558594 C 394.042969 151.105469 393.949219 150.636719 393.949219 150.148438 Z M 393.949219 150.148438 " fill-opacity="1" fill-rule="nonzero"/></g><path fill="#ff7e2b" d="M 354.339844 177.269531 L 344.773438 171.746094 C 344.351562 171.503906 343.992188 171.1875 343.695312 170.800781 C 343.398438 170.414062 343.1875 169.984375 343.058594 169.511719 C 342.933594 169.039062 342.902344 168.5625 342.964844 168.078125 C 343.03125 167.59375 343.183594 167.140625 343.425781 166.71875 C 343.671875 166.292969 343.988281 165.933594 344.375 165.636719 C 344.761719 165.339844 345.191406 165.128906 345.664062 165.003906 C 346.136719 164.875 346.613281 164.84375 347.097656 164.90625 C 347.582031 164.972656 348.035156 165.125 348.457031 165.371094 L 358.023438 170.890625 C 358.445312 171.136719 358.804688 171.453125 359.101562 171.839844 C 359.398438 172.226562 359.613281 172.65625 359.738281 173.128906 C 359.863281 173.597656 359.894531 174.078125 359.832031 174.5625 C 359.769531 175.046875 359.613281 175.5 359.371094 175.921875 C 359.125 176.34375 358.808594 176.703125 358.421875 177 C 358.035156 177.300781 357.605469 177.511719 357.132812 177.636719 C 356.664062 177.761719 356.183594 177.792969 355.699219 177.730469 C 355.21875 177.667969 354.761719 177.511719 354.339844 177.269531 Z M 354.339844 177.269531 " fill-opacity="1" fill-rule="nonzero"/><path fill="#ff7e2b" d="M 437.238281 170.886719 L 446.804688 165.363281 C 447.226562 165.121094 447.679688 164.964844 448.164062 164.902344 C 448.648438 164.839844 449.125 164.871094 449.597656 164.996094 C 450.070312 165.121094 450.5 165.335938 450.886719 165.632812 C 451.273438 165.929688 451.589844 166.289062 451.832031 166.710938 C 452.078125 167.132812 452.230469 167.585938 452.292969 168.070312 C 452.359375 168.554688 452.328125 169.035156 452.199219 169.503906 C 452.074219 169.976562 451.863281 170.40625 451.566406 170.792969 C 451.269531 171.179688 450.90625 171.496094 450.484375 171.742188 L 440.917969 177.261719 C 440.496094 177.507812 440.042969 177.660156 439.558594 177.726562 C 439.074219 177.789062 438.597656 177.757812 438.125 177.632812 C 437.65625 177.503906 437.226562 177.292969 436.835938 176.996094 C 436.449219 176.699219 436.132812 176.339844 435.890625 175.914062 C 435.644531 175.492188 435.492188 175.039062 435.429688 174.554688 C 435.363281 174.070312 435.394531 173.59375 435.523438 173.121094 C 435.648438 172.648438 435.859375 172.222656 436.15625 171.832031 C 436.453125 171.445312 436.816406 171.128906 437.238281 170.886719 Z M 437.238281 170.886719 " fill-opacity="1" fill-rule="nonzero"/><path fill="#ff7e2b" d="M 414.691406 161.101562 L 423.894531 145.160156 C 424.140625 144.734375 424.453125 144.375 424.84375 144.078125 C 425.230469 143.78125 425.660156 143.570312 426.128906 143.441406 C 426.601562 143.316406 427.078125 143.285156 427.5625 143.347656 C 428.046875 143.414062 428.5 143.566406 428.925781 143.8125 C 429.347656 144.054688 429.707031 144.371094 430.003906 144.757812 C 430.300781 145.144531 430.511719 145.574219 430.640625 146.046875 C 430.765625 146.519531 430.796875 146.996094 430.734375 147.480469 C 430.671875 147.964844 430.515625 148.417969 430.273438 148.839844 L 421.066406 164.785156 C 420.824219 165.207031 420.507812 165.566406 420.121094 165.863281 C 419.734375 166.160156 419.304688 166.371094 418.832031 166.5 C 418.359375 166.625 417.882812 166.65625 417.398438 166.59375 C 416.914062 166.527344 416.460938 166.375 416.039062 166.132812 C 415.613281 165.886719 415.253906 165.570312 414.957031 165.183594 C 414.660156 164.796875 414.449219 164.367188 414.324219 163.894531 C 414.195312 163.421875 414.164062 162.945312 414.226562 162.460938 C 414.292969 161.976562 414.445312 161.523438 414.691406 161.101562 Z M 414.691406 161.101562 " fill-opacity="1" fill-rule="nonzero"/><path fill="#ff7e2b" d="M 374.191406 164.777344 L 364.984375 148.835938 C 364.742188 148.410156 364.585938 147.957031 364.523438 147.472656 C 364.460938 146.988281 364.492188 146.511719 364.617188 146.039062 C 364.742188 145.570312 364.957031 145.140625 365.253906 144.75 C 365.550781 144.363281 365.910156 144.046875 366.332031 143.804688 C 366.753906 143.558594 367.207031 143.40625 367.691406 143.34375 C 368.175781 143.277344 368.65625 143.308594 369.125 143.4375 C 369.597656 143.5625 370.027344 143.773438 370.414062 144.070312 C 370.800781 144.371094 371.117188 144.730469 371.363281 145.152344 L 380.566406 161.09375 C 380.8125 161.519531 380.964844 161.972656 381.027344 162.453125 C 381.09375 162.9375 381.0625 163.417969 380.933594 163.890625 C 380.808594 164.359375 380.597656 164.789062 380.300781 165.175781 C 380 165.5625 379.640625 165.878906 379.21875 166.125 C 378.796875 166.367188 378.34375 166.523438 377.859375 166.585938 C 377.375 166.648438 376.898438 166.617188 376.425781 166.492188 C 375.953125 166.367188 375.523438 166.152344 375.136719 165.855469 C 374.75 165.558594 374.433594 165.199219 374.191406 164.777344 Z M 374.191406 164.777344 " fill-opacity="1" fill-rule="nonzero"/><path fill="#ff7e2b" d="M 445.496094 407.871094 C 419.265625 407.871094 411.171875 404.34375 410.839844 404.1875 C 410.183594 403.890625 409.65625 403.4375 409.265625 402.828125 C 408.871094 402.21875 408.675781 401.554688 408.675781 400.828125 C 408.632812 398.910156 408.730469 396.996094 408.96875 395.085938 C 409.203125 393.179688 409.574219 391.300781 410.082031 389.449219 C 410.589844 387.59375 411.230469 385.789062 412 384.027344 C 412.769531 382.265625 413.664062 380.570312 414.679688 378.941406 C 415.695312 377.308594 416.824219 375.761719 418.066406 374.292969 C 419.304688 372.824219 420.644531 371.453125 422.085938 370.183594 C 423.523438 368.910156 425.046875 367.746094 426.65625 366.695312 C 428.261719 365.640625 429.9375 364.710938 431.679688 363.902344 C 432.257812 363.648438 432.859375 363.550781 433.488281 363.609375 C 434.117188 363.667969 434.691406 363.871094 435.214844 364.226562 C 436.738281 365.253906 438.375 366.035156 440.132812 366.570312 C 441.890625 367.105469 443.6875 367.367188 445.523438 367.363281 C 447.359375 367.367188 449.15625 367.105469 450.914062 366.570312 C 452.671875 366.035156 454.3125 365.253906 455.832031 364.226562 C 456.355469 363.871094 456.929688 363.667969 457.558594 363.609375 C 458.1875 363.550781 458.789062 363.648438 459.367188 363.902344 C 462.015625 365.097656 464.496094 366.570312 466.8125 368.328125 C 469.128906 370.082031 471.21875 372.074219 473.082031 374.304688 C 474.949219 376.53125 476.539062 378.941406 477.859375 381.527344 C 479.183594 384.117188 480.195312 386.820312 480.90625 389.636719 C 481.148438 390.539062 481.058594 391.410156 480.640625 392.242188 C 479.332031 394.839844 478.679688 397.589844 478.691406 400.5 C 478.691406 400.882812 478.691406 401.234375 478.691406 401.648438 C 478.714844 402.085938 478.667969 402.511719 478.542969 402.933594 C 478.414062 403.351562 478.222656 403.738281 477.957031 404.085938 C 477.695312 404.4375 477.378906 404.730469 477.011719 404.96875 C 476.644531 405.207031 476.246094 405.375 475.816406 405.46875 C 465.792969 407.339844 455.6875 408.140625 445.496094 407.871094 Z M 416.144531 398.128906 C 425.839844 400.011719 435.621094 400.804688 445.496094 400.503906 C 454.148438 400.65625 462.753906 400.105469 471.320312 398.847656 C 471.503906 395.875 472.1875 393.023438 473.371094 390.292969 C 472.789062 388.292969 472.011719 386.371094 471.039062 384.523438 C 470.070312 382.679688 468.929688 380.949219 467.613281 379.332031 C 466.300781 377.714844 464.835938 376.246094 463.226562 374.921875 C 461.621094 373.597656 459.894531 372.445312 458.058594 371.464844 C 454.152344 373.644531 449.964844 374.734375 445.496094 374.726562 C 441.023438 374.734375 436.835938 373.644531 432.933594 371.464844 C 431.726562 372.121094 430.570312 372.855469 429.460938 373.664062 C 428.347656 374.46875 427.292969 375.34375 426.292969 376.285156 C 425.292969 377.222656 424.355469 378.222656 423.484375 379.285156 C 422.613281 380.34375 421.808594 381.453125 421.078125 382.617188 C 420.347656 383.777344 419.691406 384.980469 419.113281 386.226562 C 418.535156 387.472656 418.035156 388.75 417.621094 390.058594 C 417.203125 391.367188 416.871094 392.695312 416.625 394.046875 C 416.378906 395.394531 416.21875 396.757812 416.144531 398.128906 Z M 416.144531 398.128906 " fill-opacity="1" fill-rule="nonzero"/><path fill="#ff7e2b" d="M 445.496094 330.558594 C 444.890625 330.558594 444.289062 330.585938 443.691406 330.648438 C 443.089844 330.707031 442.496094 330.792969 441.902344 330.910156 C 441.3125 331.03125 440.726562 331.175781 440.152344 331.351562 C 439.574219 331.527344 439.007812 331.730469 438.449219 331.960938 C 437.894531 332.191406 437.347656 332.449219 436.816406 332.730469 C 436.285156 333.015625 435.769531 333.324219 435.265625 333.660156 C 434.765625 333.996094 434.28125 334.355469 433.816406 334.738281 C 433.351562 335.121094 432.902344 335.523438 432.476562 335.949219 C 432.050781 336.375 431.648438 336.824219 431.265625 337.289062 C 430.882812 337.753906 430.523438 338.238281 430.1875 338.738281 C 429.851562 339.242188 429.542969 339.757812 429.257812 340.289062 C 428.976562 340.820312 428.71875 341.367188 428.488281 341.921875 C 428.257812 342.480469 428.054688 343.046875 427.878906 343.625 C 427.703125 344.199219 427.558594 344.785156 427.4375 345.375 C 427.320312 345.96875 427.234375 346.5625 427.175781 347.164062 C 427.113281 347.761719 427.085938 348.363281 427.085938 348.96875 C 427.085938 349.570312 427.113281 350.171875 427.175781 350.773438 C 427.234375 351.371094 427.320312 351.96875 427.4375 352.558594 C 427.558594 353.148438 427.703125 353.734375 427.878906 354.3125 C 428.054688 354.886719 428.257812 355.457031 428.488281 356.011719 C 428.71875 356.570312 428.976562 357.113281 429.257812 357.644531 C 429.542969 358.175781 429.851562 358.695312 430.1875 359.195312 C 430.523438 359.695312 430.882812 360.179688 431.265625 360.644531 C 431.648438 361.113281 432.050781 361.558594 432.476562 361.984375 C 432.902344 362.410156 433.351562 362.816406 433.816406 363.199219 C 434.28125 363.582031 434.765625 363.9375 435.265625 364.273438 C 435.769531 364.609375 436.285156 364.917969 436.816406 365.203125 C 437.347656 365.488281 437.894531 365.746094 438.449219 365.976562 C 439.007812 366.207031 439.574219 366.410156 440.152344 366.582031 C 440.726562 366.757812 441.3125 366.90625 441.902344 367.023438 C 442.496094 367.140625 443.089844 367.230469 443.691406 367.289062 C 444.289062 367.347656 444.890625 367.375 445.496094 367.375 C 446.097656 367.375 446.699219 367.347656 447.300781 367.289062 C 447.898438 367.230469 448.496094 367.140625 449.085938 367.023438 C 449.675781 366.90625 450.261719 366.757812 450.839844 366.582031 C 451.414062 366.410156 451.980469 366.207031 452.539062 365.976562 C 453.097656 365.746094 453.640625 365.488281 454.171875 365.203125 C 454.703125 364.917969 455.222656 364.609375 455.722656 364.273438 C 456.222656 363.9375 456.707031 363.582031 457.171875 363.199219 C 457.640625 362.816406 458.085938 362.410156 458.511719 361.984375 C 458.9375 361.558594 459.34375 361.113281 459.726562 360.644531 C 460.109375 360.179688 460.464844 359.695312 460.800781 359.195312 C 461.136719 358.695312 461.445312 358.175781 461.730469 357.644531 C 462.015625 357.113281 462.273438 356.570312 462.503906 356.011719 C 462.734375 355.457031 462.9375 354.886719 463.109375 354.3125 C 463.285156 353.734375 463.433594 353.148438 463.550781 352.558594 C 463.667969 351.96875 463.757812 351.371094 463.816406 350.773438 C 463.875 350.171875 463.902344 349.570312 463.902344 348.96875 C 463.902344 348.363281 463.875 347.761719 463.816406 347.164062 C 463.757812 346.5625 463.667969 345.96875 463.550781 345.375 C 463.433594 344.785156 463.285156 344.199219 463.109375 343.625 C 462.9375 343.046875 462.734375 342.480469 462.503906 341.921875 C 462.273438 341.367188 462.015625 340.820312 461.730469 340.289062 C 461.445312 339.757812 461.136719 339.242188 460.800781 338.738281 C 460.464844 338.238281 460.109375 337.753906 459.726562 337.289062 C 459.34375 336.824219 458.9375 336.375 458.511719 335.949219 C 458.085938 335.523438 457.640625 335.121094 457.171875 334.738281 C 456.707031 334.355469 456.222656 333.996094 455.722656 333.660156 C 455.222656 333.324219 454.703125 333.015625 454.171875 332.730469 C 453.640625 332.449219 453.097656 332.191406 452.539062 331.960938 C 451.980469 331.730469 451.414062 331.527344 450.839844 331.351562 C 450.261719 331.175781 449.675781 331.03125 449.085938 330.910156 C 448.496094 330.792969 447.898438 330.707031 447.300781 330.648438 C 446.699219 330.585938 446.097656 330.558594 445.496094 330.558594 M 445.496094 323.195312 C 446.339844 323.195312 447.179688 323.234375 448.019531 323.320312 C 448.859375 323.402344 449.695312 323.523438 450.523438 323.691406 C 451.351562 323.855469 452.167969 324.058594 452.976562 324.304688 C 453.785156 324.550781 454.578125 324.832031 455.355469 325.15625 C 456.136719 325.480469 456.898438 325.839844 457.644531 326.238281 C 458.386719 326.636719 459.109375 327.070312 459.8125 327.539062 C 460.515625 328.007812 461.191406 328.507812 461.84375 329.042969 C 462.496094 329.582031 463.121094 330.144531 463.71875 330.742188 C 464.316406 331.339844 464.882812 331.964844 465.417969 332.617188 C 465.953125 333.269531 466.453125 333.945312 466.921875 334.648438 C 467.394531 335.351562 467.828125 336.074219 468.222656 336.816406 C 468.621094 337.5625 468.984375 338.324219 469.304688 339.105469 C 469.628906 339.882812 469.914062 340.679688 470.15625 341.484375 C 470.402344 342.292969 470.605469 343.113281 470.773438 343.9375 C 470.9375 344.765625 471.058594 345.601562 471.144531 346.441406 C 471.226562 347.28125 471.265625 348.125 471.265625 348.96875 C 471.265625 349.8125 471.226562 350.652344 471.144531 351.492188 C 471.058594 352.332031 470.9375 353.167969 470.773438 353.996094 C 470.605469 354.824219 470.402344 355.640625 470.15625 356.449219 C 469.914062 357.257812 469.628906 358.050781 469.304688 358.832031 C 468.984375 359.609375 468.621094 360.371094 468.222656 361.117188 C 467.828125 361.859375 467.394531 362.585938 466.921875 363.285156 C 466.453125 363.988281 465.953125 364.664062 465.417969 365.316406 C 464.882812 365.96875 464.316406 366.59375 463.71875 367.191406 C 463.121094 367.789062 462.496094 368.355469 461.84375 368.890625 C 461.191406 369.425781 460.515625 369.925781 459.8125 370.398438 C 459.109375 370.867188 458.386719 371.300781 457.644531 371.695312 C 456.898438 372.09375 456.136719 372.457031 455.355469 372.777344 C 454.578125 373.101562 453.785156 373.386719 452.976562 373.628906 C 452.167969 373.875 451.351562 374.082031 450.523438 374.246094 C 449.695312 374.410156 448.859375 374.535156 448.019531 374.617188 C 447.179688 374.699219 446.339844 374.738281 445.496094 374.738281 C 444.652344 374.738281 443.808594 374.699219 442.96875 374.617188 C 442.128906 374.535156 441.292969 374.410156 440.464844 374.246094 C 439.640625 374.082031 438.820312 373.875 438.011719 373.628906 C 437.207031 373.386719 436.410156 373.101562 435.632812 372.777344 C 434.851562 372.457031 434.089844 372.09375 433.34375 371.695312 C 432.601562 371.300781 431.878906 370.867188 431.175781 370.398438 C 430.472656 369.925781 429.796875 369.425781 429.144531 368.890625 C 428.492188 368.355469 427.867188 367.789062 427.269531 367.191406 C 426.671875 366.59375 426.109375 365.96875 425.570312 365.316406 C 425.035156 364.664062 424.535156 363.988281 424.066406 363.285156 C 423.597656 362.585938 423.164062 361.859375 422.765625 361.117188 C 422.367188 360.371094 422.007812 359.609375 421.683594 358.832031 C 421.359375 358.050781 421.078125 357.257812 420.832031 356.449219 C 420.585938 355.640625 420.382812 354.824219 420.21875 353.996094 C 420.050781 353.167969 419.929688 352.332031 419.847656 351.492188 C 419.761719 350.652344 419.722656 349.8125 419.722656 348.96875 C 419.722656 348.125 419.761719 347.28125 419.847656 346.441406 C 419.929688 345.601562 420.050781 344.765625 420.21875 343.9375 C 420.382812 343.113281 420.585938 342.292969 420.832031 341.484375 C 421.078125 340.679688 421.359375 339.882812 421.683594 339.105469 C 422.007812 338.324219 422.367188 337.5625 422.765625 336.816406 C 423.164062 336.074219 423.597656 335.351562 424.066406 334.648438 C 424.535156 333.945312 425.035156 333.269531 425.570312 332.617188 C 426.109375 331.964844 426.671875 331.339844 427.269531 330.742188 C 427.867188 330.144531 428.492188 329.582031 429.144531 329.042969 C 429.796875 328.507812 430.472656 328.007812 431.175781 327.539062 C 431.878906 327.070312 432.601562 326.636719 433.34375 326.238281 C 434.089844 325.839844 434.851562 325.480469 435.632812 325.15625 C 436.410156 324.832031 437.207031 324.550781 438.011719 324.304688 C 438.820312 324.058594 439.640625 323.855469 440.464844 323.691406 C 441.292969 323.523438 442.128906 323.402344 442.96875 323.320312 C 443.808594 323.234375 444.652344 323.195312 445.496094 323.195312 Z M 445.496094 323.195312 " fill-opacity="1" fill-rule="nonzero"/><g clip-path="url(#25ede2a5b3)"><path fill="#ff7e2b" d="M 497.039062 459.421875 C 470.738281 459.421875 462.703125 455.894531 462.371094 455.738281 C 461.714844 455.441406 461.195312 454.988281 460.804688 454.378906 C 460.414062 453.773438 460.222656 453.109375 460.222656 452.390625 C 460.179688 450.46875 460.277344 448.554688 460.511719 446.648438 C 460.75 444.742188 461.121094 442.859375 461.628906 441.007812 C 462.136719 439.152344 462.777344 437.347656 463.546875 435.585938 C 464.316406 433.828125 465.210938 432.128906 466.226562 430.5 C 467.242188 428.867188 468.371094 427.320312 469.609375 425.851562 C 470.851562 424.386719 472.191406 423.015625 473.628906 421.742188 C 475.070312 420.46875 476.59375 419.304688 478.199219 418.253906 C 479.808594 417.203125 481.484375 416.269531 483.226562 415.460938 C 483.804688 415.207031 484.40625 415.109375 485.035156 415.167969 C 485.664062 415.226562 486.238281 415.433594 486.761719 415.785156 C 488.28125 416.8125 489.921875 417.59375 491.679688 418.128906 C 493.4375 418.664062 495.234375 418.929688 497.070312 418.921875 C 498.90625 418.925781 500.703125 418.664062 502.460938 418.128906 C 504.214844 417.59375 505.855469 416.8125 507.378906 415.785156 C 507.902344 415.433594 508.476562 415.230469 509.105469 415.171875 C 509.734375 415.117188 510.335938 415.214844 510.914062 415.46875 C 512.65625 416.277344 514.332031 417.210938 515.9375 418.261719 C 517.546875 419.3125 519.066406 420.476562 520.507812 421.75 C 521.945312 423.023438 523.285156 424.394531 524.527344 425.863281 C 525.765625 427.328125 526.894531 428.878906 527.910156 430.507812 C 528.925781 432.140625 529.816406 433.835938 530.585938 435.597656 C 531.359375 437.355469 531.996094 439.164062 532.503906 441.015625 C 533.011719 442.867188 533.382812 444.75 533.621094 446.65625 C 533.855469 448.5625 533.953125 450.476562 533.910156 452.398438 C 533.910156 452.757812 533.855469 453.113281 533.753906 453.457031 C 533.648438 453.804688 533.496094 454.128906 533.296875 454.429688 C 533.097656 454.730469 532.859375 454.996094 532.578125 455.226562 C 532.300781 455.457031 531.996094 455.644531 531.664062 455.785156 C 530.175781 456.386719 521.757812 459.421875 497.039062 459.421875 Z M 467.6875 449.679688 C 477.382812 451.566406 487.167969 452.359375 497.039062 452.058594 C 506.914062 452.363281 516.695312 451.574219 526.390625 449.6875 C 526.316406 448.316406 526.15625 446.957031 525.910156 445.605469 C 525.660156 444.253906 525.328125 442.925781 524.914062 441.617188 C 524.496094 440.308594 524 439.03125 523.421875 437.785156 C 522.84375 436.542969 522.1875 435.339844 521.457031 434.175781 C 520.726562 433.015625 519.921875 431.90625 519.050781 430.84375 C 518.175781 429.785156 517.242188 428.785156 516.242188 427.84375 C 515.242188 426.902344 514.1875 426.027344 513.074219 425.222656 C 511.964844 424.414062 510.804688 423.683594 509.601562 423.023438 C 505.699219 425.207031 501.511719 426.292969 497.039062 426.285156 C 492.570312 426.292969 488.382812 425.207031 484.476562 423.023438 C 483.273438 423.683594 482.117188 424.414062 481.003906 425.222656 C 479.894531 426.027344 478.839844 426.902344 477.839844 427.839844 C 476.835938 428.78125 475.902344 429.78125 475.027344 430.839844 C 474.15625 431.902344 473.351562 433.011719 472.621094 434.171875 C 471.890625 435.335938 471.234375 436.539062 470.65625 437.78125 C 470.074219 439.027344 469.578125 440.304688 469.160156 441.609375 C 468.746094 442.917969 468.414062 444.25 468.164062 445.597656 C 467.917969 446.949219 467.757812 448.308594 467.679688 449.679688 Z M 467.6875 449.679688 " fill-opacity="1" fill-rule="nonzero"/></g><path fill="#ff7e2b" d="M 497.039062 382.105469 C 496.4375 382.105469 495.835938 382.132812 495.234375 382.191406 C 494.636719 382.25 494.039062 382.339844 493.449219 382.457031 C 492.855469 382.574219 492.273438 382.722656 491.695312 382.894531 C 491.121094 383.070312 490.550781 383.273438 489.996094 383.503906 C 489.4375 383.734375 488.894531 383.992188 488.363281 384.277344 C 487.832031 384.5625 487.3125 384.871094 486.8125 385.207031 C 486.3125 385.542969 485.828125 385.898438 485.363281 386.28125 C 484.894531 386.664062 484.449219 387.070312 484.023438 387.496094 C 483.597656 387.921875 483.191406 388.367188 482.808594 388.835938 C 482.425781 389.300781 482.070312 389.785156 481.734375 390.285156 C 481.398438 390.785156 481.089844 391.304688 480.804688 391.835938 C 480.519531 392.367188 480.261719 392.910156 480.03125 393.46875 C 479.800781 394.023438 479.597656 394.59375 479.421875 395.167969 C 479.25 395.746094 479.101562 396.328125 478.984375 396.921875 C 478.867188 397.511719 478.777344 398.109375 478.71875 398.707031 C 478.660156 399.308594 478.632812 399.910156 478.632812 400.511719 C 478.632812 401.117188 478.660156 401.71875 478.71875 402.316406 C 478.777344 402.917969 478.867188 403.511719 478.984375 404.105469 C 479.101562 404.695312 479.25 405.28125 479.421875 405.855469 C 479.597656 406.433594 479.800781 407 480.03125 407.558594 C 480.261719 408.113281 480.519531 408.660156 480.804688 409.191406 C 481.089844 409.722656 481.398438 410.238281 481.734375 410.742188 C 482.070312 411.242188 482.425781 411.726562 482.808594 412.191406 C 483.191406 412.65625 483.597656 413.105469 484.023438 413.53125 C 484.449219 413.957031 484.894531 414.359375 485.363281 414.742188 C 485.828125 415.125 486.3125 415.484375 486.8125 415.820312 C 487.3125 416.15625 487.832031 416.464844 488.363281 416.75 C 488.894531 417.03125 489.4375 417.289062 489.996094 417.519531 C 490.550781 417.75 491.121094 417.953125 491.695312 418.128906 C 492.273438 418.304688 492.855469 418.449219 493.449219 418.566406 C 494.039062 418.6875 494.636719 418.773438 495.234375 418.832031 C 495.835938 418.890625 496.4375 418.921875 497.039062 418.921875 C 497.644531 418.921875 498.246094 418.890625 498.84375 418.832031 C 499.445312 418.773438 500.039062 418.6875 500.632812 418.566406 C 501.222656 418.449219 501.808594 418.304688 502.382812 418.128906 C 502.960938 417.953125 503.527344 417.75 504.085938 417.519531 C 504.640625 417.289062 505.1875 417.03125 505.71875 416.75 C 506.25 416.464844 506.765625 416.15625 507.265625 415.820312 C 507.769531 415.484375 508.253906 415.125 508.71875 414.742188 C 509.183594 414.359375 509.632812 413.957031 510.058594 413.53125 C 510.484375 413.105469 510.886719 412.65625 511.269531 412.191406 C 511.652344 411.726562 512.011719 411.242188 512.347656 410.742188 C 512.679688 410.238281 512.992188 409.722656 513.273438 409.191406 C 513.558594 408.660156 513.816406 408.113281 514.046875 407.558594 C 514.277344 407 514.480469 406.433594 514.65625 405.855469 C 514.832031 405.28125 514.976562 404.695312 515.09375 404.105469 C 515.214844 403.511719 515.300781 402.917969 515.359375 402.316406 C 515.417969 401.71875 515.449219 401.117188 515.449219 400.511719 C 515.449219 399.910156 515.417969 399.308594 515.359375 398.707031 C 515.300781 398.109375 515.214844 397.511719 515.09375 396.921875 C 514.976562 396.328125 514.832031 395.746094 514.65625 395.167969 C 514.480469 394.59375 514.277344 394.023438 514.046875 393.46875 C 513.816406 392.910156 513.558594 392.367188 513.273438 391.835938 C 512.992188 391.304688 512.679688 390.785156 512.347656 390.285156 C 512.011719 389.785156 511.652344 389.300781 511.269531 388.835938 C 510.886719 388.367188 510.484375 387.921875 510.058594 387.496094 C 509.632812 387.070312 509.183594 386.664062 508.71875 386.28125 C 508.253906 385.898438 507.769531 385.542969 507.265625 385.207031 C 506.765625 384.871094 506.25 384.5625 505.71875 384.277344 C 505.1875 383.992188 504.640625 383.734375 504.085938 383.503906 C 503.527344 383.273438 502.960938 383.070312 502.382812 382.894531 C 501.808594 382.722656 501.222656 382.574219 500.632812 382.457031 C 500.039062 382.339844 499.445312 382.25 498.84375 382.191406 C 498.246094 382.132812 497.644531 382.105469 497.039062 382.105469 M 497.039062 374.738281 C 497.882812 374.738281 498.726562 374.78125 499.566406 374.863281 C 500.40625 374.945312 501.238281 375.070312 502.066406 375.234375 C 502.894531 375.398438 503.714844 375.605469 504.519531 375.851562 C 505.328125 376.09375 506.121094 376.378906 506.902344 376.703125 C 507.683594 377.023438 508.445312 377.386719 509.1875 377.785156 C 509.933594 378.179688 510.65625 378.613281 511.359375 379.082031 C 512.058594 379.550781 512.738281 380.054688 513.390625 380.589844 C 514.042969 381.125 514.667969 381.691406 515.265625 382.289062 C 515.859375 382.886719 516.425781 383.511719 516.960938 384.164062 C 517.5 384.816406 518 385.492188 518.46875 386.195312 C 518.9375 386.894531 519.371094 387.621094 519.769531 388.363281 C 520.167969 389.109375 520.527344 389.871094 520.851562 390.648438 C 521.175781 391.429688 521.457031 392.222656 521.703125 393.03125 C 521.949219 393.839844 522.152344 394.65625 522.316406 395.484375 C 522.480469 396.3125 522.605469 397.148438 522.6875 397.988281 C 522.769531 398.828125 522.8125 399.667969 522.8125 400.511719 C 522.8125 401.355469 522.769531 402.199219 522.6875 403.039062 C 522.605469 403.878906 522.480469 404.714844 522.316406 405.539062 C 522.152344 406.367188 521.949219 407.1875 521.703125 407.996094 C 521.457031 408.800781 521.175781 409.597656 520.851562 410.375 C 520.527344 411.15625 520.167969 411.917969 519.769531 412.660156 C 519.371094 413.40625 518.9375 414.128906 518.46875 414.832031 C 518 415.53125 517.5 416.210938 516.960938 416.863281 C 516.425781 417.515625 515.859375 418.140625 515.265625 418.738281 C 514.667969 419.332031 514.042969 419.898438 513.390625 420.433594 C 512.738281 420.972656 512.058594 421.472656 511.359375 421.941406 C 510.65625 422.410156 509.933594 422.84375 509.1875 423.242188 C 508.445312 423.640625 507.683594 424 506.902344 424.324219 C 506.121094 424.648438 505.328125 424.929688 504.519531 425.175781 C 503.714844 425.421875 502.894531 425.625 502.066406 425.789062 C 501.238281 425.953125 500.40625 426.078125 499.566406 426.160156 C 498.726562 426.242188 497.882812 426.285156 497.039062 426.285156 C 496.195312 426.285156 495.355469 426.242188 494.515625 426.160156 C 493.671875 426.078125 492.839844 425.953125 492.011719 425.789062 C 491.183594 425.625 490.367188 425.421875 489.558594 425.175781 C 488.75 424.929688 487.957031 424.648438 487.175781 424.324219 C 486.398438 424 485.636719 423.640625 484.890625 423.242188 C 484.144531 422.84375 483.421875 422.410156 482.722656 421.941406 C 482.019531 421.472656 481.34375 420.972656 480.691406 420.433594 C 480.039062 419.898438 479.414062 419.332031 478.816406 418.738281 C 478.21875 418.140625 477.652344 417.515625 477.117188 416.863281 C 476.582031 416.210938 476.078125 415.53125 475.609375 414.832031 C 475.140625 414.128906 474.707031 413.40625 474.308594 412.660156 C 473.914062 411.917969 473.550781 411.15625 473.230469 410.375 C 472.90625 409.597656 472.621094 408.800781 472.378906 407.996094 C 472.132812 407.1875 471.925781 406.367188 471.761719 405.539062 C 471.597656 404.714844 471.472656 403.878906 471.390625 403.039062 C 471.308594 402.199219 471.265625 401.355469 471.265625 400.511719 C 471.265625 399.667969 471.308594 398.828125 471.390625 397.988281 C 471.472656 397.148438 471.597656 396.3125 471.761719 395.484375 C 471.925781 394.65625 472.132812 393.839844 472.378906 393.03125 C 472.621094 392.222656 472.90625 391.429688 473.230469 390.648438 C 473.550781 389.871094 473.914062 389.109375 474.308594 388.363281 C 474.707031 387.621094 475.140625 386.894531 475.609375 386.195312 C 476.078125 385.492188 476.582031 384.816406 477.117188 384.164062 C 477.652344 383.511719 478.21875 382.886719 478.816406 382.289062 C 479.414062 381.691406 480.039062 381.125 480.691406 380.589844 C 481.34375 380.054688 482.019531 379.550781 482.722656 379.082031 C 483.421875 378.613281 484.144531 378.179688 484.890625 377.785156 C 485.636719 377.386719 486.398438 377.023438 487.175781 376.703125 C 487.957031 376.378906 488.75 376.09375 489.558594 375.851562 C 490.367188 375.605469 491.183594 375.398438 492.011719 375.234375 C 492.839844 375.070312 493.671875 374.945312 494.515625 374.863281 C 495.355469 374.78125 496.195312 374.738281 497.039062 374.738281 Z M 497.039062 374.738281 " fill-opacity="1" fill-rule="nonzero"/><g clip-path="url(#f7850a539a)"><path fill="#ff7e2b" d="M 501.855469 360.75 L 489.226562 335.917969 C 488.480469 335.796875 487.738281 335.644531 487.003906 335.457031 C 486.269531 335.269531 485.546875 335.050781 484.832031 334.800781 C 484.117188 334.550781 483.414062 334.269531 482.722656 333.957031 C 482.035156 333.644531 481.359375 333.300781 480.699219 332.929688 C 480.039062 332.558594 479.398438 332.15625 478.773438 331.726562 C 478.148438 331.300781 477.542969 330.84375 476.960938 330.363281 C 476.375 329.878906 475.8125 329.371094 475.273438 328.839844 C 474.734375 328.308594 474.21875 327.753906 473.726562 327.179688 C 473.238281 326.601562 472.773438 326.003906 472.332031 325.386719 C 471.894531 324.769531 471.484375 324.132812 471.105469 323.476562 C 470.722656 322.824219 470.367188 322.15625 470.046875 321.46875 C 469.722656 320.785156 469.429688 320.085938 469.167969 319.375 C 468.90625 318.664062 468.679688 317.941406 468.480469 317.210938 C 468.28125 316.480469 468.117188 315.742188 467.984375 314.996094 C 467.851562 314.25 467.75 313.5 467.683594 312.746094 C 467.617188 311.992188 467.585938 311.234375 467.585938 310.476562 L 467.585938 301.105469 C 467.585938 300.257812 467.625 299.417969 467.710938 298.578125 C 467.792969 297.738281 467.914062 296.902344 468.082031 296.074219 C 468.246094 295.246094 468.449219 294.429688 468.695312 293.621094 C 468.941406 292.816406 469.222656 292.019531 469.546875 291.242188 C 469.871094 290.460938 470.230469 289.699219 470.628906 288.953125 C 471.027344 288.210938 471.460938 287.488281 471.929688 286.785156 C 472.398438 286.082031 472.898438 285.40625 473.4375 284.753906 C 473.972656 284.101562 474.539062 283.476562 475.132812 282.878906 C 475.730469 282.28125 476.355469 281.714844 477.007812 281.179688 C 477.660156 280.644531 478.335938 280.144531 479.039062 279.675781 C 479.742188 279.207031 480.464844 278.773438 481.210938 278.375 C 481.953125 277.976562 482.714844 277.617188 483.496094 277.292969 C 484.273438 276.96875 485.070312 276.6875 485.875 276.441406 C 486.683594 276.195312 487.503906 275.992188 488.332031 275.828125 C 489.15625 275.660156 489.992188 275.539062 490.832031 275.453125 C 491.671875 275.371094 492.515625 275.332031 493.359375 275.332031 L 537.539062 275.332031 C 538.382812 275.332031 539.226562 275.371094 540.066406 275.453125 C 540.90625 275.539062 541.738281 275.660156 542.566406 275.828125 C 543.394531 275.992188 544.214844 276.195312 545.019531 276.441406 C 545.828125 276.6875 546.621094 276.96875 547.402344 277.292969 C 548.183594 277.617188 548.945312 277.976562 549.6875 278.375 C 550.433594 278.773438 551.15625 279.207031 551.859375 279.675781 C 552.558594 280.144531 553.238281 280.644531 553.890625 281.179688 C 554.542969 281.714844 555.167969 282.28125 555.765625 282.878906 C 556.359375 283.476562 556.925781 284.101562 557.460938 284.753906 C 558 285.40625 558.5 286.082031 558.96875 286.785156 C 559.4375 287.488281 559.871094 288.210938 560.269531 288.953125 C 560.667969 289.699219 561.027344 290.460938 561.351562 291.242188 C 561.675781 292.019531 561.957031 292.816406 562.203125 293.621094 C 562.449219 294.429688 562.652344 295.246094 562.816406 296.074219 C 562.980469 296.902344 563.105469 297.738281 563.1875 298.578125 C 563.269531 299.417969 563.3125 300.257812 563.3125 301.105469 L 563.3125 310.476562 C 563.3125 311.320312 563.269531 312.164062 563.1875 313.003906 C 563.105469 313.84375 562.980469 314.679688 562.816406 315.503906 C 562.652344 316.332031 562.449219 317.152344 562.203125 317.960938 C 561.957031 318.765625 561.675781 319.5625 561.351562 320.339844 C 561.027344 321.121094 560.667969 321.882812 560.269531 322.625 C 559.871094 323.371094 559.4375 324.09375 558.96875 324.796875 C 558.5 325.496094 558 326.175781 557.460938 326.828125 C 556.925781 327.480469 556.359375 328.105469 555.765625 328.703125 C 555.167969 329.296875 554.542969 329.863281 553.890625 330.398438 C 553.238281 330.9375 552.558594 331.4375 551.859375 331.90625 C 551.15625 332.375 550.433594 332.808594 549.6875 333.207031 C 548.945312 333.605469 548.183594 333.964844 547.402344 334.289062 C 546.621094 334.613281 545.828125 334.894531 545.019531 335.140625 C 544.214844 335.386719 543.394531 335.589844 542.566406 335.753906 C 541.738281 335.917969 540.90625 336.042969 540.066406 336.125 C 539.226562 336.207031 538.382812 336.25 537.539062 336.25 L 514.308594 336.25 Z M 493.359375 282.695312 C 492.753906 282.695312 492.152344 282.722656 491.554688 282.785156 C 490.953125 282.84375 490.359375 282.929688 489.765625 283.046875 C 489.175781 283.164062 488.589844 283.3125 488.015625 283.488281 C 487.4375 283.664062 486.871094 283.863281 486.3125 284.097656 C 485.757812 284.328125 485.210938 284.585938 484.679688 284.867188 C 484.148438 285.152344 483.632812 285.460938 483.128906 285.796875 C 482.628906 286.132812 482.144531 286.492188 481.679688 286.875 C 481.214844 287.253906 480.765625 287.660156 480.339844 288.085938 C 479.914062 288.511719 479.511719 288.960938 479.128906 289.425781 C 478.746094 289.890625 478.386719 290.375 478.050781 290.875 C 477.714844 291.378906 477.40625 291.894531 477.121094 292.425781 C 476.839844 292.957031 476.582031 293.5 476.351562 294.058594 C 476.121094 294.617188 475.917969 295.183594 475.742188 295.761719 C 475.566406 296.335938 475.421875 296.921875 475.304688 297.511719 C 475.183594 298.105469 475.097656 298.699219 475.039062 299.300781 C 474.980469 299.898438 474.949219 300.5 474.949219 301.105469 L 474.949219 310.476562 C 474.953125 311.625 475.0625 312.757812 475.277344 313.882812 C 475.492188 315.007812 475.8125 316.105469 476.230469 317.171875 C 476.648438 318.238281 477.164062 319.253906 477.769531 320.226562 C 478.378906 321.195312 479.074219 322.105469 479.851562 322.945312 C 480.625 323.789062 481.476562 324.550781 482.394531 325.234375 C 483.3125 325.917969 484.285156 326.511719 485.316406 327.015625 C 486.34375 327.519531 487.410156 327.921875 488.515625 328.226562 C 489.621094 328.53125 490.742188 328.730469 491.886719 328.828125 L 493.949219 328.988281 L 501.847656 344.550781 L 509.785156 328.886719 L 537.539062 328.886719 C 538.144531 328.886719 538.746094 328.855469 539.34375 328.796875 C 539.945312 328.738281 540.539062 328.652344 541.132812 328.53125 C 541.722656 328.414062 542.308594 328.269531 542.882812 328.09375 C 543.460938 327.917969 544.027344 327.714844 544.585938 327.484375 C 545.140625 327.253906 545.6875 326.996094 546.21875 326.714844 C 546.75 326.429688 547.265625 326.121094 547.765625 325.785156 C 548.269531 325.449219 548.753906 325.089844 549.21875 324.707031 C 549.683594 324.324219 550.132812 323.921875 550.558594 323.496094 C 550.984375 323.070312 551.386719 322.621094 551.769531 322.15625 C 552.152344 321.691406 552.511719 321.207031 552.847656 320.707031 C 553.179688 320.203125 553.492188 319.6875 553.773438 319.15625 C 554.058594 318.625 554.316406 318.078125 554.546875 317.523438 C 554.777344 316.964844 554.980469 316.398438 555.15625 315.820312 C 555.332031 315.246094 555.476562 314.660156 555.59375 314.070312 C 555.714844 313.476562 555.800781 312.882812 555.859375 312.28125 C 555.917969 311.683594 555.949219 311.082031 555.949219 310.476562 L 555.949219 301.105469 C 555.949219 300.5 555.917969 299.898438 555.859375 299.300781 C 555.800781 298.699219 555.714844 298.105469 555.59375 297.511719 C 555.476562 296.921875 555.332031 296.335938 555.15625 295.761719 C 554.980469 295.183594 554.777344 294.617188 554.546875 294.058594 C 554.316406 293.5 554.058594 292.957031 553.773438 292.425781 C 553.492188 291.894531 553.179688 291.378906 552.847656 290.875 C 552.511719 290.375 552.152344 289.890625 551.769531 289.425781 C 551.386719 288.960938 550.984375 288.511719 550.558594 288.085938 C 550.132812 287.660156 549.683594 287.253906 549.21875 286.875 C 548.753906 286.492188 548.269531 286.132812 547.765625 285.796875 C 547.265625 285.460938 546.75 285.152344 546.21875 284.867188 C 545.6875 284.585938 545.140625 284.328125 544.585938 284.097656 C 544.027344 283.863281 543.460938 283.664062 542.882812 283.488281 C 542.308594 283.3125 541.722656 283.164062 541.132812 283.046875 C 540.539062 282.929688 539.945312 282.84375 539.34375 282.785156 C 538.746094 282.722656 538.144531 282.695312 537.539062 282.695312 Z M 493.359375 282.695312 " fill-opacity="1" fill-rule="nonzero"/></g></svg>