<?xml version="1.0" encoding="iso-8859-1"?>
<!-- Uploaded to: SVG Repo, www.svgrepo.com, Generator: SVG Repo Mixer Tools -->
<svg height="800px" width="800px" version="1.1" id="Capa_1" xmlns="http://www.w3.org/2000/svg" xmlns:xlink="http://www.w3.org/1999/xlink" 
	 viewBox="0 0 512 512" xml:space="preserve">
<path style="fill:#DA50A1;" d="M212.826,443.372l-23.784-107.019c-2.556-11.5-13.948-18.756-25.452-16.198
	c-8.914,1.981-15.252,9.276-16.472,17.81l-44.462-6.353l-1.748-7.852c-2.554-11.499-13.946-18.753-25.451-16.196
	c-11.502,2.556-18.755,13.953-16.198,25.452L85.84,452.625c2.17,9.764,10.827,16.708,20.826,16.708H192
	c6.47,0,12.591-2.937,16.641-7.986C212.691,456.3,214.229,449.687,212.826,443.372z"/>
<path style="fill:#D4CBF6;" d="M333.978,76.328c-4.671-4.052-10.866-5.878-16.994-5.002L18.317,113.993
	C7.807,115.493,0,124.494,0,135.111V320c0,10.617,7.807,19.617,18.317,21.119l298.667,42.667c1.006,0.144,2.014,0.215,3.017,0.215
	c5.102,0,10.074-1.832,13.978-5.217c4.672-4.053,7.356-9.933,7.356-16.117V92.443C341.333,86.261,338.65,80.381,333.978,76.328z"/>
<path style="fill:#F4C514;" d="M490.667,156.444c-11.782,0-21.333,9.552-21.333,21.333v99.556c0,11.78,9.552,21.333,21.333,21.333
	c11.78,0,21.333-9.553,21.333-21.333v-99.556C512,165.996,502.447,156.444,490.667,156.444z"/>
<path style="fill:#AB99EC;" d="M333.978,76.328c-4.671-4.052-10.866-5.878-16.994-5.002L18.317,113.993
	C7.807,115.493,0,124.494,0,135.111v92.442h341.333V92.443C341.333,86.261,338.65,80.381,333.978,76.328z"/>
<path style="fill:#DC73AE;" d="M405.333,42.667H320c-11.782,0-21.333,9.552-21.333,21.333v327.111
	c0,11.78,9.552,21.333,21.333,21.333h85.333c11.78,0,21.333-9.553,21.333-21.333V64C426.667,52.218,417.114,42.667,405.333,42.667z"
	/>
<path style="fill:#E9D535;" d="M512,177.778c0-11.782-9.553-21.333-21.333-21.333c-11.782,0-21.333,9.552-21.333,21.333v49.775H512
	V177.778z"/>
<path style="fill:#DA50A1;" d="M426.667,64c0-11.782-9.553-21.333-21.333-21.333H320c-11.782,0-21.333,9.552-21.333,21.333v163.553
	h128V64z"/>
</svg>