<?xml version="1.0" encoding="iso-8859-1"?>
<!-- Uploaded to: SVG Repo, www.svgrepo.com, Generator: SVG Repo Mixer Tools -->
<svg height="800px" width="800px" version="1.1" id="Layer_1" xmlns="http://www.w3.org/2000/svg" xmlns:xlink="http://www.w3.org/1999/xlink" 
	 viewBox="0 0 512.001 512.001" xml:space="preserve">
<path style="fill:#FFF082;" d="M256,158.688C227.469,230.587,143.772,309.06,87.914,355.749v103.725h336.173V355.749
	C368.229,309.06,284.532,230.587,256,158.688z"/>
<path style="fill:#FF5050;" d="M256,70.221v53.08l76.292-22.887c3.623-1.087,3.623-6.218,0-7.304L256,70.221z"/>
<path style="fill:#464655;" d="M353.314,459.474c0,0-70.773-88.467-97.313-176.933c-26.54,88.467-97.313,176.933-97.313,176.933"/>
<path style="fill:#FFDC64;" d="M256,158.688C227.469,230.587,143.772,309.06,87.914,355.749v34.419
	C133.893,353.142,210.92,285.53,256,215.4c45.08,70.129,122.107,137.742,168.086,174.768v-34.419
	C368.229,309.06,284.532,230.587,256,158.688z"/>
<path d="M503.359,451.18h-17.899v-79.826c0-4.542-3.499-8.502-8.038-8.638c-4.696-0.142-8.549,3.625-8.549,8.29v9.975
	c-16.69-12.758-47.289-36.993-80.087-67.168c-61.449-56.532-103.691-109.063-122.656-152.417c-1.22-2.788-1.837-5.797-1.837-8.84
	v-23.279l73.949-24.65c3.386-1.128,5.671-4.297,5.671-7.867c0-3.57-2.285-6.739-5.671-7.868l-73.949-24.65V52.875
	c0-4.542-3.499-8.502-8.038-8.638c-4.698-0.14-8.549,3.625-8.549,8.29v100.029c0,3.043-0.617,6.051-1.837,8.839
	c-18.95,43.32-61.144,95.806-122.516,152.29c-32.826,30.211-63.503,54.511-80.226,67.294v-9.625c0-4.542-3.499-8.502-8.038-8.638
	c-4.698-0.14-8.549,3.625-8.549,8.29v80.173H8.641c-4.542,0-8.502,3.499-8.638,8.038c-0.14,4.698,3.625,8.549,8.29,8.549h495.413
	c4.665,0,8.431-3.852,8.29-8.549C511.86,454.679,507.9,451.18,503.359,451.18z M468.873,451.18h-36.492v-77.857
	c17.254,14.004,30.53,24.006,36.492,28.424V451.18z M309.393,96.761l-45.099,15.033V81.728L309.393,96.761z M134.445,326.021
	c52.222-48.044,90.164-92.232,113.261-131.839v52.973c0,4.58,3.713,8.294,8.294,8.294s8.294-3.713,8.294-8.294v-52.972
	c23.098,39.606,61.04,83.796,113.261,131.839c13.352,12.284,26.354,23.604,38.237,33.597v91.561h-58.425
	c-12.538-16.321-70.384-94.227-93.423-171.022h-0.001c-1.024-3.418-4.191-5.911-7.942-5.911c-3.751,0-6.918,2.493-7.942,5.911
	h-0.001c-23.02,76.727-80.888,154.694-93.426,171.022H96.208v-91.562C108.091,349.625,121.093,338.306,134.445,326.021z
	 M264.294,328.537c23.278,53.088,55.854,100.333,72.289,122.643h-72.289V328.537z M247.707,451.18h-72.289
	c16.434-22.31,49.01-69.556,72.289-122.643V451.18z M43.128,401.747c5.963-4.418,19.238-14.42,36.492-28.424v77.857H43.128V401.747z
	"/>
</svg>