<svg xmlns="http://www.w3.org/2000/svg" xmlns:xlink="http://www.w3.org/1999/xlink" width="1080" zoomAndPan="magnify" viewBox="0 0 810 809.999993" height="1080" preserveAspectRatio="xMidYMid meet" version="1.0"><defs><clipPath id="311cf74caa"><path d="M 166.113281 81 L 643.886719 81 L 643.886719 558.773438 L 166.113281 558.773438 Z M 166.113281 81 " clip-rule="nonzero"/></clipPath><clipPath id="3a663af95a"><path d="M 405 81 C 273.066406 81 166.113281 187.953125 166.113281 319.886719 C 166.113281 451.820312 273.066406 558.773438 405 558.773438 C 536.933594 558.773438 643.886719 451.820312 643.886719 319.886719 C 643.886719 187.953125 536.933594 81 405 81 Z M 405 81 " clip-rule="nonzero"/></clipPath><clipPath id="34afb4ce02"><path d="M 123 32.746094 L 687 32.746094 L 687 777.496094 L 123 777.496094 Z M 123 32.746094 " clip-rule="nonzero"/></clipPath><clipPath id="9f38a1c387"><path d="M 250.640625 188 L 408.875 188 L 408.875 475.867188 L 250.640625 475.867188 Z M 250.640625 188 " clip-rule="nonzero"/></clipPath><clipPath id="9f53fa7c30"><path d="M 310 169.246094 L 328 169.246094 L 328 191 L 310 191 Z M 310 169.246094 " clip-rule="nonzero"/></clipPath><clipPath id="6146250489"><path d="M 401.117188 188 L 559.355469 188 L 559.355469 475.867188 L 401.117188 475.867188 Z M 401.117188 188 " clip-rule="nonzero"/></clipPath><clipPath id="6de63957ad"><path d="M 482 169.246094 L 500 169.246094 L 500 191 L 482 191 Z M 482 169.246094 " clip-rule="nonzero"/></clipPath></defs><g clip-path="url(#311cf74caa)"><g clip-path="url(#3a663af95a)"><path fill="#ffffff" d="M 166.113281 81 L 643.886719 81 L 643.886719 558.773438 L 166.113281 558.773438 Z M 166.113281 81 " fill-opacity="1" fill-rule="nonzero"/></g></g><g clip-path="url(#34afb4ce02)"><path fill="#575252" d="M 686.882812 314.050781 C 686.597656 158.429688 560.191406 32.492188 404.574219 32.789062 C 248.957031 33.09375 123.046875 159.492188 123.324219 315.109375 C 123.433594 369.082031 139.75 418.820312 165.085938 462.25 C 222.328125 560.347656 405.984375 777.042969 405.984375 777.042969 C 405.984375 777.042969 591.347656 556.4375 647.773438 457.820312 C 672.066406 415.324219 687 366.53125 686.882812 314.050781 Z M 404.691406 97.863281 C 524.40625 97.632812 621.59375 194.488281 621.828125 314.175781 C 622.050781 433.851562 525.222656 531.078125 405.5 531.320312 C 285.839844 531.519531 188.632812 434.679688 188.398438 314.992188 C 188.164062 195.304688 284.996094 98.078125 404.691406 97.863281 Z M 404.691406 97.863281 " fill-opacity="1" fill-rule="nonzero"/></g><path fill="#575252" d="M 325.449219 183.964844 C 325.449219 183.964844 328.734375 182.570312 332.015625 181.179688 C 335.386719 180.074219 338.757812 178.972656 338.757812 178.972656 C 338.757812 178.972656 335.46875 180.304688 332.179688 181.636719 C 329 183.246094 325.824219 184.855469 325.824219 184.855469 C 327.089844 185.140625 328.484375 185.207031 329.921875 185.03125 C 330.644531 184.949219 331.378906 184.800781 332.109375 184.585938 C 332.480469 184.484375 332.851562 184.359375 333.21875 184.222656 C 333.597656 184.117188 333.980469 183.996094 334.359375 183.859375 C 337.738281 182.632812 340.351562 180.367188 341.871094 177.839844 C 339.398438 176.765625 335.914062 176.761719 332.363281 178.058594 C 331.964844 178.203125 331.578125 178.359375 331.203125 178.527344 C 330.835938 178.730469 330.480469 178.945312 330.136719 179.167969 C 329.449219 179.613281 328.8125 180.097656 328.226562 180.613281 C 327.058594 181.640625 326.113281 182.78125 325.449219 183.964844 " fill-opacity="1" fill-rule="nonzero"/><path fill="#575252" d="M 266.929688 300.4375 C 265.765625 302.613281 264.5625 304.851562 263.417969 307.160156 C 262.410156 309.46875 261.308594 311.847656 260.363281 314.28125 C 259.484375 316.710938 258.449219 319.222656 257.691406 321.769531 C 260.089844 321.082031 262.316406 319.695312 264.421875 317.730469 C 266.527344 315.769531 268.261719 313.257812 269.898438 310.234375 C 271.507812 306.941406 272.957031 303.433594 273.613281 299.828125 C 273.804688 298.929688 273.875 298.015625 274.054688 297.109375 C 274.230469 296.207031 274.371094 295.296875 274.464844 294.386719 C 274.664062 292.5625 274.707031 290.726562 274.59375 288.886719 C 271.902344 288.46875 269.132812 288.867188 266.480469 290.242188 C 265.148438 290.925781 263.847656 291.855469 262.601562 293.042969 C 261.980469 293.632812 261.371094 294.285156 260.777344 295.003906 C 260.175781 295.722656 259.597656 296.503906 259.140625 297.359375 C 257.429688 300.46875 256.070312 304.136719 255.449219 308.007812 C 255.191406 309.9375 255.042969 311.921875 255.050781 313.902344 C 255.132812 315.878906 255.335938 317.851562 255.65625 319.777344 C 256.742188 317.359375 257.769531 315.019531 258.917969 312.742188 C 260.132812 310.464844 261.246094 308.253906 262.535156 306.117188 C 263.863281 303.980469 265.1875 301.914062 266.5 299.910156 C 267.164062 298.914062 267.800781 297.929688 268.472656 296.960938 L 270.679688 294.136719 C 270.015625 295.148438 269.328125 296.175781 268.671875 297.226562 L 266.929688 300.4375 " fill-opacity="1" fill-rule="nonzero"/><path fill="#575252" d="M 256.941406 280.914062 C 256.742188 281.804688 256.570312 282.703125 256.425781 283.601562 C 256.273438 284.503906 256.164062 285.40625 256.175781 286.324219 C 256.828125 285.359375 257.613281 284.4375 258.375 283.523438 L 260.648438 280.832031 C 262.1875 279.074219 263.597656 277.34375 265.195312 275.722656 C 266.835938 274.117188 268.453125 272.566406 270.058594 271.070312 L 272.449219 268.875 C 273.273438 268.167969 274.167969 267.5 275.015625 266.835938 C 274.21875 267.609375 273.335938 268.363281 272.589844 269.179688 L 270.339844 271.675781 C 268.835938 273.363281 267.277344 275.09375 265.765625 276.902344 L 261.582031 282.585938 L 259.460938 285.554688 C 258.8125 286.574219 258.203125 287.609375 257.570312 288.660156 C 259.875 288.648438 262.203125 287.964844 264.398438 286.695312 C 266.707031 285.445312 268.964844 283.632812 270.945312 281.273438 C 275.332031 276.09375 278.382812 269.722656 279.609375 262.976562 C 277.28125 261.949219 274.707031 261.667969 272.027344 262.296875 C 270.6875 262.609375 269.324219 263.148438 267.953125 263.929688 C 266.609375 264.71875 265.152344 265.707031 263.976562 267.042969 C 261.796875 269.425781 259.796875 272.378906 258.460938 275.703125 C 257.847656 277.382812 257.339844 279.128906 256.941406 280.914062 " fill-opacity="1" fill-rule="nonzero"/><path fill="#575252" d="M 302.765625 220.878906 C 301.316406 219.234375 299.410156 218.039062 297.109375 217.476562 C 294.886719 216.996094 292.308594 217.195312 289.460938 218.207031 C 288.1875 218.660156 286.902344 219.234375 285.691406 219.96875 C 284.539062 220.753906 283.421875 221.660156 282.355469 222.664062 C 280.234375 224.671875 278.257812 227 276.964844 229.746094 C 280.3125 227.9375 284.019531 226.636719 287.433594 225.304688 L 290.007812 224.351562 C 290.859375 224.042969 291.785156 223.820312 292.660156 223.5625 L 297.886719 222.160156 C 294.46875 223.421875 290.808594 224.671875 287.457031 226.433594 L 282.222656 229.027344 C 280.480469 229.949219 278.863281 231.015625 277.140625 232.050781 C 278.871094 232.992188 280.875 233.421875 283 233.355469 C 284.070312 233.328125 285.144531 233.152344 286.285156 232.890625 C 287.449219 232.65625 288.636719 232.296875 289.832031 231.8125 C 294.984375 229.570312 299.53125 225.621094 302.765625 220.878906 " fill-opacity="1" fill-rule="nonzero"/><path fill="#575252" d="M 326.4375 198.027344 C 327.003906 197.929688 327.5625 197.808594 328.113281 197.65625 C 328.679688 197.527344 329.257812 197.417969 329.816406 197.257812 C 332.070312 196.644531 334.199219 195.628906 336.101562 194.273438 C 334.816406 190.851562 331.660156 188.351562 326.78125 187.949219 C 325.695312 187.878906 324.546875 187.84375 323.457031 188.042969 C 322.367188 188.242188 321.269531 188.542969 320.1875 188.933594 C 318.035156 189.730469 315.882812 190.769531 314.054688 192.242188 C 314.054688 192.242188 314.335938 192.230469 314.835938 192.214844 C 315.347656 192.230469 316.078125 192.257812 316.949219 192.285156 C 318.691406 192.359375 320.980469 192.472656 323.203125 192.621094 C 324.320312 192.703125 325.410156 192.746094 326.449219 192.875 C 327.492188 193.03125 328.464844 193.179688 329.296875 193.308594 C 330.933594 193.578125 332.019531 193.757812 332.019531 193.757812 C 332.019531 193.757812 330.886719 193.675781 329.1875 193.566406 C 328.332031 193.511719 327.316406 193.4375 326.234375 193.398438 C 325.164062 193.425781 324.023438 193.457031 322.886719 193.484375 C 320.535156 193.574219 318.1875 193.667969 316.425781 193.734375 C 315.511719 193.757812 314.816406 193.90625 314.296875 193.953125 C 313.785156 194.019531 313.492188 194.054688 313.492188 194.054688 C 314.472656 195.359375 315.8125 196.375 317.402344 197.042969 C 319.035156 197.78125 320.941406 198.230469 323.019531 198.269531 C 324.164062 198.308594 325.308594 198.226562 326.4375 198.027344 " fill-opacity="1" fill-rule="nonzero"/><path fill="#575252" d="M 318.679688 205.585938 C 316.617188 202.195312 312.558594 199.992188 307.230469 200.636719 C 304.84375 201.03125 302.429688 201.945312 300.140625 203.238281 C 298.976562 203.847656 297.929688 204.667969 296.953125 205.578125 C 295.960938 206.476562 295.027344 207.445312 294.167969 208.464844 C 297.59375 207.722656 300.800781 206.925781 304.21875 206.625 L 309.164062 206.09375 L 311.582031 205.867188 C 312.402344 205.828125 313.242188 205.832031 314.058594 205.816406 C 313.203125 205.878906 312.308594 205.898438 311.460938 206.007812 L 308.917969 206.371094 L 303.695312 207.191406 C 302.820312 207.34375 301.910156 207.46875 301.039062 207.664062 L 298.453125 208.316406 L 293.164062 209.734375 L 298.453125 208.316406 L 301.042969 207.667969 C 301.910156 207.46875 302.824219 207.347656 303.699219 207.195312 L 308.925781 206.386719 L 311.476562 206.03125 C 312.324219 205.925781 313.222656 205.910156 314.078125 205.851562 C 307.433594 206.671875 300.699219 208.1875 293.910156 210.503906 C 296.636719 212.882812 300.683594 213.773438 305.152344 212.785156 C 307.714844 212.378906 310.167969 211.515625 312.394531 210.214844 C 312.957031 209.894531 313.492188 209.527344 314.035156 209.171875 C 314.59375 208.84375 315.144531 208.496094 315.675781 208.121094 C 316.742188 207.371094 317.746094 206.523438 318.679688 205.585938 " fill-opacity="1" fill-rule="nonzero"/><path fill="#575252" d="M 276.792969 247.757812 C 275.917969 248.359375 275.050781 248.980469 274.269531 249.660156 L 269.351562 253.789062 C 268.535156 254.5 267.667969 255.203125 266.871094 255.953125 L 264.554688 258.28125 C 266.605469 258.851562 268.820312 258.796875 271.042969 258.179688 C 273.296875 257.566406 275.746094 256.484375 278.015625 254.820312 C 279.285156 253.910156 280.382812 252.84375 281.507812 251.753906 C 282.671875 250.6875 283.730469 249.523438 284.683594 248.277344 C 285.660156 247.050781 286.414062 245.648438 287.269531 244.324219 C 288.117188 242.996094 288.847656 241.589844 289.464844 240.117188 C 287.535156 238.710938 285.253906 237.890625 282.710938 237.855469 C 280.175781 237.828125 277.296875 238.53125 274.625 240.394531 C 273.375 241.214844 272.167969 242.183594 271.027344 243.273438 C 270.453125 243.820312 269.898438 244.390625 269.359375 244.996094 C 268.828125 245.601562 268.390625 246.28125 267.933594 246.953125 C 267.039062 248.316406 266.222656 249.765625 265.5 251.265625 C 264.796875 252.777344 264.105469 254.296875 263.753906 255.945312 C 265.308594 254.523438 267.171875 253.292969 268.851562 252.039062 C 270.570312 250.800781 272.261719 249.609375 273.9375 248.464844 C 275.679688 247.359375 277.5 246.355469 279.238281 245.367188 C 281.011719 244.402344 282.664062 243.417969 284.460938 242.59375 C 282.707031 243.621094 281.097656 244.808594 279.371094 245.96875 L 276.792969 247.757812 " fill-opacity="1" fill-rule="nonzero"/><path fill="#575252" d="M 359.492188 422.960938 C 360.828125 424.867188 362.527344 426.542969 364.554688 428.191406 C 366.386719 429.648438 368.429688 430.789062 370.597656 431.832031 C 371.851562 432.316406 373.3125 432.71875 374.660156 433.089844 C 376.054688 433.492188 377.371094 433.71875 378.839844 434.121094 C 381.773438 434.730469 384.648438 435.871094 387.375 437.25 C 388.761719 437.902344 390.039062 438.777344 391.359375 439.558594 C 392.601562 440.476562 393.898438 441.308594 395.074219 442.316406 C 395.074219 442.316406 394.792969 441.558594 394.199219 440.261719 C 393.5625 439.019531 392.648438 437.152344 391.214844 435.128906 C 389.808594 433.0625 387.878906 430.886719 385.480469 428.789062 C 384.257812 427.871094 382.960938 426.722656 381.523438 425.933594 C 380.804688 425.5 380.082031 425.058594 379.351562 424.617188 L 377.308594 423.503906 C 375.878906 422.757812 374.453125 422.011719 373.046875 421.273438 L 371.957031 420.722656 L 371.414062 420.449219 C 371.265625 420.355469 371.183594 420.257812 371.066406 420.167969 C 370.632812 419.796875 370.207031 419.429688 369.789062 419.070312 C 368.128906 417.597656 366.625 416.367188 365.394531 415.097656 C 364.191406 413.882812 363.1875 412.875 362.488281 412.167969 C 361.796875 411.484375 361.425781 411.039062 361.425781 411.039062 C 361.425781 411.039062 361.839844 411.449219 362.597656 412.070312 C 363.367188 412.710938 364.472656 413.628906 365.796875 414.730469 C 367.148438 415.84375 368.78125 416.96875 370.589844 418.289062 L 371.273438 418.78125 L 371.449219 418.90625 L 371.75 419.027344 L 372.347656 419.273438 C 373.128906 419.597656 373.925781 419.925781 374.726562 420.257812 C 376.269531 420.917969 377.839844 421.585938 379.40625 422.257812 C 382.742188 423.820312 386.074219 425.652344 388.671875 427.988281 C 389.347656 428.511719 389.957031 429.136719 390.554688 429.722656 C 391.136719 430.320312 391.722656 430.863281 392.238281 431.46875 C 393.242188 432.730469 394.214844 433.800781 394.957031 434.988281 C 396.523438 437.222656 397.523438 439.277344 398.226562 440.644531 C 398.867188 442.085938 399.191406 442.902344 399.191406 442.902344 C 400.144531 441.328125 400.832031 439.488281 401.15625 437.34375 C 401.441406 435.242188 401.339844 432.847656 400.714844 430.230469 C 400.378906 428.953125 399.914062 427.617188 399.308594 426.222656 C 398.699219 424.851562 397.886719 423.507812 396.957031 422.089844 C 396.007812 420.703125 394.835938 419.410156 393.535156 418.042969 C 392.179688 416.832031 390.691406 415.464844 388.960938 414.410156 C 388 413.816406 387.015625 413.199219 385.980469 412.632812 C 384.933594 412.15625 383.855469 411.691406 382.738281 411.230469 L 381.898438 410.886719 C 381.652344 410.75 381.417969 410.714844 381.175781 410.625 L 379.707031 410.179688 C 378.722656 409.886719 377.714844 409.613281 376.6875 409.347656 C 375.65625 409.082031 374.613281 408.832031 373.546875 408.59375 L 371.941406 408.246094 L 371.183594 407.929688 C 370.171875 407.515625 369.160156 407.164062 368.132812 406.875 C 364.058594 405.589844 359.898438 405.023438 355.726562 404.875 C 354.949219 408.820312 355.074219 413.035156 356.460938 417.082031 C 357.152344 419.074219 358.15625 421.046875 359.492188 422.960938 " fill-opacity="1" fill-rule="nonzero"/><path fill="#575252" d="M 324.035156 392.828125 C 320.226562 399.199219 319.464844 408.015625 324.785156 416.734375 C 329.46875 424.582031 338.285156 430.207031 347.453125 431.605469 C 338.605469 421.886719 331.851562 411.34375 327.285156 400.421875 C 328.664062 403.117188 330.257812 405.609375 331.894531 408.253906 C 333.597656 410.742188 335.363281 413.367188 337.324219 415.777344 C 339.238281 418.316406 341.347656 420.597656 343.523438 423.019531 C 345.746094 425.273438 348.046875 427.65625 350.519531 429.765625 C 351.082031 422.804688 348.382812 415.453125 343.617188 408.71875 C 338.285156 401.402344 331.609375 396.09375 324.035156 392.828125 " fill-opacity="1" fill-rule="nonzero"/><path fill="#575252" d="M 272.289062 349.421875 C 273.058594 348.113281 273.808594 346.648438 274.4375 345.085938 C 275.082031 343.519531 275.542969 341.871094 275.992188 340.097656 C 277.8125 332.316406 277.492188 324.3125 275.535156 316.914062 C 272.640625 317.25 269.75 318.453125 267.359375 320.625 C 264.941406 322.796875 262.824219 325.972656 261.601562 330.105469 C 259.257812 337.613281 260.214844 346.796875 263.792969 354.195312 C 265.496094 343.054688 268.503906 332.691406 272.714844 323.445312 C 269.257812 333.253906 267.105469 344.101562 266.402344 355.644531 C 268.710938 354.207031 270.707031 352.054688 272.289062 349.421875 " fill-opacity="1" fill-rule="nonzero"/><path fill="#575252" d="M 284.726562 387.570312 C 288.667969 383.007812 290.457031 376.214844 290.226562 368.519531 C 290 360.027344 287.554688 352.109375 283.601562 345.257812 C 277.816406 347.714844 273.121094 353.746094 272.753906 363.105469 C 272.386719 371.476562 275.964844 380.589844 281.675781 386.980469 C 280.9375 381.011719 280.730469 375.058594 280.800781 369.359375 C 280.988281 363.585938 281.417969 358.078125 282.378906 352.726562 C 281.441406 363.738281 282.210938 375.546875 284.726562 387.570312 " fill-opacity="1" fill-rule="nonzero"/><path fill="#575252" d="M 308.800781 405.351562 C 310.152344 408.117188 311.5 411.066406 313.09375 413.804688 C 315.644531 407.835938 315.394531 400.320312 312.984375 392.667969 C 310.261719 384.210938 305.589844 377.09375 299.679688 371.597656 C 297.074219 373.851562 295.035156 376.832031 293.875 380.542969 C 292.8125 384.160156 292.550781 388.601562 293.738281 393.324219 C 295.804688 401.929688 302.089844 409.910156 309.796875 414.328125 C 307.320312 408.4375 305.207031 402.71875 303.726562 396.828125 C 302.90625 393.980469 302.359375 390.960938 301.769531 388.152344 L 301.089844 383.808594 C 300.871094 382.390625 300.683594 380.972656 300.566406 379.523438 C 301.671875 385.222656 303.207031 391.042969 305.324219 396.742188 C 306.316406 399.671875 307.570312 402.425781 308.800781 405.351562 " fill-opacity="1" fill-rule="nonzero"/><path fill="#575252" d="M 257.097656 359.761719 C 248.839844 351.238281 241.207031 341.058594 234.917969 329.402344 C 241.722656 340.039062 249.621094 349.179688 257.988281 356.625 C 255.824219 348.191406 252.410156 339.871094 247.625 332.902344 C 244.960938 329.082031 242.234375 326.101562 239.320312 324.105469 C 236.382812 322.121094 233.453125 321.109375 230.519531 321.3125 C 230.011719 332.320312 233.480469 344.34375 239.765625 352.023438 C 245.511719 359.039062 251.921875 361.175781 257.097656 359.761719 " fill-opacity="1" fill-rule="nonzero"/><path fill="#575252" d="M 305.921875 425.816406 C 302.617188 425.328125 299.417969 424.515625 296.082031 423.746094 C 292.855469 422.8125 289.484375 421.921875 286.242188 420.707031 C 279.632812 418.4375 273.109375 415.460938 266.617188 411.910156 C 268.195312 412.65625 269.8125 413.332031 271.4375 413.957031 C 273.050781 414.597656 274.644531 415.222656 276.234375 415.808594 C 279.515625 416.875 282.625 417.992188 285.878906 418.78125 C 292.21875 420.558594 298.660156 421.570312 304.835938 422.261719 C 297.667969 415.792969 289.457031 410.25 280.828125 406.761719 C 276.019531 404.90625 271.679688 403.8125 267.679688 403.847656 C 263.785156 403.800781 260.3125 404.804688 257.632812 406.957031 C 258.390625 408.335938 259.195312 409.714844 260.054688 411.058594 C 260.957031 412.367188 261.90625 413.65625 262.898438 414.910156 C 264.835938 417.457031 267.144531 419.675781 269.453125 421.78125 C 271.832031 423.808594 274.34375 425.609375 276.921875 427.082031 C 279.5625 428.484375 282.144531 429.726562 284.847656 430.445312 C 287.273438 431.117188 289.511719 431.550781 291.648438 431.609375 C 293.789062 431.671875 295.75 431.46875 297.519531 431.03125 C 301.054688 430.1875 303.921875 428.253906 305.921875 425.816406 " fill-opacity="1" fill-rule="nonzero"/><path fill="#575252" d="M 347.109375 445.777344 C 343.640625 446.550781 340.140625 446.992188 336.523438 447.476562 C 332.957031 447.785156 329.257812 448.152344 325.574219 448.152344 C 321.839844 448.285156 318.121094 448.085938 314.292969 447.890625 C 310.535156 447.539062 306.648438 447.199219 302.824219 446.503906 C 317.640625 447.765625 331.933594 446.15625 344.871094 442.613281 C 335.402344 438.992188 325.371094 436.449219 315.570312 436.152344 C 304.730469 435.8125 296.238281 438.492188 292.058594 444.773438 C 294.53125 447.003906 297.164062 449.167969 300.039062 450.917969 C 302.863281 452.769531 305.894531 454.242188 308.957031 455.472656 C 312.015625 456.699219 315.183594 457.511719 318.265625 458.078125 C 321.402344 458.5 324.425781 458.789062 327.394531 458.496094 C 338.171875 457.65625 344.765625 452.234375 347.109375 445.777344 " fill-opacity="1" fill-rule="nonzero"/><path fill="#575252" d="M 275.800781 395.402344 C 264.867188 389.410156 254.109375 381.324219 244.46875 371.171875 C 249.378906 375.648438 254.628906 379.550781 259.824219 383.050781 C 265.132812 386.472656 270.429688 389.476562 275.863281 391.886719 C 271.195312 383.949219 265.28125 376.488281 258.5 370.824219 C 250.984375 364.589844 243.628906 361.945312 237.675781 364.191406 C 240.199219 375.878906 247.167969 387.226562 255.8125 393.089844 C 263.691406 398.539062 270.914062 398.558594 275.800781 395.402344 " fill-opacity="1" fill-rule="nonzero"/><g clip-path="url(#9f38a1c387)"><path fill="#575252" d="M 408.3125 472.519531 C 408.101562 471.734375 407.875 470.558594 407.425781 469.046875 C 407.207031 468.292969 406.957031 467.449219 406.6875 466.523438 C 406.402344 465.601562 406.035156 464.605469 405.667969 463.523438 C 405.316406 462.441406 404.800781 461.3125 404.320312 460.089844 C 404.085938 459.476562 403.796875 458.863281 403.492188 458.230469 C 403.175781 457.5625 402.84375 456.871094 402.507812 456.160156 C 401.0625 453.445312 399.355469 450.496094 397.050781 447.667969 C 394.742188 444.867188 391.886719 442.136719 388.34375 440.101562 C 387.472656 439.574219 386.511719 439.195312 385.574219 438.730469 C 384.59375 438.386719 383.597656 438.015625 382.570312 437.75 C 380.515625 437.242188 378.257812 437.046875 376.117188 437.03125 C 375.039062 437.007812 373.949219 436.992188 372.839844 436.96875 C 371.75 436.941406 370.5625 436.949219 369.597656 436.859375 C 367.566406 436.6875 365.472656 436.632812 363.359375 436.363281 C 354.882812 435.457031 345.765625 433.46875 336.488281 430.078125 C 327.195312 426.738281 317.847656 421.757812 308.859375 415.457031 C 304.425781 412.207031 300.03125 408.703125 295.878906 404.757812 C 291.765625 400.78125 287.703125 396.597656 284.050781 391.9375 C 280.367188 387.320312 276.859375 382.449219 273.789062 377.230469 L 272.605469 375.292969 L 271.507812 373.296875 C 270.789062 371.957031 270.03125 370.636719 269.335938 369.28125 C 268.003906 366.53125 266.617188 363.808594 265.453125 360.960938 C 255.710938 338.417969 252.214844 312.765625 255.058594 289.488281 C 255.210938 288.03125 255.363281 286.578125 255.511719 285.132812 C 255.769531 283.703125 256.023438 282.28125 256.273438 280.867188 C 256.53125 279.453125 256.785156 278.042969 257.042969 276.640625 L 257.421875 274.539062 C 257.578125 273.851562 257.773438 273.175781 257.945312 272.492188 C 258.660156 269.769531 259.363281 267.074219 260.054688 264.414062 C 260.898438 261.800781 261.816406 259.253906 262.675781 256.722656 C 266.421875 246.742188 270.785156 237.585938 275.890625 229.914062 C 285.742188 214.246094 297 203.753906 305.265625 197.3125 C 307.328125 195.683594 309.296875 194.414062 310.941406 193.210938 C 312.621094 192.0625 313.984375 190.953125 315.21875 190.300781 C 317.628906 188.878906 318.914062 188.125 318.914062 188.125 L 318.855469 188.003906 C 318.855469 188.003906 317.550781 188.730469 315.105469 190.09375 C 313.851562 190.714844 312.472656 191.785156 310.757812 192.890625 C 309.082031 194.054688 307.082031 195.28125 304.972656 196.863281 C 296.535156 203.121094 284.96875 213.371094 274.648438 228.96875 C 269.308594 236.601562 264.675781 245.765625 260.640625 255.824219 C 259.707031 258.378906 258.714844 260.953125 257.800781 263.59375 C 257.03125 266.289062 256.253906 269.015625 255.46875 271.777344 C 255.273438 272.46875 255.0625 273.15625 254.886719 273.855469 L 254.449219 275.984375 C 254.160156 277.414062 253.867188 278.847656 253.570312 280.285156 C 253.28125 281.726562 252.988281 283.175781 252.695312 284.628906 C 252.507812 286.105469 252.320312 287.585938 252.132812 289.074219 C 248.699219 312.824219 251.671875 339.332031 261.265625 363 C 262.40625 365.984375 263.78125 368.855469 265.109375 371.742188 C 265.796875 373.171875 266.550781 374.5625 267.273438 375.972656 L 268.371094 378.078125 L 269.554688 380.128906 C 272.632812 385.640625 276.171875 390.816406 279.914062 395.738281 C 283.621094 400.699219 287.769531 405.1875 291.988281 409.460938 C 296.246094 413.703125 300.773438 417.503906 305.359375 421.039062 C 314.65625 427.910156 324.40625 433.410156 334.15625 437.203125 C 343.894531 441.039062 353.519531 443.410156 362.515625 444.601562 C 364.757812 444.945312 366.976562 445.0625 369.136719 445.296875 C 370.269531 445.425781 371.15625 445.429688 372.113281 445.476562 C 373.050781 445.515625 373.980469 445.554688 374.898438 445.589844 C 376.761719 445.652344 378.371094 445.78125 380.003906 446.207031 C 380.800781 446.425781 381.566406 446.730469 382.316406 447.011719 C 383.03125 447.398438 383.777344 447.691406 384.441406 448.125 C 387.144531 449.777344 389.273438 451.976562 390.980469 454.1875 C 392.683594 456.421875 393.917969 458.726562 394.96875 460.820312 C 395.199219 461.347656 395.429688 461.859375 395.644531 462.355469 C 395.890625 462.890625 396.125 463.410156 396.3125 463.941406 C 396.691406 465.003906 397.117188 465.953125 397.394531 466.910156 C 397.691406 467.855469 397.992188 468.710938 398.222656 469.519531 C 398.441406 470.335938 398.636719 471.078125 398.816406 471.742188 C 399.179688 473.0625 399.355469 474.121094 399.523438 474.8125 C 399.675781 475.507812 399.753906 475.867188 399.753906 475.867188 L 408.597656 473.71875 C 408.597656 473.71875 408.503906 473.308594 408.3125 472.519531 " fill-opacity="1" fill-rule="nonzero"/></g><path fill="#575252" d="M 360.144531 465.585938 C 362.214844 464.871094 364.613281 463.765625 367.105469 462.695312 C 367.726562 462.421875 368.359375 462.144531 368.996094 461.859375 C 369.144531 461.789062 369.332031 461.71875 369.457031 461.644531 L 369.71875 461.398438 L 370.265625 460.90625 C 371.003906 460.246094 371.796875 459.578125 372.632812 458.910156 L 373.917969 457.914062 L 375.007812 456.945312 C 375.75 456.273438 376.519531 455.796875 377.335938 455.269531 C 378.9375 454.351562 380.625 453.730469 382.113281 453.421875 C 383.621094 453.078125 384.90625 453.046875 385.84375 453.023438 C 386.761719 453.039062 387.292969 453.101562 387.292969 453.101562 C 384.679688 449.632812 380.300781 447.679688 376.152344 448.507812 C 375.132812 448.664062 373.945312 448.9375 372.890625 449.21875 C 371.785156 449.507812 370.824219 449.867188 369.699219 450.226562 C 367.128906 450.835938 364.582031 451.710938 362.113281 452.632812 C 351.226562 456.753906 343.628906 462.730469 341.660156 470.609375 C 348.144531 473.257812 355.371094 474.5 362.378906 474.394531 C 373.804688 474.226562 385.910156 458.066406 387.199219 456.839844 C 387.199219 456.839844 386.703125 456.710938 385.867188 456.546875 C 384.992188 456.433594 383.808594 456.265625 382.390625 456.355469 C 381.710938 456.351562 380.902344 456.542969 380.164062 456.648438 C 379.371094 456.855469 378.597656 457.050781 377.804688 457.394531 C 377.410156 457.566406 377.019531 457.746094 376.640625 457.933594 C 376.257812 458.152344 375.875 458.386719 375.507812 458.621094 C 375.144531 458.847656 374.789062 459.128906 374.441406 459.414062 C 374.0625 459.699219 373.847656 459.972656 373.375 460.265625 C 372.503906 460.847656 371.671875 461.433594 370.898438 462.007812 C 370.515625 462.300781 370.140625 462.585938 369.769531 462.867188 L 369.5 463.078125 L 369.367188 463.183594 L 369.117188 463.273438 C 368.777344 463.390625 368.441406 463.507812 368.105469 463.625 C 365.417969 464.53125 362.851562 465.449219 360.628906 466.070312 C 358.378906 466.679688 356.503906 467.183594 355.1875 467.539062 C 353.855469 467.902344 353.09375 468.050781 353.09375 468.050781 C 353.09375 468.050781 353.808594 467.855469 355.058594 467.40625 C 356.285156 466.964844 358.042969 466.339844 360.144531 465.585938 " fill-opacity="1" fill-rule="nonzero"/><path fill="#575252" d="M 301.085938 184.921875 C 300.628906 185.800781 300.167969 186.652344 299.742188 187.535156 L 298.542969 190.269531 L 296.269531 195.648438 C 294.738281 199.105469 293.625 202.898438 292.476562 206.457031 C 293.535156 205.628906 294.550781 204.722656 295.507812 203.75 C 296.453125 202.765625 297.359375 201.71875 298.285156 200.726562 C 300.082031 198.671875 301.613281 196.355469 302.777344 193.839844 C 305.414062 188.59375 305.867188 183.566406 303.976562 179.964844 C 302.535156 180.667969 301.117188 181.492188 299.761719 182.414062 C 299.082031 182.875 298.417969 183.359375 297.773438 183.871094 C 297.144531 184.410156 296.5625 185.003906 295.988281 185.597656 C 293.703125 188.003906 291.773438 190.6875 290.460938 193.5 C 288.269531 198.925781 288.527344 203.464844 290.515625 206.558594 C 293.347656 199.222656 296.835938 191.996094 301.085938 184.921875 " fill-opacity="1" fill-rule="nonzero"/><path fill="#575252" d="M 272.4375 228.515625 C 272.820312 226.367188 273.144531 224.117188 273.636719 221.957031 L 275.273438 215.460938 C 276.320312 210.976562 277.882812 206.777344 279.4375 202.359375 C 278.839844 204.523438 278.269531 206.667969 277.726562 208.777344 C 277.46875 209.84375 277.167969 210.859375 276.960938 211.949219 L 276.359375 215.191406 C 275.625 219.519531 274.808594 223.578125 274.554688 227.878906 C 276.355469 225.4375 278.207031 222.976562 279.636719 220.242188 C 280.359375 218.875 280.992188 217.457031 281.53125 216 C 282.125 214.59375 282.664062 213.179688 283.066406 211.71875 C 283.996094 208.476562 284.28125 205.4375 284 202.777344 C 283.792969 200.199219 282.972656 197.957031 281.570312 196.269531 C 275.855469 200.566406 271.101562 207.421875 269.648438 214.378906 C 269.292969 215.941406 269.097656 217.417969 269.046875 218.796875 C 269.023438 220.195312 269.191406 221.53125 269.453125 222.726562 C 269.996094 225.136719 271.03125 227.082031 272.4375 228.515625 " fill-opacity="1" fill-rule="nonzero"/><g clip-path="url(#9f53fa7c30)"><path fill="#575252" d="M 311.714844 189.285156 C 312.023438 188.8125 312.417969 188.046875 312.984375 187.285156 C 314.125 185.691406 315.644531 183.566406 317.164062 181.4375 C 317.957031 180.359375 318.753906 179.277344 319.5 178.265625 C 320.28125 177.308594 321.042969 176.441406 321.6875 175.683594 C 323.007812 174.164062 323.886719 173.152344 323.886719 173.152344 C 323.886719 173.152344 323.117188 174.195312 321.96875 175.757812 C 321.414062 176.53125 320.765625 177.433594 320.066406 178.402344 C 319.390625 179.394531 318.722656 180.53125 318.046875 181.613281 C 316.703125 183.804688 315.421875 185.964844 314.488281 187.570312 C 314.027344 188.371094 313.644531 189.042969 313.375 189.507812 C 313.125 190.003906 312.984375 190.285156 312.984375 190.285156 C 315.089844 189.230469 317.179688 188.054688 319.019531 186.492188 C 319.945312 185.726562 320.824219 184.894531 321.644531 183.996094 C 322.46875 183.105469 323.289062 182.289062 324.007812 181.339844 C 327.203125 177.183594 328.253906 172.726562 327.085938 169.25 C 324.4375 170.011719 321.761719 171.226562 319.347656 172.78125 C 318.75 173.175781 318.152344 173.570312 317.597656 174.023438 C 317.050781 174.496094 316.53125 174.996094 316.03125 175.507812 C 315.03125 176.53125 314.132812 177.617188 313.363281 178.753906 C 311.945312 180.804688 311.082031 182.816406 310.742188 184.71875 C 310.441406 186.691406 310.636719 188.503906 311.25 190.054688 C 311.25 190.054688 311.417969 189.777344 311.714844 189.285156 " fill-opacity="1" fill-rule="nonzero"/></g><path fill="#575252" d="M 235.265625 311.300781 C 236.945312 315.171875 239.265625 318.019531 241.589844 319.910156 C 243.917969 321.808594 246.496094 322.738281 248.972656 322.847656 C 247.542969 320.394531 246.386719 317.839844 245.078125 315.238281 C 243.832031 312.632812 242.746094 309.953125 241.578125 307.214844 C 240.550781 304.472656 239.59375 301.664062 238.609375 298.792969 L 237.152344 294.433594 C 236.746094 292.972656 236.375 291.492188 235.992188 290 L 237.394531 294.140625 C 237.9375 295.511719 238.515625 296.863281 239.078125 298.195312 C 240.210938 300.863281 241.359375 303.457031 242.507812 305.984375 C 243.703125 308.507812 245.074219 310.96875 246.351562 313.355469 C 247.691406 315.746094 249.148438 318.0625 250.53125 320.316406 C 250.570312 318.273438 250.492188 316.21875 250.289062 314.171875 C 250.160156 312.125 249.945312 310.078125 249.585938 308.058594 C 248.984375 304.019531 248.121094 300.066406 246.609375 296.355469 C 246.191406 295.351562 245.789062 294.382812 245.398438 293.441406 C 244.992188 292.519531 244.5625 291.640625 244.101562 290.8125 C 243.183594 289.152344 242.15625 287.679688 241.054688 286.425781 C 238.84375 283.914062 236.3125 282.253906 233.636719 281.707031 C 233.03125 284.148438 232.566406 286.695312 232.257812 289.265625 C 232.105469 290.554688 231.988281 291.847656 231.914062 293.136719 C 231.835938 294.429688 231.945312 295.730469 232.015625 297.011719 C 232.386719 302.148438 233.257812 307.101562 235.265625 311.300781 " fill-opacity="1" fill-rule="nonzero"/><path fill="#575252" d="M 243.949219 283.035156 C 245.738281 285.320312 247.820312 286.792969 250.019531 287.511719 C 249.664062 286.238281 249.289062 284.949219 248.953125 283.652344 L 248.15625 279.761719 C 247.628906 277.136719 247.113281 274.460938 246.617188 271.734375 C 246.25 269.042969 245.972656 266.3125 245.675781 263.515625 L 245.261719 259.285156 C 245.128906 257.863281 245.144531 256.480469 245.089844 255.046875 C 245.238281 256.402344 245.351562 257.730469 245.546875 259.070312 L 246.238281 263.078125 C 246.710938 265.726562 247.203125 268.3125 247.710938 270.847656 C 248.261719 273.390625 249.023438 275.929688 249.695312 278.378906 L 250.746094 282.023438 C 251.097656 283.222656 251.429688 284.40625 251.902344 285.597656 C 252.070312 284.679688 252.296875 283.765625 252.515625 282.847656 C 252.726562 281.929688 252.90625 281.007812 253.058594 280.074219 C 253.367188 278.210938 253.558594 276.328125 253.636719 274.433594 C 253.90625 270.679688 253.960938 266.960938 253.367188 263.289062 C 253 261.246094 252.734375 259.429688 252.234375 257.71875 C 251.75 256.015625 251.132812 254.460938 250.398438 253.078125 C 248.925781 250.320312 246.984375 248.257812 244.683594 247.171875 C 240.351562 255.167969 238.390625 265.382812 240.1875 273.84375 C 240.976562 277.707031 242.273438 280.773438 243.949219 283.035156 " fill-opacity="1" fill-rule="nonzero"/><path fill="#575252" d="M 258.398438 255.613281 L 258.21875 251.941406 C 258.191406 250.722656 258.246094 249.523438 258.265625 248.296875 L 258.496094 240.84375 C 258.519531 239.566406 258.636719 238.328125 258.78125 237.09375 L 259.191406 233.332031 C 259.5 230.820312 259.742188 228.207031 260.1875 225.671875 C 259.945312 228.125 259.898438 230.65625 259.785156 233.085938 C 259.703125 235.535156 259.589844 237.914062 259.597656 240.308594 C 259.675781 242.742188 259.78125 245.136719 259.90625 247.484375 C 260.0625 249.851562 260.082031 252.101562 260.445312 254.453125 C 261.117188 252.898438 261.929688 251.390625 262.570312 249.796875 C 263.222656 248.214844 263.777344 246.578125 264.226562 244.910156 C 264.460938 244.082031 264.628906 243.21875 264.847656 242.394531 C 265.074219 241.574219 265.273438 240.746094 265.445312 239.910156 C 265.785156 238.246094 266.015625 236.554688 266.117188 234.855469 C 266.304688 231.074219 266.140625 227.859375 265.335938 225.101562 C 264.539062 222.347656 263.175781 220.097656 261.316406 218.582031 C 260 220.140625 258.757812 221.824219 257.621094 223.585938 C 256.476562 225.339844 255.652344 227.328125 254.84375 229.265625 C 254.066406 231.226562 253.421875 233.222656 252.9375 235.199219 C 252.488281 237.203125 252.335938 239.273438 252.285156 241.238281 C 252.261719 244.835938 252.761719 247.832031 253.871094 250.257812 C 255.011719 252.699219 256.570312 254.484375 258.398438 255.613281 " fill-opacity="1" fill-rule="nonzero"/><path fill="#575252" d="M 484.542969 183.964844 C 484.542969 183.964844 481.261719 182.570312 477.980469 181.179688 C 474.605469 180.074219 471.234375 178.972656 471.234375 178.972656 C 471.234375 178.972656 474.523438 180.304688 477.816406 181.636719 C 480.992188 183.246094 484.167969 184.855469 484.167969 184.855469 C 482.902344 185.140625 481.507812 185.207031 480.066406 185.03125 C 479.347656 184.949219 478.617188 184.800781 477.882812 184.585938 C 477.511719 184.484375 477.144531 184.359375 476.777344 184.222656 C 476.394531 184.117188 476.011719 183.996094 475.632812 183.859375 C 472.253906 182.632812 469.644531 180.367188 468.121094 177.839844 C 470.59375 176.765625 474.078125 176.761719 477.628906 178.058594 C 478.027344 178.203125 478.414062 178.359375 478.792969 178.527344 C 479.15625 178.730469 479.511719 178.945312 479.859375 179.167969 C 480.542969 179.613281 481.183594 180.097656 481.765625 180.613281 C 482.933594 181.640625 483.878906 182.78125 484.542969 183.964844 " fill-opacity="1" fill-rule="nonzero"/><path fill="#575252" d="M 543.066406 300.4375 C 544.226562 302.613281 545.433594 304.851562 546.578125 307.160156 C 547.582031 309.46875 548.683594 311.847656 549.628906 314.28125 C 550.511719 316.710938 551.542969 319.222656 552.300781 321.769531 C 549.902344 321.082031 547.675781 319.695312 545.570312 317.730469 C 543.464844 315.769531 541.730469 313.257812 540.09375 310.234375 C 538.488281 306.941406 537.035156 303.433594 536.378906 299.828125 C 536.1875 298.929688 536.117188 298.015625 535.9375 297.109375 C 535.761719 296.207031 535.625 295.296875 535.527344 294.386719 C 535.328125 292.5625 535.289062 290.726562 535.398438 288.886719 C 538.089844 288.46875 540.855469 288.867188 543.515625 290.242188 C 544.84375 290.925781 546.144531 291.855469 547.390625 293.042969 C 548.011719 293.632812 548.621094 294.285156 549.214844 295.003906 C 549.820312 295.722656 550.394531 296.503906 550.851562 297.359375 C 552.5625 300.46875 553.921875 304.136719 554.546875 308.007812 C 554.800781 309.9375 554.953125 311.921875 554.941406 313.902344 C 554.859375 315.878906 554.65625 317.851562 554.335938 319.777344 C 553.253906 317.359375 552.222656 315.019531 551.074219 312.742188 C 549.863281 310.464844 548.746094 308.253906 547.457031 306.117188 C 546.128906 303.980469 544.804688 301.914062 543.492188 299.910156 C 542.828125 298.914062 542.191406 297.929688 541.519531 296.960938 L 539.3125 294.136719 C 539.976562 295.148438 540.664062 296.175781 541.320312 297.226562 L 543.066406 300.4375 " fill-opacity="1" fill-rule="nonzero"/><path fill="#575252" d="M 553.054688 280.914062 C 553.253906 281.804688 553.425781 282.703125 553.566406 283.601562 C 553.722656 284.503906 553.824219 285.40625 553.816406 286.324219 C 553.164062 285.359375 552.382812 284.4375 551.617188 283.523438 L 549.347656 280.832031 C 547.808594 279.074219 546.394531 277.34375 544.796875 275.722656 C 543.160156 274.117188 541.535156 272.566406 539.933594 271.070312 L 537.542969 268.875 C 536.71875 268.167969 535.828125 267.5 534.976562 266.835938 C 535.773438 267.609375 536.65625 268.363281 537.402344 269.179688 L 539.652344 271.675781 C 541.15625 273.363281 542.71875 275.09375 544.226562 276.902344 L 548.410156 282.585938 L 550.535156 285.554688 C 551.179688 286.574219 551.792969 287.609375 552.425781 288.660156 C 550.117188 288.648438 547.789062 287.964844 545.59375 286.695312 C 543.285156 285.445312 541.027344 283.632812 539.042969 281.273438 C 534.660156 276.09375 531.613281 269.722656 530.386719 262.976562 C 532.710938 261.949219 535.289062 261.667969 537.964844 262.296875 C 539.304688 262.609375 540.667969 263.148438 542.039062 263.929688 C 543.382812 264.71875 544.839844 265.707031 546.015625 267.042969 C 548.195312 269.425781 550.195312 272.378906 551.535156 275.703125 C 552.144531 277.382812 552.65625 279.128906 553.054688 280.914062 " fill-opacity="1" fill-rule="nonzero"/><path fill="#575252" d="M 507.226562 220.878906 C 508.679688 219.234375 510.585938 218.039062 512.882812 217.476562 C 515.105469 216.996094 517.6875 217.195312 520.527344 218.207031 C 521.808594 218.660156 523.09375 219.234375 524.300781 219.96875 C 525.457031 220.753906 526.574219 221.660156 527.636719 222.664062 C 529.757812 224.671875 531.738281 227 533.027344 229.746094 C 529.683594 227.9375 525.976562 226.636719 522.558594 225.304688 L 519.984375 224.351562 C 519.136719 224.042969 518.207031 223.820312 517.332031 223.5625 L 512.105469 222.160156 C 515.527344 223.421875 519.1875 224.671875 522.535156 226.433594 L 527.769531 229.027344 C 529.507812 229.949219 531.128906 231.015625 532.851562 232.050781 C 531.121094 232.992188 529.117188 233.421875 526.992188 233.355469 C 525.921875 233.328125 524.847656 233.152344 523.714844 232.890625 C 522.542969 232.65625 521.355469 232.296875 520.160156 231.8125 C 515.007812 229.570312 510.464844 225.621094 507.226562 220.878906 " fill-opacity="1" fill-rule="nonzero"/><path fill="#575252" d="M 483.554688 198.027344 C 482.992188 197.929688 482.429688 197.808594 481.878906 197.65625 C 481.3125 197.527344 480.734375 197.417969 480.175781 197.257812 C 477.925781 196.644531 475.792969 195.628906 473.890625 194.273438 C 475.175781 190.851562 478.332031 188.351562 483.210938 187.949219 C 484.296875 187.878906 485.445312 187.84375 486.535156 188.042969 C 487.625 188.242188 488.722656 188.542969 489.804688 188.933594 C 491.957031 189.730469 494.109375 190.769531 495.9375 192.242188 C 495.9375 192.242188 495.65625 192.230469 495.15625 192.214844 C 494.648438 192.230469 493.917969 192.257812 493.042969 192.285156 C 491.300781 192.359375 489.015625 192.472656 486.789062 192.621094 C 485.671875 192.703125 484.585938 192.746094 483.546875 192.875 C 482.503906 193.03125 481.53125 193.179688 480.695312 193.308594 C 479.0625 193.578125 477.972656 193.757812 477.972656 193.757812 C 477.972656 193.757812 479.105469 193.675781 480.804688 193.566406 C 481.664062 193.511719 482.675781 193.4375 483.761719 193.398438 C 484.828125 193.425781 485.96875 193.457031 487.109375 193.484375 C 489.460938 193.574219 491.808594 193.667969 493.566406 193.734375 C 494.480469 193.757812 495.175781 193.90625 495.695312 193.953125 C 496.207031 194.019531 496.5 194.054688 496.5 194.054688 C 495.519531 195.359375 494.179688 196.375 492.589844 197.042969 C 490.960938 197.78125 489.050781 198.230469 486.976562 198.269531 C 485.828125 198.308594 484.683594 198.226562 483.554688 198.027344 " fill-opacity="1" fill-rule="nonzero"/><path fill="#575252" d="M 491.3125 205.585938 C 493.375 202.195312 497.433594 199.992188 502.761719 200.636719 C 505.144531 201.03125 507.5625 201.945312 509.851562 203.238281 C 511.015625 203.847656 512.0625 204.667969 513.042969 205.578125 C 514.03125 206.476562 514.964844 207.445312 515.824219 208.464844 C 512.398438 207.722656 509.191406 206.925781 505.777344 206.625 L 500.828125 206.09375 L 498.410156 205.867188 C 497.59375 205.828125 496.753906 205.832031 495.933594 205.816406 C 496.792969 205.878906 497.683594 205.898438 498.53125 206.007812 L 501.078125 206.371094 L 506.296875 207.191406 C 507.171875 207.34375 508.085938 207.46875 508.953125 207.664062 L 511.542969 208.316406 L 516.828125 209.734375 L 511.542969 208.316406 L 508.949219 207.667969 C 508.085938 207.46875 507.171875 207.347656 506.292969 207.195312 L 501.0625 206.386719 L 498.515625 206.03125 C 497.667969 205.925781 496.769531 205.910156 495.914062 205.851562 C 502.558594 206.671875 509.292969 208.1875 516.082031 210.503906 C 513.355469 212.882812 509.308594 213.773438 504.839844 212.785156 C 502.277344 212.378906 499.824219 211.515625 497.597656 210.214844 C 497.039062 209.894531 496.5 209.527344 495.957031 209.171875 C 495.398438 208.84375 494.851562 208.496094 494.316406 208.121094 C 493.25 207.371094 492.246094 206.523438 491.3125 205.585938 " fill-opacity="1" fill-rule="nonzero"/><path fill="#575252" d="M 533.199219 247.757812 C 534.074219 248.359375 534.941406 248.980469 535.722656 249.660156 L 540.636719 253.789062 C 541.460938 254.5 542.328125 255.203125 543.121094 255.953125 L 545.4375 258.28125 C 543.390625 258.851562 541.175781 258.796875 538.949219 258.179688 C 536.695312 257.566406 534.25 256.484375 531.980469 254.820312 C 530.710938 253.910156 529.609375 252.84375 528.484375 251.753906 C 527.320312 250.6875 526.261719 249.523438 525.308594 248.277344 C 524.332031 247.050781 523.578125 245.648438 522.722656 244.324219 C 521.875 242.996094 521.144531 241.589844 520.527344 240.117188 C 522.457031 238.710938 524.738281 237.890625 527.28125 237.855469 C 529.820312 237.828125 532.695312 238.53125 535.371094 240.394531 C 536.617188 241.214844 537.824219 242.183594 538.964844 243.273438 C 539.539062 243.820312 540.097656 244.390625 540.636719 244.996094 C 541.164062 245.601562 541.601562 246.28125 542.058594 246.953125 C 542.953125 248.316406 543.769531 249.765625 544.492188 251.265625 C 545.195312 252.777344 545.890625 254.296875 546.242188 255.945312 C 544.683594 254.523438 542.824219 253.292969 541.140625 252.039062 C 539.421875 250.800781 537.730469 249.609375 536.058594 248.464844 C 534.3125 247.359375 532.492188 246.355469 530.753906 245.367188 C 528.980469 244.402344 527.332031 243.417969 525.535156 242.59375 C 527.285156 243.621094 528.894531 244.808594 530.621094 245.96875 L 533.199219 247.757812 " fill-opacity="1" fill-rule="nonzero"/><path fill="#575252" d="M 450.5 422.960938 C 449.160156 424.867188 447.46875 426.542969 445.445312 428.191406 C 443.605469 429.648438 441.566406 430.789062 439.394531 431.832031 C 438.140625 432.316406 436.679688 432.71875 435.332031 433.089844 C 433.9375 433.492188 432.625 433.71875 431.152344 434.121094 C 428.21875 434.730469 425.34375 435.871094 422.617188 437.25 C 421.230469 437.902344 419.953125 438.777344 418.632812 439.558594 C 417.390625 440.476562 416.09375 441.308594 414.917969 442.316406 C 414.917969 442.316406 415.203125 441.558594 415.796875 440.261719 C 416.433594 439.019531 417.34375 437.152344 418.78125 435.128906 C 420.183594 433.0625 422.117188 430.886719 424.511719 428.789062 C 425.738281 427.871094 427.03125 426.722656 428.46875 425.933594 C 429.1875 425.5 429.910156 425.058594 430.640625 424.617188 L 432.683594 423.503906 C 434.113281 422.757812 435.542969 422.011719 436.949219 421.273438 L 438.035156 420.722656 L 438.582031 420.449219 C 438.726562 420.355469 438.8125 420.257812 438.925781 420.167969 C 439.359375 419.796875 439.785156 419.429688 440.203125 419.070312 C 441.863281 417.597656 443.371094 416.367188 444.597656 415.097656 C 445.800781 413.882812 446.804688 412.875 447.507812 412.167969 C 448.195312 411.484375 448.566406 411.039062 448.566406 411.039062 C 448.566406 411.039062 448.15625 411.449219 447.394531 412.070312 C 446.625 412.710938 445.523438 413.628906 444.199219 414.730469 C 442.847656 415.84375 441.210938 416.96875 439.40625 418.289062 L 438.71875 418.78125 L 438.542969 418.90625 L 438.246094 419.027344 L 437.648438 419.273438 C 436.863281 419.597656 436.070312 419.925781 435.265625 420.257812 C 433.722656 420.917969 432.152344 421.585938 430.585938 422.257812 C 427.25 423.820312 423.917969 425.652344 421.320312 427.988281 C 420.644531 428.511719 420.035156 429.136719 419.441406 429.722656 C 418.855469 430.320312 418.269531 430.863281 417.753906 431.46875 C 416.75 432.730469 415.777344 433.800781 415.039062 434.988281 C 413.46875 437.222656 412.472656 439.277344 411.765625 440.644531 C 411.125 442.085938 410.800781 442.902344 410.800781 442.902344 C 409.847656 441.328125 409.160156 439.488281 408.839844 437.34375 C 408.550781 435.242188 408.652344 432.847656 409.277344 430.230469 C 409.613281 428.953125 410.082031 427.617188 410.683594 426.222656 C 411.300781 424.851562 412.105469 423.507812 413.039062 422.089844 C 413.988281 420.703125 415.160156 419.410156 416.457031 418.042969 C 417.8125 416.832031 419.300781 415.464844 421.035156 414.410156 C 421.992188 413.816406 422.980469 413.199219 424.011719 412.632812 C 425.058594 412.15625 426.140625 411.691406 427.253906 411.230469 L 428.09375 410.886719 C 428.34375 410.75 428.574219 410.714844 428.816406 410.625 L 430.285156 410.179688 C 431.269531 409.886719 432.277344 409.613281 433.304688 409.347656 C 434.335938 409.082031 435.382812 408.832031 436.445312 408.59375 L 438.050781 408.246094 L 438.808594 407.929688 C 439.820312 407.515625 440.835938 407.164062 441.859375 406.875 C 445.933594 405.589844 450.09375 405.023438 454.265625 404.875 C 455.042969 408.820312 454.917969 413.035156 453.535156 417.082031 C 452.839844 419.074219 451.835938 421.046875 450.5 422.960938 " fill-opacity="1" fill-rule="nonzero"/><path fill="#575252" d="M 485.960938 392.828125 C 489.765625 399.199219 490.527344 408.015625 485.207031 416.734375 C 480.523438 424.582031 471.707031 430.207031 462.542969 431.605469 C 471.386719 421.886719 478.144531 411.34375 482.707031 400.421875 C 481.332031 403.117188 479.738281 405.609375 478.101562 408.253906 C 476.398438 410.742188 474.632812 413.367188 472.671875 415.777344 C 470.753906 418.316406 468.648438 420.597656 466.472656 423.019531 C 464.246094 425.273438 461.949219 427.65625 459.472656 429.765625 C 458.910156 422.804688 461.609375 415.453125 466.378906 408.71875 C 471.707031 401.402344 478.386719 396.09375 485.960938 392.828125 " fill-opacity="1" fill-rule="nonzero"/><path fill="#575252" d="M 537.703125 349.421875 C 536.933594 348.113281 536.183594 346.648438 535.554688 345.085938 C 534.910156 343.519531 534.449219 341.871094 534.003906 340.097656 C 532.183594 332.316406 532.5 324.3125 534.457031 316.914062 C 537.355469 317.25 540.242188 318.453125 542.636719 320.625 C 545.054688 322.796875 547.171875 325.972656 548.390625 330.105469 C 550.738281 337.613281 549.777344 346.796875 546.203125 354.195312 C 544.496094 343.054688 541.488281 332.691406 537.277344 323.445312 C 540.734375 333.253906 542.886719 344.101562 543.59375 355.644531 C 541.285156 354.207031 539.285156 352.054688 537.703125 349.421875 " fill-opacity="1" fill-rule="nonzero"/><path fill="#575252" d="M 525.265625 387.570312 C 521.328125 383.007812 519.53125 376.214844 519.769531 368.519531 C 519.992188 360.027344 522.4375 352.109375 526.390625 345.257812 C 532.175781 347.714844 536.871094 353.746094 537.238281 363.105469 C 537.605469 371.476562 534.03125 380.589844 528.316406 386.980469 C 529.054688 381.011719 529.265625 375.058594 529.191406 369.359375 C 529.003906 363.585938 528.574219 358.078125 527.617188 352.726562 C 528.550781 363.738281 527.78125 375.546875 525.265625 387.570312 " fill-opacity="1" fill-rule="nonzero"/><path fill="#575252" d="M 501.191406 405.351562 C 499.839844 408.117188 498.496094 411.066406 496.902344 413.804688 C 494.34375 407.835938 494.597656 400.320312 497.003906 392.667969 C 499.730469 384.210938 504.402344 377.09375 510.3125 371.597656 C 512.917969 373.851562 514.957031 376.832031 516.117188 380.542969 C 517.179688 384.160156 517.445312 388.601562 516.253906 393.324219 C 514.191406 401.929688 507.902344 409.910156 500.199219 414.328125 C 502.671875 408.4375 504.785156 402.71875 506.269531 396.828125 C 507.085938 393.980469 507.628906 390.960938 508.222656 388.152344 L 508.902344 383.808594 C 509.125 382.390625 509.308594 380.972656 509.429688 379.523438 C 508.320312 385.222656 506.785156 391.042969 504.667969 396.742188 C 503.675781 399.671875 502.425781 402.425781 501.191406 405.351562 " fill-opacity="1" fill-rule="nonzero"/><path fill="#575252" d="M 552.898438 359.761719 C 561.152344 351.238281 568.785156 341.058594 575.074219 329.402344 C 568.269531 340.039062 560.371094 349.179688 552.003906 356.625 C 554.167969 348.191406 557.585938 339.871094 562.367188 332.902344 C 565.03125 329.082031 567.761719 326.101562 570.675781 324.105469 C 573.609375 322.121094 576.539062 321.109375 579.472656 321.3125 C 579.980469 332.320312 576.511719 344.34375 570.226562 352.023438 C 564.480469 359.039062 558.070312 361.175781 552.898438 359.761719 " fill-opacity="1" fill-rule="nonzero"/><path fill="#575252" d="M 504.074219 425.816406 C 507.375 425.328125 510.574219 424.515625 513.910156 423.746094 C 517.136719 422.8125 520.511719 421.921875 523.753906 420.707031 C 530.359375 418.4375 536.882812 415.460938 543.378906 411.910156 C 541.796875 412.65625 540.179688 413.332031 538.558594 413.957031 C 536.941406 414.597656 535.351562 415.222656 533.757812 415.808594 C 530.476562 416.875 527.371094 417.992188 524.117188 418.78125 C 517.773438 420.558594 511.332031 421.570312 505.15625 422.261719 C 512.328125 415.792969 520.539062 410.25 529.160156 406.761719 C 533.976562 404.90625 538.316406 403.8125 542.3125 403.847656 C 546.207031 403.800781 549.679688 404.804688 552.359375 406.957031 C 551.605469 408.335938 550.800781 409.714844 549.9375 411.058594 C 549.035156 412.367188 548.085938 413.65625 547.09375 414.910156 C 545.160156 417.457031 542.851562 419.675781 540.542969 421.78125 C 538.160156 423.808594 535.652344 425.609375 533.070312 427.082031 C 530.429688 428.484375 527.847656 429.726562 525.144531 430.445312 C 522.71875 431.117188 520.480469 431.550781 518.34375 431.609375 C 516.203125 431.671875 514.246094 431.46875 512.472656 431.03125 C 508.9375 430.1875 506.074219 428.253906 504.074219 425.816406 " fill-opacity="1" fill-rule="nonzero"/><path fill="#575252" d="M 462.882812 445.777344 C 466.351562 446.550781 469.851562 446.992188 473.46875 447.476562 C 477.035156 447.785156 480.734375 448.152344 484.421875 448.152344 C 488.152344 448.285156 491.871094 448.085938 495.699219 447.890625 C 499.457031 447.539062 503.347656 447.199219 507.167969 446.503906 C 492.351562 447.765625 478.058594 446.15625 465.121094 442.613281 C 474.59375 438.992188 484.617188 436.449219 494.421875 436.152344 C 505.265625 435.8125 513.753906 438.492188 517.933594 444.773438 C 515.460938 447.003906 512.828125 449.167969 509.953125 450.917969 C 507.128906 452.769531 504.097656 454.242188 501.035156 455.472656 C 497.972656 456.699219 494.808594 457.511719 491.726562 458.078125 C 488.589844 458.5 485.566406 458.789062 482.601562 458.496094 C 471.820312 457.65625 465.230469 452.234375 462.882812 445.777344 " fill-opacity="1" fill-rule="nonzero"/><path fill="#575252" d="M 534.195312 395.402344 C 545.125 389.410156 555.886719 381.324219 565.523438 371.171875 C 560.613281 375.648438 555.363281 379.550781 550.171875 383.050781 C 544.859375 386.472656 539.5625 389.476562 534.128906 391.886719 C 538.796875 383.949219 544.710938 376.488281 551.496094 370.824219 C 559.007812 364.589844 566.363281 361.945312 572.316406 364.191406 C 569.792969 375.878906 562.828125 387.226562 554.179688 393.089844 C 546.300781 398.539062 539.082031 398.558594 534.195312 395.402344 " fill-opacity="1" fill-rule="nonzero"/><g clip-path="url(#6146250489)"><path fill="#575252" d="M 401.683594 472.519531 C 401.890625 471.734375 402.117188 470.558594 402.566406 469.046875 C 402.789062 468.292969 403.035156 467.449219 403.304688 466.523438 C 403.589844 465.601562 403.957031 464.605469 404.328125 463.523438 C 404.671875 462.441406 405.195312 461.3125 405.671875 460.089844 C 405.90625 459.476562 406.195312 458.863281 406.5 458.230469 C 406.816406 457.5625 407.144531 456.871094 407.484375 456.160156 C 408.929688 453.445312 410.636719 450.496094 412.945312 447.667969 C 415.253906 444.867188 418.105469 442.136719 421.648438 440.101562 C 422.523438 439.574219 423.480469 439.195312 424.417969 438.730469 C 425.398438 438.386719 426.394531 438.015625 427.425781 437.75 C 429.480469 437.242188 431.734375 437.046875 433.871094 437.03125 C 434.953125 437.007812 436.042969 436.992188 437.152344 436.96875 C 438.246094 436.941406 439.429688 436.949219 440.394531 436.859375 C 442.429688 436.6875 444.515625 436.632812 446.632812 436.363281 C 455.113281 435.457031 464.226562 433.46875 473.503906 430.078125 C 482.796875 426.738281 492.148438 421.757812 501.132812 415.457031 C 505.566406 412.207031 509.964844 408.703125 514.113281 404.757812 C 518.230469 400.78125 522.289062 396.597656 525.941406 391.9375 C 529.628906 387.320312 533.132812 382.449219 536.207031 377.230469 L 537.386719 375.292969 L 538.484375 373.296875 C 539.207031 371.957031 539.960938 370.636719 540.65625 369.28125 C 541.988281 366.53125 543.378906 363.808594 544.539062 360.960938 C 554.28125 338.417969 557.777344 312.765625 554.933594 289.488281 C 554.78125 288.03125 554.628906 286.578125 554.480469 285.132812 C 554.226562 283.703125 553.972656 282.28125 553.71875 280.867188 C 553.460938 279.453125 553.203125 278.042969 552.949219 276.640625 L 552.570312 274.539062 C 552.414062 273.851562 552.21875 273.175781 552.046875 272.492188 C 551.335938 269.769531 550.632812 267.074219 549.9375 264.414062 C 549.09375 261.800781 548.175781 259.253906 547.320312 256.722656 C 543.570312 246.742188 539.207031 237.585938 534.101562 229.914062 C 524.253906 214.246094 512.992188 203.753906 504.726562 197.3125 C 502.660156 195.683594 500.699219 194.414062 499.050781 193.210938 C 497.371094 192.0625 496.011719 190.953125 494.773438 190.300781 C 492.363281 188.878906 491.082031 188.125 491.082031 188.125 L 491.136719 188.003906 C 491.136719 188.003906 492.441406 188.730469 494.886719 190.09375 C 496.140625 190.714844 497.523438 191.785156 499.234375 192.890625 C 500.910156 194.054688 502.914062 195.28125 505.019531 196.863281 C 513.460938 203.121094 525.023438 213.371094 535.34375 228.96875 C 540.683594 236.601562 545.3125 245.765625 549.351562 255.824219 C 550.285156 258.378906 551.277344 260.953125 552.191406 263.59375 C 552.960938 266.289062 553.738281 269.015625 554.523438 271.777344 C 554.714844 272.46875 554.933594 273.15625 555.105469 273.855469 L 555.542969 275.984375 C 555.832031 277.414062 556.128906 278.847656 556.421875 280.285156 C 556.710938 281.726562 557.007812 283.175781 557.300781 284.628906 C 557.484375 286.105469 557.671875 287.585938 557.859375 289.074219 C 561.292969 312.824219 558.320312 339.332031 548.726562 363 C 547.585938 365.984375 546.214844 368.855469 544.886719 371.742188 C 544.195312 373.171875 543.4375 374.5625 542.71875 375.972656 L 541.625 378.078125 L 540.4375 380.128906 C 537.359375 385.640625 533.820312 390.816406 530.078125 395.738281 C 526.371094 400.699219 522.226562 405.1875 518.003906 409.460938 C 513.746094 413.703125 509.21875 417.503906 504.632812 421.039062 C 495.339844 427.910156 485.585938 433.410156 475.835938 437.203125 C 466.097656 441.039062 456.472656 443.410156 447.480469 444.601562 C 445.234375 444.945312 443.015625 445.0625 440.855469 445.296875 C 439.722656 445.425781 438.839844 445.429688 437.878906 445.476562 C 436.941406 445.515625 436.007812 445.554688 435.09375 445.589844 C 433.234375 445.652344 431.621094 445.78125 429.992188 446.207031 C 429.195312 446.425781 428.425781 446.730469 427.671875 447.011719 C 426.960938 447.398438 426.214844 447.691406 425.554688 448.125 C 422.847656 449.777344 420.71875 451.976562 419.011719 454.1875 C 417.308594 456.421875 416.074219 458.726562 415.027344 460.820312 C 414.792969 461.347656 414.566406 461.859375 414.347656 462.355469 C 414.101562 462.890625 413.867188 463.410156 413.679688 463.941406 C 413.296875 465.003906 412.875 465.953125 412.597656 466.910156 C 412.300781 467.855469 412 468.710938 411.773438 469.519531 C 411.554688 470.335938 411.355469 471.078125 411.175781 471.742188 C 410.8125 473.0625 410.636719 474.121094 410.46875 474.8125 C 410.316406 475.507812 410.238281 475.867188 410.238281 475.867188 L 401.394531 473.71875 C 401.394531 473.71875 401.492188 473.308594 401.683594 472.519531 " fill-opacity="1" fill-rule="nonzero"/></g><path fill="#575252" d="M 449.847656 465.585938 C 447.777344 464.871094 445.378906 463.765625 442.886719 462.695312 C 442.269531 462.421875 441.632812 462.144531 441 461.859375 C 440.847656 461.789062 440.664062 461.71875 440.539062 461.644531 L 440.273438 461.398438 L 439.730469 460.90625 C 438.988281 460.246094 438.195312 459.578125 437.359375 458.910156 L 436.074219 457.914062 L 434.984375 456.945312 C 434.246094 456.273438 433.472656 455.796875 432.65625 455.269531 C 431.058594 454.351562 429.371094 453.730469 427.882812 453.421875 C 426.371094 453.078125 425.089844 453.046875 424.144531 453.023438 C 423.234375 453.039062 422.699219 453.101562 422.699219 453.101562 C 425.3125 449.632812 429.691406 447.679688 433.839844 448.507812 C 434.859375 448.664062 436.046875 448.9375 437.101562 449.21875 C 438.207031 449.507812 439.167969 449.867188 440.292969 450.226562 C 442.863281 450.835938 445.410156 451.710938 447.878906 452.632812 C 458.765625 456.753906 466.363281 462.730469 468.332031 470.609375 C 461.855469 473.257812 454.621094 474.5 447.617188 474.394531 C 436.191406 474.226562 424.082031 458.066406 422.792969 456.839844 C 422.792969 456.839844 423.292969 456.710938 424.125 456.546875 C 424.996094 456.433594 426.183594 456.265625 427.601562 456.355469 C 428.28125 456.351562 429.089844 456.542969 429.832031 456.648438 C 430.621094 456.855469 431.398438 457.050781 432.1875 457.394531 C 432.582031 457.566406 432.972656 457.746094 433.351562 457.933594 C 433.734375 458.152344 434.117188 458.386719 434.484375 458.621094 C 434.847656 458.847656 435.207031 459.128906 435.550781 459.414062 C 435.929688 459.699219 436.144531 459.972656 436.617188 460.265625 C 437.488281 460.847656 438.320312 461.433594 439.09375 462.007812 C 439.476562 462.300781 439.851562 462.585938 440.222656 462.867188 L 440.492188 463.078125 L 440.625 463.183594 L 440.878906 463.273438 C 441.214844 463.390625 441.554688 463.507812 441.890625 463.625 C 444.570312 464.53125 447.144531 465.449219 449.363281 466.070312 C 451.617188 466.679688 453.492188 467.183594 454.804688 467.539062 C 456.136719 467.902344 456.898438 468.050781 456.898438 468.050781 C 456.898438 468.050781 456.183594 467.855469 454.9375 467.40625 C 453.710938 466.964844 451.953125 466.339844 449.847656 465.585938 " fill-opacity="1" fill-rule="nonzero"/><path fill="#575252" d="M 508.910156 184.921875 C 509.363281 185.800781 509.824219 186.652344 510.25 187.535156 L 511.449219 190.269531 L 513.726562 195.648438 C 515.257812 199.105469 516.367188 202.898438 517.515625 206.457031 C 516.457031 205.628906 515.445312 204.722656 514.488281 203.75 C 513.539062 202.765625 512.636719 201.71875 511.707031 200.726562 C 509.910156 198.671875 508.378906 196.355469 507.210938 193.839844 C 504.578125 188.59375 504.128906 183.566406 506.015625 179.964844 C 507.457031 180.667969 508.875 181.492188 510.234375 182.414062 C 510.910156 182.875 511.574219 183.359375 512.21875 183.871094 C 512.84375 184.410156 513.433594 185.003906 514.003906 185.597656 C 516.289062 188.003906 518.222656 190.6875 519.53125 193.5 C 521.722656 198.925781 521.460938 203.464844 519.476562 206.558594 C 516.648438 199.222656 513.15625 191.996094 508.910156 184.921875 " fill-opacity="1" fill-rule="nonzero"/><path fill="#575252" d="M 537.554688 228.515625 C 537.171875 226.367188 536.847656 224.117188 536.355469 221.957031 L 534.722656 215.460938 C 533.671875 210.976562 532.113281 206.777344 530.554688 202.359375 C 531.15625 204.523438 531.722656 206.667969 532.261719 208.777344 C 532.523438 209.84375 532.824219 210.859375 533.03125 211.949219 L 533.632812 215.191406 C 534.371094 219.519531 535.183594 223.578125 535.4375 227.878906 C 533.640625 225.4375 531.789062 222.976562 530.355469 220.242188 C 529.632812 218.875 529 217.457031 528.464844 216 C 527.867188 214.59375 527.332031 213.179688 526.929688 211.71875 C 525.996094 208.476562 525.710938 205.4375 525.996094 202.777344 C 526.199219 200.199219 527.019531 197.957031 528.425781 196.269531 C 534.140625 200.566406 538.894531 207.421875 540.34375 214.378906 C 540.699219 215.941406 540.894531 217.417969 540.949219 218.796875 C 540.96875 220.195312 540.800781 221.53125 540.539062 222.726562 C 540 225.136719 538.960938 227.082031 537.554688 228.515625 " fill-opacity="1" fill-rule="nonzero"/><g clip-path="url(#6de63957ad)"><path fill="#575252" d="M 498.28125 189.285156 C 497.96875 188.8125 497.578125 188.046875 497.011719 187.285156 C 495.867188 185.691406 494.351562 183.566406 492.828125 181.4375 C 492.035156 180.359375 491.238281 179.277344 490.492188 178.265625 C 489.710938 177.308594 488.949219 176.441406 488.300781 175.683594 C 486.988281 174.164062 486.109375 173.152344 486.109375 173.152344 C 486.109375 173.152344 486.875 174.195312 488.023438 175.757812 C 488.582031 176.53125 489.230469 177.433594 489.925781 178.402344 C 490.597656 179.394531 491.269531 180.53125 491.945312 181.613281 C 493.289062 183.804688 494.570312 185.964844 495.503906 187.570312 C 495.96875 188.371094 496.347656 189.042969 496.621094 189.507812 C 496.867188 190.003906 497.007812 190.285156 497.007812 190.285156 C 494.902344 189.230469 492.8125 188.054688 490.972656 186.492188 C 490.046875 185.726562 489.167969 184.894531 488.351562 183.996094 C 487.527344 183.105469 486.707031 182.289062 485.988281 181.339844 C 482.789062 177.183594 481.738281 172.726562 482.910156 169.25 C 485.558594 170.011719 488.230469 171.226562 490.644531 172.78125 C 491.242188 173.175781 491.839844 173.570312 492.394531 174.023438 C 492.941406 174.496094 493.460938 174.996094 493.960938 175.507812 C 494.960938 176.53125 495.863281 177.617188 496.628906 178.753906 C 498.046875 180.804688 498.914062 182.816406 499.253906 184.71875 C 499.550781 186.691406 499.359375 188.503906 498.742188 190.054688 C 498.742188 190.054688 498.574219 189.777344 498.28125 189.285156 " fill-opacity="1" fill-rule="nonzero"/></g><path fill="#575252" d="M 574.726562 311.300781 C 573.050781 315.171875 570.722656 318.019531 568.398438 319.910156 C 566.074219 321.808594 563.496094 322.738281 561.019531 322.847656 C 562.449219 320.394531 563.609375 317.839844 564.917969 315.238281 C 566.160156 312.632812 567.246094 309.953125 568.414062 307.214844 C 569.441406 304.472656 570.398438 301.664062 571.382812 298.792969 L 572.839844 294.433594 C 573.246094 292.972656 573.617188 291.492188 574 290 L 572.59375 294.140625 C 572.058594 295.511719 571.476562 296.863281 570.914062 298.195312 C 569.78125 300.863281 568.636719 303.457031 567.480469 305.984375 C 566.289062 308.507812 564.917969 310.96875 563.636719 313.355469 C 562.300781 315.746094 560.84375 318.0625 559.464844 320.316406 C 559.421875 318.273438 559.5 316.21875 559.703125 314.171875 C 559.832031 312.125 560.046875 310.078125 560.40625 308.058594 C 561.007812 304.019531 561.871094 300.066406 563.382812 296.355469 C 563.800781 295.351562 564.207031 294.382812 564.59375 293.441406 C 564.996094 292.519531 565.433594 291.640625 565.894531 290.8125 C 566.8125 289.152344 567.835938 287.679688 568.9375 286.425781 C 571.148438 283.914062 573.679688 282.253906 576.355469 281.707031 C 576.957031 284.148438 577.425781 286.695312 577.734375 289.265625 C 577.886719 290.554688 578.003906 291.847656 578.082031 293.136719 C 578.15625 294.429688 578.050781 295.730469 577.984375 297.011719 C 577.605469 302.148438 576.734375 307.101562 574.726562 311.300781 " fill-opacity="1" fill-rule="nonzero"/><path fill="#575252" d="M 566.042969 283.035156 C 564.257812 285.320312 562.171875 286.792969 559.972656 287.511719 C 560.328125 286.238281 560.703125 284.949219 561.039062 283.652344 L 561.839844 279.761719 C 562.363281 277.136719 562.878906 274.460938 563.375 271.734375 C 563.742188 269.042969 564.019531 266.3125 564.316406 263.515625 L 564.734375 259.285156 C 564.863281 257.863281 564.847656 256.480469 564.902344 255.046875 C 564.753906 256.402344 564.640625 257.730469 564.449219 259.070312 L 563.753906 263.078125 C 563.28125 265.726562 562.789062 268.3125 562.28125 270.847656 C 561.734375 273.390625 560.964844 275.929688 560.300781 278.378906 L 559.25 282.023438 C 558.898438 283.222656 558.5625 284.40625 558.089844 285.597656 C 557.921875 284.679688 557.695312 283.765625 557.476562 282.847656 C 557.265625 281.929688 557.089844 281.007812 556.933594 280.074219 C 556.628906 278.210938 556.4375 276.328125 556.359375 274.433594 C 556.089844 270.679688 556.03125 266.960938 556.628906 263.289062 C 556.992188 261.246094 557.257812 259.429688 557.761719 257.71875 C 558.242188 256.015625 558.859375 254.460938 559.597656 253.078125 C 561.066406 250.320312 563.007812 248.257812 565.3125 247.171875 C 569.640625 255.167969 571.609375 265.382812 569.808594 273.84375 C 569.015625 277.707031 567.71875 280.773438 566.042969 283.035156 " fill-opacity="1" fill-rule="nonzero"/><path fill="#575252" d="M 551.59375 255.613281 L 551.773438 251.941406 C 551.800781 250.722656 551.746094 249.523438 551.726562 248.296875 L 551.496094 240.84375 C 551.472656 239.566406 551.355469 238.328125 551.210938 237.09375 L 550.800781 233.332031 C 550.492188 230.820312 550.25 228.207031 549.808594 225.671875 C 550.050781 228.125 550.09375 230.65625 550.210938 233.085938 C 550.292969 235.535156 550.402344 237.914062 550.394531 240.308594 C 550.316406 242.742188 550.214844 245.136719 550.089844 247.484375 C 549.929688 249.851562 549.910156 252.101562 549.546875 254.453125 C 548.875 252.898438 548.0625 251.390625 547.421875 249.796875 C 546.769531 248.214844 546.214844 246.578125 545.765625 244.910156 C 545.53125 244.082031 545.363281 243.21875 545.148438 242.394531 C 544.917969 241.574219 544.71875 240.746094 544.546875 239.910156 C 544.207031 238.246094 543.976562 236.554688 543.871094 234.855469 C 543.691406 231.074219 543.855469 227.859375 544.65625 225.101562 C 545.453125 222.347656 546.816406 220.097656 548.671875 218.582031 C 549.992188 220.140625 551.234375 221.824219 552.371094 223.585938 C 553.519531 225.339844 554.339844 227.328125 555.148438 229.265625 C 555.925781 231.226562 556.574219 233.222656 557.054688 235.199219 C 557.503906 237.203125 557.65625 239.273438 557.710938 241.238281 C 557.734375 244.835938 557.234375 247.832031 556.121094 250.257812 C 554.980469 252.699219 553.421875 254.484375 551.59375 255.613281 " fill-opacity="1" fill-rule="nonzero"/></svg>