<svg xmlns="http://www.w3.org/2000/svg" xmlns:xlink="http://www.w3.org/1999/xlink" width="1080" zoomAndPan="magnify" viewBox="0 0 810 809.999993" height="1080" preserveAspectRatio="xMidYMid meet" version="1.0"><defs><clipPath id="cfe8d6c029"><path d="M 166.113281 81 L 643.886719 81 L 643.886719 558.773438 L 166.113281 558.773438 Z M 166.113281 81 " clip-rule="nonzero"/></clipPath><clipPath id="d23db5be6f"><path d="M 405 81 C 273.066406 81 166.113281 187.953125 166.113281 319.886719 C 166.113281 451.820312 273.066406 558.773438 405 558.773438 C 536.933594 558.773438 643.886719 451.820312 643.886719 319.886719 C 643.886719 187.953125 536.933594 81 405 81 Z M 405 81 " clip-rule="nonzero"/></clipPath><clipPath id="727d18a43e"><path d="M 123 32.746094 L 687 32.746094 L 687 777.496094 L 123 777.496094 Z M 123 32.746094 " clip-rule="nonzero"/></clipPath><clipPath id="46fadf396b"><path d="M 302 175.363281 L 316 175.363281 L 316 242 L 302 242 Z M 302 175.363281 " clip-rule="nonzero"/></clipPath><clipPath id="e643b3c1ae"><path d="M 381 175.363281 L 396 175.363281 L 396 242 L 381 242 Z M 381 175.363281 " clip-rule="nonzero"/></clipPath><clipPath id="1b276f761e"><path d="M 362 267 L 567 267 L 567 472.363281 L 362 472.363281 Z M 362 267 " clip-rule="nonzero"/></clipPath></defs><g clip-path="url(#cfe8d6c029)"><g clip-path="url(#d23db5be6f)"><path fill="#ffffff" d="M 166.113281 81 L 643.886719 81 L 643.886719 558.773438 L 166.113281 558.773438 Z M 166.113281 81 " fill-opacity="1" fill-rule="nonzero"/></g></g><g clip-path="url(#727d18a43e)"><path fill="#575252" d="M 686.882812 314.050781 C 686.597656 158.429688 560.191406 32.492188 404.574219 32.789062 C 248.957031 33.09375 123.046875 159.492188 123.324219 315.109375 C 123.433594 369.082031 139.75 418.820312 165.085938 462.25 C 222.328125 560.347656 405.984375 777.042969 405.984375 777.042969 C 405.984375 777.042969 591.347656 556.4375 647.773438 457.820312 C 672.066406 415.324219 687 366.53125 686.882812 314.050781 Z M 404.691406 97.863281 C 524.40625 97.632812 621.59375 194.488281 621.828125 314.175781 C 622.050781 433.851562 525.222656 531.078125 405.5 531.320312 C 285.839844 531.519531 188.632812 434.679688 188.398438 314.992188 C 188.164062 195.304688 284.996094 98.078125 404.691406 97.863281 Z M 404.691406 97.863281 " fill-opacity="1" fill-rule="nonzero"/></g><path fill="#575252" d="M 348.859375 373.484375 L 243.105469 373.484375 L 243.105469 201.980469 L 454.617188 201.980469 L 454.617188 261.3125 L 441.398438 261.3125 L 441.398438 215.199219 L 256.324219 215.199219 L 256.324219 360.265625 L 348.859375 360.265625 L 348.859375 373.484375 " fill-opacity="1" fill-rule="nonzero"/><path fill="#575252" d="M 249.710938 248.09375 L 448.007812 248.09375 L 448.007812 261.3125 L 249.710938 261.3125 L 249.710938 248.09375 " fill-opacity="1" fill-rule="nonzero"/><g clip-path="url(#46fadf396b)"><path fill="#575252" d="M 302.636719 181.992188 C 302.636719 178.34375 305.59375 175.382812 309.246094 175.382812 C 312.898438 175.382812 315.855469 178.34375 315.855469 181.992188 L 315.855469 234.875 C 315.855469 238.523438 312.898438 241.484375 309.246094 241.484375 C 305.59375 241.484375 302.636719 238.523438 302.636719 234.875 L 302.636719 181.992188 " fill-opacity="1" fill-rule="nonzero"/></g><g clip-path="url(#e643b3c1ae)"><path fill="#575252" d="M 381.859375 181.992188 C 381.859375 178.34375 384.824219 175.382812 388.46875 175.382812 C 392.121094 175.382812 395.078125 178.34375 395.078125 181.992188 L 395.078125 234.875 C 395.078125 238.523438 392.121094 241.484375 388.46875 241.484375 C 384.824219 241.484375 381.859375 238.523438 381.859375 234.875 L 381.859375 181.992188 " fill-opacity="1" fill-rule="nonzero"/></g><g clip-path="url(#1b276f761e)"><path fill="#575252" d="M 464.53125 267.742188 C 492.820312 267.742188 518.433594 279.210938 536.976562 297.75 C 555.515625 316.289062 566.984375 341.902344 566.984375 370.195312 C 566.984375 398.484375 555.515625 424.101562 536.976562 442.640625 C 518.433594 461.179688 492.820312 472.648438 464.53125 472.648438 C 436.238281 472.648438 410.628906 461.179688 392.085938 442.640625 C 373.546875 424.101562 362.078125 398.484375 362.078125 370.195312 C 362.078125 341.902344 373.546875 316.289062 392.085938 297.75 C 410.628906 279.210938 436.238281 267.742188 464.53125 267.742188 Z M 527.625 307.097656 C 511.480469 290.949219 489.171875 280.960938 464.53125 280.960938 C 439.890625 280.960938 417.582031 290.949219 401.433594 307.097656 C 385.285156 323.246094 375.296875 345.550781 375.296875 370.195312 C 375.296875 394.835938 385.285156 417.148438 401.433594 433.292969 C 417.582031 449.441406 439.890625 459.425781 464.53125 459.425781 C 489.171875 459.425781 511.480469 449.441406 527.625 433.292969 C 543.777344 417.148438 553.761719 394.835938 553.761719 370.195312 C 553.761719 345.550781 543.777344 323.246094 527.625 307.097656 " fill-opacity="1" fill-rule="nonzero"/></g><path fill="#575252" d="M 464.53125 361.859375 C 469.132812 361.859375 472.863281 365.59375 472.863281 370.195312 C 472.863281 374.796875 469.132812 378.527344 464.53125 378.527344 C 459.929688 378.527344 456.195312 374.796875 456.195312 370.195312 C 456.195312 365.59375 459.929688 361.859375 464.53125 361.859375 " fill-opacity="1" fill-rule="evenodd"/><path fill="#575252" d="M 492.367188 316.546875 C 494.378906 313.511719 498.46875 312.679688 501.507812 314.6875 C 504.542969 316.699219 505.378906 320.792969 503.367188 323.832031 L 472.351562 370.371094 C 470.339844 373.410156 466.25 374.242188 463.210938 372.230469 C 460.171875 370.222656 459.339844 366.128906 461.351562 363.089844 L 492.367188 316.546875 " fill-opacity="1" fill-rule="nonzero"/><path fill="#575252" d="M 390.878906 342.820312 C 387.582031 341.269531 386.171875 337.339844 387.726562 334.042969 C 389.28125 330.75 393.210938 329.339844 396.503906 330.894531 L 463.554688 362.5 C 466.847656 364.050781 468.257812 367.984375 466.703125 371.277344 C 465.148438 374.570312 461.21875 375.980469 457.925781 374.425781 L 390.878906 342.820312 " fill-opacity="1" fill-rule="nonzero"/><path fill="#575252" d="M 386.777344 293.71875 C 386.917969 292.878906 386.988281 292.050781 386.988281 291.234375 C 386.988281 287.066406 385.492188 283.558594 382.523438 280.6875 C 379.535156 277.839844 375.648438 276.402344 370.863281 276.402344 C 365.800781 276.402344 361.757812 277.917969 358.722656 280.964844 C 355.675781 284 354.140625 288.203125 354.101562 293.5625 L 343.300781 292.46875 C 344.035156 284.394531 346.824219 278.257812 351.648438 274.03125 C 356.472656 269.808594 362.96875 267.691406 371.101562 267.691406 C 379.3125 267.691406 385.8125 269.984375 390.59375 274.53125 C 393.675781 277.460938 395.769531 280.832031 396.867188 284.652344 C 393.578125 287.261719 390.417969 290.070312 387.410156 293.074219 C 387.199219 293.289062 386.988281 293.503906 386.777344 293.71875 " fill-opacity="1" fill-rule="nonzero"/><path fill="#575252" d="M 356.71875 353.65625 L 341.324219 353.65625 C 341.246094 351.125 341.644531 348.695312 342.539062 346.363281 C 343.976562 342.496094 346.289062 338.707031 349.457031 334.960938 C 352.644531 331.234375 357.230469 326.910156 363.207031 322.007812 C 365.464844 320.15625 367.542969 318.402344 369.445312 316.738281 C 365.667969 323.449219 362.617188 330.539062 360.339844 337.890625 C 358.554688 339.757812 357.085938 341.644531 355.914062 343.550781 L 358.753906 343.550781 C 357.917969 346.875 357.242188 350.25 356.71875 353.65625 " fill-opacity="1" fill-rule="nonzero"/><path fill="#575252" d="M 315.730469 353.65625 L 305.230469 353.65625 L 305.230469 286.6875 C 302.699219 289.097656 299.390625 291.511719 295.285156 293.921875 C 291.160156 296.332031 287.472656 298.148438 284.203125 299.34375 L 284.203125 289.199219 C 290.078125 286.429688 295.222656 283.082031 299.628906 279.152344 C 304.015625 275.207031 307.140625 271.402344 308.976562 267.691406 L 315.730469 267.691406 L 315.730469 353.65625 " fill-opacity="1" fill-rule="nonzero"/></svg>