<svg xmlns="http://www.w3.org/2000/svg" xmlns:xlink="http://www.w3.org/1999/xlink" width="1080" zoomAndPan="magnify" viewBox="0 0 810 809.999993" height="1080" preserveAspectRatio="xMidYMid meet" version="1.0"><defs><clipPath id="942d46e112"><path d="M 166.113281 81 L 643.886719 81 L 643.886719 558.773438 L 166.113281 558.773438 Z M 166.113281 81 " clip-rule="nonzero"/></clipPath><clipPath id="1b27a09be7"><path d="M 405 81 C 273.066406 81 166.113281 187.953125 166.113281 319.886719 C 166.113281 451.820312 273.066406 558.773438 405 558.773438 C 536.933594 558.773438 643.886719 451.820312 643.886719 319.886719 C 643.886719 187.953125 536.933594 81 405 81 Z M 405 81 " clip-rule="nonzero"/></clipPath><clipPath id="d17480ff89"><path d="M 123 32.746094 L 687 32.746094 L 687 777.496094 L 123 777.496094 Z M 123 32.746094 " clip-rule="nonzero"/></clipPath><clipPath id="a9f4e35e20"><path d="M 229.296875 180 L 571 180 L 571 461.355469 L 229.296875 461.355469 Z M 229.296875 180 " clip-rule="nonzero"/></clipPath></defs><g clip-path="url(#942d46e112)"><g clip-path="url(#1b27a09be7)"><path fill="#ffffff" d="M 166.113281 81 L 643.886719 81 L 643.886719 558.773438 L 166.113281 558.773438 Z M 166.113281 81 " fill-opacity="1" fill-rule="nonzero"/></g></g><g clip-path="url(#d17480ff89)"><path fill="#f5333f" d="M 686.882812 314.050781 C 686.597656 158.429688 560.191406 32.492188 404.574219 32.789062 C 248.957031 33.09375 123.046875 159.492188 123.324219 315.109375 C 123.433594 369.082031 139.75 418.820312 165.085938 462.25 C 222.328125 560.347656 405.984375 777.042969 405.984375 777.042969 C 405.984375 777.042969 591.347656 556.4375 647.773438 457.820312 C 672.066406 415.324219 687 366.53125 686.882812 314.050781 Z M 404.691406 97.863281 C 524.40625 97.632812 621.59375 194.488281 621.828125 314.175781 C 622.050781 433.851562 525.222656 531.078125 405.5 531.320312 C 285.839844 531.519531 188.632812 434.679688 188.398438 314.992188 C 188.164062 195.304688 284.996094 98.082031 404.691406 97.863281 Z M 404.691406 97.863281 " fill-opacity="1" fill-rule="nonzero"/></g><g clip-path="url(#a9f4e35e20)"><path fill="#f5333f" d="M 257.636719 352.128906 C 259.273438 352.144531 260.898438 351.996094 262.507812 351.675781 L 271.691406 349.804688 C 274.378906 352.265625 277.390625 354.230469 280.730469 355.695312 C 284.070312 357.160156 287.554688 358.050781 291.1875 358.363281 L 294.816406 376.273438 C 295.277344 378.308594 296.050781 380.21875 297.136719 382.003906 C 298.226562 383.789062 299.566406 385.355469 301.164062 386.699219 C 301.136719 387.078125 301.136719 387.457031 301.164062 387.835938 L 311.703125 439.46875 C 312.074219 441.199219 312.609375 442.875 313.308594 444.5 C 314.003906 446.125 314.855469 447.667969 315.855469 449.125 C 316.859375 450.585938 317.992188 451.933594 319.257812 453.167969 C 320.523438 454.402344 321.898438 455.503906 323.378906 456.46875 C 325.574219 457.949219 327.9375 459.074219 330.464844 459.847656 C 332.996094 460.617188 335.585938 461.003906 338.230469 461.003906 C 340.140625 461.023438 342.027344 460.835938 343.898438 460.4375 C 345.625 460.0625 347.300781 459.527344 348.925781 458.828125 C 350.550781 458.125 352.089844 457.273438 353.546875 456.273438 C 355.007812 455.273438 356.355469 454.140625 357.589844 452.875 C 358.828125 451.613281 359.929688 450.242188 360.902344 448.761719 C 361.886719 447.277344 362.714844 445.707031 363.390625 444.054688 C 364.0625 442.40625 364.566406 440.703125 364.902344 438.953125 C 365.238281 437.203125 365.398438 435.433594 365.382812 433.652344 C 365.367188 431.867188 365.175781 430.105469 364.8125 428.359375 L 360.445312 406.933594 L 413.15625 393.445312 C 413.988281 393.226562 414.734375 392.839844 415.386719 392.285156 C 416.042969 391.726562 416.546875 391.058594 416.898438 390.273438 L 426.644531 368.847656 L 468.53125 375.367188 C 469.863281 375.59375 471.203125 375.707031 472.554688 375.707031 C 473.515625 375.703125 474.472656 375.648438 475.429688 375.542969 C 476.382812 375.433594 477.328125 375.273438 478.265625 375.0625 C 479.203125 374.851562 480.125 374.585938 481.035156 374.273438 C 481.941406 373.957031 482.828125 373.59375 483.695312 373.179688 C 484.566406 372.765625 485.40625 372.308594 486.222656 371.800781 C 487.039062 371.296875 487.828125 370.746094 488.582031 370.152344 C 489.335938 369.558594 490.058594 368.925781 490.742188 368.25 C 491.429688 367.578125 492.074219 366.871094 492.683594 366.125 C 493.289062 365.378906 493.855469 364.601562 494.375 363.796875 C 494.894531 362.988281 495.371094 362.15625 495.800781 361.296875 C 496.226562 360.433594 496.609375 359.554688 496.9375 358.652344 C 497.269531 357.75 497.550781 356.832031 497.777344 355.898438 C 498.007812 354.964844 498.183594 354.023438 498.308594 353.070312 C 498.433594 352.117188 498.507812 351.160156 498.527344 350.199219 C 498.542969 349.238281 498.511719 348.28125 498.421875 347.324219 C 498.335938 346.367188 498.195312 345.417969 498.003906 344.476562 L 491.089844 310.46875 C 492.777344 309.859375 494.414062 309.140625 496.003906 308.304688 C 497.59375 307.46875 499.117188 306.527344 500.574219 305.480469 C 502.03125 304.433594 503.410156 303.289062 504.710938 302.050781 C 506.011719 300.816406 507.21875 299.492188 508.335938 298.089844 C 509.453125 296.683594 510.46875 295.207031 511.378906 293.660156 C 512.292969 292.117188 513.09375 290.515625 513.785156 288.859375 C 514.476562 287.203125 515.050781 285.503906 515.507812 283.769531 C 515.960938 282.03125 516.296875 280.273438 516.507812 278.492188 C 516.71875 276.707031 516.808594 274.917969 516.773438 273.125 C 516.738281 271.332031 516.578125 269.546875 516.296875 267.773438 C 516.011719 266 515.609375 264.257812 515.085938 262.539062 C 514.5625 260.824219 513.921875 259.152344 513.164062 257.523438 C 512.410156 255.894531 511.546875 254.328125 510.574219 252.816406 C 509.597656 251.308594 508.527344 249.875 507.355469 248.515625 C 506.183594 247.15625 504.921875 245.882812 503.574219 244.699219 C 502.226562 243.511719 500.804688 242.425781 499.304688 241.4375 C 495.820312 239.113281 492.054688 237.410156 488.011719 236.324219 C 483.964844 235.234375 479.851562 234.824219 475.671875 235.089844 L 468.757812 201.082031 C 468.65625 200.570312 468.539062 200.058594 468.40625 199.554688 C 468.273438 199.046875 468.125 198.542969 467.960938 198.046875 C 467.796875 197.550781 467.617188 197.058594 467.425781 196.570312 C 467.234375 196.082031 467.027344 195.601562 466.804688 195.128906 C 466.582031 194.652344 466.34375 194.1875 466.09375 193.726562 C 465.84375 193.265625 465.582031 192.816406 465.304688 192.371094 C 465.027344 191.925781 464.734375 191.492188 464.429688 191.066406 C 464.128906 190.636719 463.8125 190.222656 463.480469 189.8125 C 463.152344 189.40625 462.8125 189.007812 462.460938 188.621094 C 462.105469 188.234375 461.742188 187.859375 461.367188 187.496094 C 460.992188 187.128906 460.605469 186.777344 460.207031 186.433594 C 459.808594 186.09375 459.402344 185.765625 458.988281 185.445312 C 458.570312 185.128906 458.144531 184.828125 457.707031 184.535156 C 457.273438 184.242188 456.828125 183.964844 456.378906 183.703125 C 455.925781 183.4375 455.464844 183.1875 455 182.949219 C 454.53125 182.714844 454.058594 182.492188 453.578125 182.28125 C 453.097656 182.074219 452.609375 181.882812 452.117188 181.703125 C 451.625 181.523438 451.128906 181.359375 450.625 181.210938 C 450.125 181.0625 449.617188 180.929688 449.109375 180.8125 C 448.597656 180.695312 448.082031 180.589844 447.566406 180.503906 C 447.050781 180.417969 446.53125 180.34375 446.011719 180.289062 C 445.492188 180.234375 444.96875 180.195312 444.445312 180.167969 C 443.921875 180.144531 443.398438 180.136719 442.875 180.144531 C 442.351562 180.152344 441.828125 180.175781 441.308594 180.214844 C 440.785156 180.253906 440.265625 180.308594 439.746094 180.378906 C 439.226562 180.449219 438.710938 180.535156 438.195312 180.636719 C 437.683594 180.738281 437.171875 180.855469 436.664062 180.988281 C 436.160156 181.121094 435.65625 181.265625 435.160156 181.429688 C 434.660156 181.59375 434.167969 181.769531 433.683594 181.960938 C 433.195312 182.15625 432.714844 182.363281 432.238281 182.582031 C 431.765625 182.804688 431.296875 183.039062 430.835938 183.289062 C 430.375 183.539062 429.925781 183.804688 429.480469 184.078125 L 309.890625 259.855469 L 280.304688 267.960938 C 278.09375 268.558594 275.96875 269.378906 273.929688 270.417969 C 271.890625 271.460938 269.980469 272.699219 268.199219 274.140625 C 266.417969 275.578125 264.804688 277.1875 263.359375 278.964844 C 261.914062 280.738281 260.667969 282.644531 259.617188 284.683594 L 258.429688 284.683594 L 249.191406 286.550781 C 247.648438 286.871094 246.152344 287.339844 244.699219 287.953125 C 243.25 288.566406 241.875 289.316406 240.570312 290.203125 C 239.269531 291.085938 238.0625 292.089844 236.957031 293.210938 C 235.851562 294.332031 234.867188 295.550781 234 296.867188 C 233.121094 298.175781 232.378906 299.558594 231.777344 301.015625 C 231.175781 302.472656 230.722656 303.976562 230.421875 305.523438 C 230.121094 307.070312 229.972656 308.632812 229.984375 310.210938 C 229.996094 311.789062 230.164062 313.347656 230.488281 314.890625 L 234.171875 333.085938 C 234.453125 334.417969 234.847656 335.722656 235.351562 336.988281 C 235.859375 338.257812 236.46875 339.472656 237.179688 340.636719 C 237.890625 341.800781 238.695312 342.898438 239.597656 343.925781 C 240.496094 344.953125 241.476562 345.894531 242.535156 346.753906 C 243.59375 347.617188 244.71875 348.378906 245.910156 349.046875 C 247.101562 349.71875 248.335938 350.28125 249.625 350.738281 C 250.910156 351.195312 252.226562 351.539062 253.570312 351.773438 C 254.914062 352.007812 256.269531 352.125 257.636719 352.128906 Z M 309.269531 379.050781 C 308.394531 378.476562 307.664062 377.753906 307.074219 376.890625 C 306.484375 376.027344 306.082031 375.085938 305.867188 374.0625 L 302.578125 357.796875 L 329.160156 354.054688 L 342.539062 356.152344 L 344.578125 366.128906 C 344.78125 367.160156 344.78125 368.191406 344.574219 369.222656 C 344.367188 370.25 343.972656 371.203125 343.386719 372.078125 C 342.820312 372.953125 342.101562 373.679688 341.234375 374.261719 C 340.371094 374.839844 339.425781 375.226562 338.398438 375.421875 L 315.21875 380.183594 C 314.199219 380.378906 313.179688 380.378906 312.164062 380.183594 C 311.144531 379.984375 310.199219 379.609375 309.324219 379.050781 Z M 351.550781 442.980469 C 351.265625 443.414062 350.960938 443.835938 350.636719 444.238281 C 350.3125 444.640625 349.96875 445.027344 349.609375 445.398438 C 349.246094 445.769531 348.863281 446.121094 348.46875 446.453125 C 348.070312 446.785156 347.65625 447.097656 347.230469 447.386719 C 346.800781 447.679688 346.359375 447.949219 345.90625 448.195312 C 345.449219 448.445312 344.984375 448.667969 344.507812 448.871094 C 344.027344 449.070312 343.542969 449.25 343.046875 449.402344 C 342.554688 449.554688 342.050781 449.683594 341.546875 449.789062 C 341.039062 449.890625 340.527344 449.96875 340.011719 450.023438 C 339.496094 450.078125 338.980469 450.105469 338.460938 450.105469 C 337.941406 450.109375 337.425781 450.085938 336.910156 450.035156 C 336.394531 449.988281 335.882812 449.914062 335.375 449.8125 C 334.867188 449.714844 334.363281 449.589844 333.867188 449.441406 C 333.371094 449.289062 332.886719 449.117188 332.40625 448.917969 C 331.925781 448.722656 331.460938 448.5 331.003906 448.257812 C 330.546875 448.011719 330.101562 447.746094 329.671875 447.457031 C 327.957031 446.332031 326.519531 444.925781 325.351562 443.242188 C 324.183594 441.554688 323.375 439.710938 322.925781 437.710938 L 313.574219 391.972656 C 314.894531 391.980469 316.195312 391.847656 317.484375 391.574219 L 340.722656 386.699219 C 342.035156 386.449219 343.300781 386.054688 344.519531 385.511719 L 353.984375 431.078125 C 354.398438 433.140625 354.402344 435.207031 353.988281 437.269531 C 353.574219 439.332031 352.78125 441.234375 351.605469 442.980469 Z M 407.828125 383.582031 L 358.292969 396.222656 L 354.382812 377.179688 L 353.984375 376.101562 C 354.9375 374.242188 355.558594 372.277344 355.851562 370.210938 C 356.140625 368.140625 356.085938 366.082031 355.6875 364.03125 L 354.496094 358.363281 L 415.199219 367.488281 Z M 493.128906 251.527344 C 493.882812 252.019531 494.613281 252.554688 495.316406 253.121094 C 496.019531 253.6875 496.695312 254.289062 497.339844 254.921875 C 497.980469 255.558594 498.59375 256.222656 499.171875 256.914062 C 499.75 257.609375 500.292969 258.332031 500.800781 259.078125 C 501.308594 259.828125 501.777344 260.597656 502.210938 261.390625 C 502.640625 262.1875 503.03125 263 503.382812 263.832031 C 503.734375 264.664062 504.042969 265.511719 504.3125 266.375 C 504.578125 267.238281 504.804688 268.113281 504.984375 269 C 505.167969 269.882812 505.304688 270.777344 505.398438 271.675781 C 505.488281 272.574219 505.539062 273.476562 505.542969 274.378906 C 505.546875 275.285156 505.507812 276.183594 505.421875 277.085938 C 505.339844 277.984375 505.210938 278.878906 505.035156 279.765625 C 504.863281 280.652344 504.648438 281.527344 504.390625 282.394531 C 504.128906 283.261719 503.828125 284.113281 503.484375 284.949219 C 503.144531 285.785156 502.757812 286.601562 502.335938 287.398438 C 501.910156 288.199219 501.449219 288.972656 500.949219 289.726562 C 499.476562 291.960938 497.71875 293.9375 495.671875 295.664062 C 493.628906 297.390625 491.382812 298.792969 488.933594 299.871094 L 478.109375 246.933594 C 480.792969 246.953125 483.414062 247.351562 485.980469 248.132812 C 488.546875 248.914062 490.949219 250.046875 493.183594 251.527344 Z M 435.601562 194.847656 C 436.101562 194.535156 436.617188 194.253906 437.152344 194.003906 C 437.683594 193.753906 438.230469 193.535156 438.792969 193.351562 C 439.351562 193.167969 439.921875 193.015625 440.5 192.898438 C 441.078125 192.785156 441.660156 192.703125 442.246094 192.65625 C 442.835938 192.613281 443.425781 192.601562 444.011719 192.625 C 444.601562 192.652344 445.1875 192.710938 445.769531 192.808594 C 446.351562 192.902344 446.925781 193.035156 447.492188 193.199219 C 448.058594 193.363281 448.613281 193.5625 449.152344 193.792969 C 449.695312 194.023438 450.222656 194.289062 450.734375 194.582031 C 451.242188 194.878906 451.734375 195.203125 452.207031 195.554688 C 452.675781 195.910156 453.125 196.292969 453.550781 196.699219 C 453.976562 197.109375 454.375 197.539062 454.75 197.996094 C 455.121094 198.453125 455.46875 198.929688 455.78125 199.429688 C 456.097656 199.925781 456.382812 200.441406 456.636719 200.972656 C 456.890625 201.503906 457.113281 202.050781 457.300781 202.609375 C 457.488281 203.167969 457.640625 203.738281 457.761719 204.3125 L 487.0625 347.027344 C 487.183594 347.605469 487.265625 348.1875 487.316406 348.773438 C 487.363281 349.359375 487.378906 349.949219 487.355469 350.535156 C 487.332031 351.125 487.277344 351.710938 487.183594 352.292969 C 487.089844 352.875 486.960938 353.449219 486.800781 354.015625 C 486.636719 354.582031 486.441406 355.132812 486.210938 355.675781 C 485.984375 356.21875 485.722656 356.746094 485.429688 357.257812 C 485.136719 357.769531 484.8125 358.261719 484.460938 358.730469 C 484.109375 359.203125 483.726562 359.652344 483.320312 360.078125 C 482.914062 360.503906 482.484375 360.90625 482.027344 361.28125 C 481.574219 361.652344 481.097656 362 480.601562 362.316406 C 480.105469 362.632812 479.589844 362.917969 479.058594 363.171875 C 478.527344 363.425781 477.984375 363.648438 477.425781 363.835938 C 476.867188 364.027344 476.300781 364.179688 475.722656 364.300781 C 475.144531 364.417969 474.5625 364.503906 473.976562 364.554688 C 473.390625 364.605469 472.800781 364.617188 472.214844 364.597656 C 471.625 364.574219 471.039062 364.519531 470.457031 364.425781 L 334.035156 343.34375 L 318.5625 267.679688 Z M 282.96875 279.015625 L 307.851562 272.269531 L 322.472656 343.683594 L 296.96875 347.253906 C 296.296875 347.34375 295.621094 347.402344 294.941406 347.429688 C 294.261719 347.457031 293.582031 347.453125 292.902344 347.417969 C 292.226562 347.378906 291.550781 347.308594 290.878906 347.210938 C 290.207031 347.109375 289.539062 346.976562 288.882812 346.8125 C 288.222656 346.648438 287.570312 346.453125 286.929688 346.226562 C 286.289062 346.003906 285.660156 345.746094 285.042969 345.460938 C 284.425781 345.175781 283.824219 344.863281 283.238281 344.519531 C 282.652344 344.179688 282.082031 343.808594 281.527344 343.414062 C 280.976562 343.019531 280.445312 342.597656 279.933594 342.152344 C 279.417969 341.703125 278.929688 341.234375 278.460938 340.742188 C 277.992188 340.25 277.550781 339.734375 277.132812 339.203125 C 276.710938 338.667969 276.320312 338.113281 275.953125 337.542969 C 275.585938 336.96875 275.246094 336.382812 274.933594 335.777344 C 274.621094 335.171875 274.339844 334.554688 274.089844 333.925781 C 273.835938 333.292969 273.613281 332.652344 273.421875 332 C 273.226562 331.351562 273.066406 330.691406 272.9375 330.023438 L 267.609375 303.953125 C 267.480469 303.292969 267.378906 302.628906 267.3125 301.960938 C 267.242188 301.292969 267.207031 300.625 267.199219 299.953125 C 267.195312 299.28125 267.21875 298.613281 267.277344 297.941406 C 267.332031 297.273438 267.421875 296.609375 267.539062 295.949219 C 267.660156 295.285156 267.808594 294.632812 267.988281 293.984375 C 268.167969 293.339844 268.378906 292.703125 268.617188 292.074219 C 268.859375 291.449219 269.128906 290.832031 269.425781 290.230469 C 269.722656 289.628906 270.046875 289.042969 270.398438 288.46875 C 270.75 287.898438 271.128906 287.34375 271.53125 286.808594 C 271.9375 286.273438 272.363281 285.753906 272.816406 285.257812 C 273.269531 284.761719 273.742188 284.289062 274.238281 283.835938 C 274.738281 283.386719 275.253906 282.957031 275.789062 282.554688 C 276.328125 282.148438 276.878906 281.773438 277.453125 281.421875 C 278.023438 281.070312 278.613281 280.746094 279.214844 280.449219 C 279.816406 280.152344 280.429688 279.882812 281.058594 279.644531 C 281.683594 279.402344 282.324219 279.195312 282.96875 279.015625 Z M 243.296875 303.160156 C 244.210938 301.71875 245.363281 300.511719 246.757812 299.527344 C 248.152344 298.546875 249.679688 297.867188 251.34375 297.492188 L 255.878906 296.585938 C 255.570312 299.828125 255.777344 303.039062 256.5 306.21875 L 261.828125 332.402344 C 262.40625 334.9375 263.257812 337.375 264.378906 339.714844 L 260.296875 340.566406 C 259.480469 340.734375 258.65625 340.824219 257.820312 340.832031 C 256.988281 340.839844 256.160156 340.765625 255.339844 340.609375 C 254.519531 340.453125 253.722656 340.21875 252.949219 339.90625 C 252.175781 339.59375 251.441406 339.207031 250.746094 338.75 C 250.046875 338.289062 249.402344 337.769531 248.804688 337.183594 C 248.210938 336.597656 247.679688 335.960938 247.210938 335.269531 C 246.742188 334.578125 246.34375 333.851562 246.019531 333.082031 C 245.695312 332.3125 245.449219 331.519531 245.277344 330.703125 L 241.539062 312.511719 C 241.214844 310.871094 241.214844 309.230469 241.539062 307.59375 C 241.863281 305.953125 242.488281 304.4375 243.410156 303.046875 Z M 528.097656 291.824219 C 529.195312 289.652344 530.109375 287.40625 530.835938 285.082031 C 531.566406 282.761719 532.097656 280.394531 532.433594 277.984375 C 532.773438 275.574219 532.910156 273.152344 532.847656 270.71875 C 532.785156 268.285156 532.523438 265.875 532.066406 263.484375 C 531.566406 261.085938 530.867188 258.746094 529.972656 256.464844 C 529.078125 254.183594 528 251.996094 526.734375 249.894531 C 525.46875 247.796875 524.039062 245.820312 522.441406 243.960938 C 520.84375 242.105469 519.101562 240.394531 517.214844 238.832031 C 516.925781 238.59375 516.664062 238.332031 516.425781 238.042969 C 516.191406 237.753906 515.984375 237.449219 515.808594 237.117188 C 515.632812 236.789062 515.488281 236.445312 515.378906 236.089844 C 515.269531 235.734375 515.199219 235.371094 515.160156 235 C 515.125 234.628906 515.125 234.253906 515.160156 233.882812 C 515.195312 233.511719 515.269531 233.148438 515.375 232.792969 C 515.484375 232.433594 515.625 232.09375 515.800781 231.761719 C 515.976562 231.433594 516.183594 231.125 516.417969 230.835938 C 516.65625 230.546875 516.917969 230.285156 517.207031 230.046875 C 517.496094 229.8125 517.804688 229.605469 518.132812 229.429688 C 518.460938 229.253906 518.804688 229.109375 519.160156 229.003906 C 519.519531 228.894531 519.882812 228.820312 520.253906 228.785156 C 520.625 228.746094 520.996094 228.746094 521.367188 228.785156 C 521.738281 228.820312 522.101562 228.890625 522.460938 229 C 522.816406 229.109375 523.160156 229.25 523.488281 229.425781 C 523.816406 229.601562 524.125 229.808594 524.414062 230.046875 C 525.609375 231.023438 526.761719 232.050781 527.867188 233.128906 C 528.976562 234.207031 530.035156 235.328125 531.046875 236.496094 C 532.058594 237.664062 533.019531 238.875 533.925781 240.121094 C 534.835938 241.371094 535.691406 242.65625 536.488281 243.980469 C 537.289062 245.300781 538.03125 246.65625 538.714844 248.042969 C 539.398438 249.425781 540.023438 250.839844 540.585938 252.277344 C 541.148438 253.714844 541.652344 255.175781 542.089844 256.65625 C 542.53125 258.136719 542.90625 259.632812 543.21875 261.148438 C 543.53125 262.660156 543.777344 264.183594 543.957031 265.71875 C 544.140625 267.253906 544.257812 268.792969 544.308594 270.335938 C 544.359375 271.878906 544.34375 273.425781 544.265625 274.96875 C 544.183594 276.511719 544.039062 278.046875 543.824219 279.578125 C 543.613281 281.109375 543.339844 282.625 542.996094 284.132812 C 542.65625 285.640625 542.253906 287.128906 541.785156 288.601562 C 541.316406 290.074219 540.789062 291.523438 540.195312 292.953125 C 539.605469 294.378906 538.953125 295.777344 538.242188 297.152344 C 538.007812 297.609375 537.710938 298.027344 537.359375 298.402344 C 537.011719 298.78125 536.613281 299.105469 536.175781 299.375 C 535.734375 299.644531 535.269531 299.851562 534.773438 299.992188 C 534.277344 300.132812 533.769531 300.207031 533.253906 300.210938 C 532.335938 300.214844 531.46875 300.007812 530.648438 299.589844 C 530.316406 299.417969 530.003906 299.214844 529.714844 298.984375 C 529.421875 298.75 529.15625 298.492188 528.914062 298.207031 C 528.671875 297.921875 528.460938 297.617188 528.28125 297.292969 C 528.101562 296.964844 527.953125 296.625 527.839844 296.269531 C 527.726562 295.914062 527.652344 295.550781 527.609375 295.179688 C 527.566406 294.808594 527.5625 294.4375 527.59375 294.066406 C 527.625 293.695312 527.695312 293.328125 527.796875 292.96875 C 527.902344 292.613281 528.039062 292.269531 528.210938 291.9375 Z M 549.183594 314.496094 C 551.40625 310.058594 553.242188 305.46875 554.691406 300.722656 C 556.136719 295.976562 557.175781 291.140625 557.804688 286.21875 C 558.429688 281.296875 558.640625 276.355469 558.429688 271.398438 C 558.21875 266.441406 557.59375 261.535156 556.550781 256.683594 C 555.507812 252.097656 554.097656 247.625 552.328125 243.269531 C 550.554688 238.914062 548.445312 234.726562 545.992188 230.714844 C 543.539062 226.703125 540.78125 222.914062 537.710938 219.347656 C 534.640625 215.785156 531.304688 212.492188 527.703125 209.472656 C 527.421875 209.21875 527.167969 208.945312 526.941406 208.644531 C 526.714844 208.339844 526.519531 208.019531 526.355469 207.679688 C 526.191406 207.34375 526.0625 206.988281 525.96875 206.625 C 525.875 206.261719 525.816406 205.890625 525.796875 205.511719 C 525.773438 205.136719 525.792969 204.761719 525.84375 204.386719 C 525.898438 204.015625 525.984375 203.652344 526.109375 203.296875 C 526.234375 202.941406 526.390625 202.597656 526.582031 202.273438 C 526.777344 201.949219 526.996094 201.648438 527.25 201.367188 C 527.5 201.085938 527.777344 200.832031 528.078125 200.605469 C 528.378906 200.378906 528.699219 200.183594 529.039062 200.019531 C 529.378906 199.855469 529.730469 199.726562 530.09375 199.632812 C 530.460938 199.539062 530.832031 199.480469 531.207031 199.460938 C 531.582031 199.441406 531.957031 199.457031 532.332031 199.507812 C 532.703125 199.5625 533.070312 199.648438 533.425781 199.773438 C 533.78125 199.898438 534.121094 200.058594 534.445312 200.25 C 534.769531 200.441406 535.070312 200.660156 535.351562 200.914062 C 537.457031 202.664062 539.480469 204.496094 541.429688 206.417969 C 543.378906 208.335938 545.242188 210.335938 547.023438 212.414062 C 548.800781 214.492188 550.492188 216.640625 552.089844 218.863281 C 553.6875 221.082031 555.1875 223.367188 556.59375 225.710938 C 558 228.058594 559.304688 230.460938 560.507812 232.917969 C 561.707031 235.375 562.804688 237.878906 563.796875 240.429688 C 564.789062 242.980469 565.667969 245.566406 566.441406 248.191406 C 567.214844 250.816406 567.875 253.46875 568.425781 256.148438 C 568.972656 258.828125 569.410156 261.527344 569.730469 264.242188 C 570.050781 266.960938 570.257812 269.683594 570.347656 272.417969 C 570.4375 275.152344 570.414062 277.886719 570.273438 280.617188 C 570.132812 283.351562 569.878906 286.070312 569.507812 288.78125 C 569.140625 291.492188 568.65625 294.183594 568.058594 296.851562 C 567.460938 299.523438 566.753906 302.164062 565.933594 304.773438 C 565.113281 307.382812 564.1875 309.953125 563.148438 312.484375 C 562.113281 315.015625 560.96875 317.5 559.722656 319.933594 C 559.488281 320.40625 559.1875 320.835938 558.832031 321.226562 C 558.472656 321.613281 558.070312 321.945312 557.617188 322.222656 C 557.167969 322.496094 556.6875 322.703125 556.179688 322.847656 C 555.667969 322.988281 555.152344 323.054688 554.625 323.050781 C 553.71875 323.0625 552.871094 322.855469 552.074219 322.429688 C 551.71875 322.273438 551.382812 322.085938 551.070312 321.863281 C 550.753906 321.640625 550.464844 321.386719 550.203125 321.105469 C 549.9375 320.820312 549.707031 320.515625 549.503906 320.1875 C 549.304688 319.855469 549.140625 319.507812 549.007812 319.144531 C 548.878906 318.78125 548.785156 318.410156 548.734375 318.027344 C 548.679688 317.644531 548.664062 317.261719 548.691406 316.875 C 548.714844 316.488281 548.777344 316.109375 548.878906 315.738281 C 548.980469 315.367188 549.121094 315.007812 549.296875 314.664062 Z M 549.183594 314.496094 " fill-opacity="1" fill-rule="nonzero"/></g></svg>