<svg xmlns="http://www.w3.org/2000/svg" xmlns:xlink="http://www.w3.org/1999/xlink" width="1080" zoomAndPan="magnify" viewBox="0 0 810 809.999993" height="1080" preserveAspectRatio="xMidYMid meet" version="1.0"><defs><clipPath id="9dc7178eeb"><path d="M 166.113281 81 L 643.886719 81 L 643.886719 558.773438 L 166.113281 558.773438 Z M 166.113281 81 " clip-rule="nonzero"/></clipPath><clipPath id="45d1bfd24a"><path d="M 405 81 C 273.066406 81 166.113281 187.953125 166.113281 319.886719 C 166.113281 451.820312 273.066406 558.773438 405 558.773438 C 536.933594 558.773438 643.886719 451.820312 643.886719 319.886719 C 643.886719 187.953125 536.933594 81 405 81 Z M 405 81 " clip-rule="nonzero"/></clipPath><clipPath id="680ff7db76"><path d="M 123 32.746094 L 687 32.746094 L 687 777.496094 L 123 777.496094 Z M 123 32.746094 " clip-rule="nonzero"/></clipPath><clipPath id="0d26fe4dff"><path d="M 243 130 L 567 130 L 567 442.25 L 243 442.25 Z M 243 130 " clip-rule="nonzero"/></clipPath></defs><g clip-path="url(#9dc7178eeb)"><g clip-path="url(#45d1bfd24a)"><path fill="#ffffff" d="M 166.113281 81 L 643.886719 81 L 643.886719 558.773438 L 166.113281 558.773438 Z M 166.113281 81 " fill-opacity="1" fill-rule="nonzero"/></g></g><g clip-path="url(#680ff7db76)"><path fill="#b257b0" d="M 686.882812 314.050781 C 686.597656 158.429688 560.191406 32.492188 404.574219 32.789062 C 248.957031 33.09375 123.046875 159.492188 123.324219 315.109375 C 123.433594 369.082031 139.75 418.820312 165.085938 462.25 C 222.328125 560.347656 405.984375 777.042969 405.984375 777.042969 C 405.984375 777.042969 591.347656 556.4375 647.773438 457.820312 C 672.066406 415.324219 687 366.53125 686.882812 314.050781 Z M 404.691406 97.863281 C 524.40625 97.632812 621.59375 194.488281 621.828125 314.175781 C 622.050781 433.851562 525.222656 531.078125 405.5 531.320312 C 285.839844 531.519531 188.632812 434.679688 188.398438 314.992188 C 188.164062 195.304688 284.996094 98.078125 404.691406 97.863281 Z M 404.691406 97.863281 " fill-opacity="1" fill-rule="nonzero"/></g><g clip-path="url(#0d26fe4dff)"><path fill="#b257b0" d="M 564.125 265.382812 L 529.113281 247.878906 C 486.128906 226.386719 447.722656 197.90625 414.734375 163.089844 L 418.128906 162.238281 C 422.308594 161.195312 426.753906 161.652344 430.671875 163.613281 L 433.414062 164.984375 C 441.449219 168.96875 450.988281 168.96875 459.023438 164.984375 C 464.117188 162.4375 470.191406 162.4375 475.222656 164.984375 L 485.671875 170.210938 C 486.390625 170.601562 487.242188 170.730469 488.023438 170.730469 C 489.003906 170.730469 489.917969 170.46875 490.769531 169.949219 C 492.335938 168.96875 493.25 167.335938 493.25 165.507812 L 493.25 144.601562 C 493.25 142.644531 492.140625 140.8125 490.375 139.898438 L 479.925781 134.671875 C 471.890625 130.6875 462.351562 130.6875 454.320312 134.671875 C 449.222656 137.222656 443.148438 137.222656 438.117188 134.671875 L 435.375 133.300781 C 429.300781 130.230469 422.246094 129.511719 415.648438 131.144531 L 403.105469 134.28125 C 400.753906 134.871094 399.121094 136.960938 399.121094 139.375 L 399.121094 158.972656 C 365.285156 195.683594 325.566406 225.539062 280.886719 247.878906 L 245.875 265.382812 C 243.652344 266.496094 243 272.308594 243 272.765625 L 243 437.3125 C 243 440.1875 245.351562 442.539062 248.226562 442.539062 L 263.902344 442.539062 C 266.777344 442.539062 269.128906 440.1875 269.128906 437.3125 L 269.128906 411.902344 C 269.128906 409.027344 266.777344 406.675781 263.902344 406.675781 C 258.15625 406.675781 253.453125 401.972656 253.453125 396.226562 L 253.453125 329.988281 C 259.003906 334.953125 266.320312 338.023438 274.355469 338.023438 C 285.265625 338.023438 294.867188 332.40625 300.484375 323.976562 C 306.101562 332.46875 315.703125 338.023438 326.613281 338.023438 C 334.648438 338.023438 341.964844 335.019531 347.515625 329.988281 L 347.515625 398.121094 C 347.515625 403.867188 342.8125 408.570312 337.066406 408.570312 C 334.191406 408.570312 331.839844 410.921875 331.839844 413.796875 L 331.839844 437.3125 C 331.839844 440.1875 334.191406 442.539062 337.066406 442.539062 L 368.417969 442.539062 C 371.292969 442.539062 373.644531 440.1875 373.644531 437.3125 L 373.644531 413.796875 C 373.644531 410.921875 371.292969 408.570312 368.417969 408.570312 C 362.671875 408.570312 357.96875 403.867188 357.96875 398.121094 L 357.96875 329.988281 C 363.519531 334.953125 370.835938 338.023438 378.871094 338.023438 C 389.78125 338.023438 399.382812 332.40625 405 323.976562 C 410.617188 332.46875 420.21875 338.023438 431.128906 338.023438 C 439.164062 338.023438 446.480469 335.019531 452.03125 329.988281 L 452.03125 398.121094 C 452.03125 403.867188 447.328125 408.570312 441.582031 408.570312 C 438.707031 408.570312 436.355469 410.921875 436.355469 413.796875 L 436.355469 437.3125 C 436.355469 440.1875 438.707031 442.539062 441.582031 442.539062 L 472.933594 442.539062 C 475.808594 442.539062 478.160156 440.1875 478.160156 437.3125 L 478.160156 413.796875 C 478.160156 410.921875 475.808594 408.570312 472.933594 408.570312 C 467.1875 408.570312 462.484375 403.867188 462.484375 398.121094 L 462.484375 329.988281 C 468.035156 334.953125 475.351562 338.023438 483.386719 338.023438 C 494.296875 338.023438 503.898438 332.40625 509.515625 323.976562 C 515.132812 332.46875 524.734375 338.023438 535.644531 338.023438 C 543.679688 338.023438 550.996094 335.019531 556.546875 329.988281 L 556.546875 398.121094 C 556.546875 403.867188 551.84375 408.570312 546.097656 408.570312 C 543.222656 408.570312 540.871094 410.921875 540.871094 413.796875 L 540.871094 437.3125 C 540.871094 440.1875 543.222656 442.539062 546.097656 442.539062 L 561.773438 442.539062 C 564.648438 442.539062 567 440.1875 567 437.3125 L 567 272.765625 C 567 272.308594 566.347656 266.496094 564.125 265.382812 Z M 253.453125 275.3125 L 295.257812 275.3125 L 295.257812 296.214844 L 253.453125 296.214844 Z M 399.773438 214.171875 L 399.773438 264.863281 L 365.347656 264.863281 L 368.027344 262.183594 C 381.484375 248.726562 392 233.050781 399.25 215.476562 C 399.449219 215.019531 399.578125 214.5625 399.773438 214.171875 Z M 410.226562 214.171875 C 410.421875 214.628906 410.550781 215.019531 410.75 215.476562 C 418 233.050781 428.515625 248.726562 441.972656 262.183594 L 444.652344 264.863281 L 410.226562 264.863281 Z M 459.414062 264.863281 L 449.355469 254.800781 C 430.34375 235.792969 417.738281 211.949219 412.707031 186.148438 C 429.824219 214.496094 453.011719 238.734375 480.773438 257.21875 L 492.269531 264.863281 Z M 397.292969 186.082031 C 392.261719 211.949219 379.71875 235.726562 360.644531 254.738281 L 350.585938 264.796875 L 317.730469 264.796875 L 329.226562 257.152344 C 356.988281 238.667969 380.175781 214.367188 397.292969 186.082031 Z M 305.710938 275.3125 L 347.515625 275.3125 L 347.515625 296.214844 L 305.710938 296.214844 Z M 357.96875 275.3125 L 399.773438 275.3125 L 399.773438 296.214844 L 357.96875 296.214844 Z M 410.226562 275.3125 L 452.03125 275.3125 L 452.03125 296.214844 L 410.226562 296.214844 Z M 462.484375 275.3125 L 504.289062 275.3125 L 504.289062 296.214844 L 462.484375 296.214844 Z M 514.742188 275.3125 L 556.546875 275.3125 L 556.546875 296.214844 L 514.742188 296.214844 Z M 539.628906 264.863281 L 511.082031 264.863281 L 486.523438 248.53125 C 463.59375 233.246094 443.933594 213.84375 428.515625 191.375 C 457.191406 217.632812 489.332031 239.710938 524.410156 257.285156 Z M 409.574219 143.492188 L 418.128906 141.335938 C 422.308594 140.292969 426.753906 140.75 430.671875 142.707031 L 433.414062 144.082031 C 441.449219 148.066406 450.988281 148.066406 459.023438 144.082031 C 464.117188 141.53125 470.191406 141.53125 475.222656 144.082031 L 482.800781 147.867188 L 482.800781 157.078125 L 479.925781 155.640625 C 471.890625 151.65625 462.351562 151.65625 454.320312 155.640625 C 449.222656 158.191406 443.148438 158.191406 438.117188 155.640625 L 435.375 154.269531 C 431.390625 152.246094 427.015625 151.265625 422.570312 151.265625 C 420.21875 151.265625 417.933594 151.527344 415.648438 152.113281 L 409.636719 153.617188 L 409.636719 143.492188 Z M 285.589844 257.21875 C 320.667969 239.710938 352.742188 217.632812 381.484375 191.308594 C 366.003906 213.78125 346.339844 233.179688 323.476562 248.464844 L 298.917969 264.796875 L 270.371094 264.796875 Z M 258.675781 416.476562 L 258.675781 432.085938 L 253.453125 432.085938 L 253.453125 414.320312 C 255.085938 415.234375 256.847656 416.019531 258.675781 416.476562 Z M 274.355469 327.570312 C 262.859375 327.570312 253.453125 318.164062 253.453125 306.667969 L 295.257812 306.667969 C 295.257812 318.164062 285.851562 327.570312 274.355469 327.570312 Z M 326.613281 327.570312 C 315.117188 327.570312 305.710938 318.164062 305.710938 306.667969 L 347.515625 306.667969 C 347.515625 318.164062 338.109375 327.570312 326.613281 327.570312 Z M 363.195312 418.304688 L 363.195312 432.023438 L 342.289062 432.023438 L 342.289062 418.304688 C 346.40625 417.257812 350 414.972656 352.742188 411.902344 C 355.484375 414.972656 359.078125 417.257812 363.195312 418.304688 Z M 378.871094 327.570312 C 367.375 327.570312 357.96875 318.164062 357.96875 306.667969 L 399.773438 306.667969 C 399.773438 318.164062 390.367188 327.570312 378.871094 327.570312 Z M 431.128906 327.570312 C 419.632812 327.570312 410.226562 318.164062 410.226562 306.667969 L 452.03125 306.667969 C 452.03125 318.164062 442.625 327.570312 431.128906 327.570312 Z M 467.710938 418.304688 L 467.710938 432.023438 L 446.804688 432.023438 L 446.804688 418.304688 C 450.921875 417.257812 454.515625 414.972656 457.257812 411.902344 C 460 414.972656 463.59375 417.257812 467.710938 418.304688 Z M 483.386719 327.570312 C 471.890625 327.570312 462.484375 318.164062 462.484375 306.667969 L 504.289062 306.667969 C 504.289062 318.164062 494.882812 327.570312 483.386719 327.570312 Z M 535.644531 327.570312 C 524.148438 327.570312 514.742188 318.164062 514.742188 306.667969 L 556.546875 306.667969 C 556.546875 318.164062 547.140625 327.570312 535.644531 327.570312 Z M 556.546875 432.085938 L 551.324219 432.085938 L 551.324219 418.371094 C 553.152344 417.914062 554.914062 417.195312 556.546875 416.214844 Z M 556.546875 432.085938 " fill-opacity="1" fill-rule="nonzero"/></g></svg>